<mxfile host="65bd71144e">
    <diagram id="yRLU8fRlxoYNpxIDgV7O" name="Architecture">
        <mxGraphModel dx="2559" dy="2159" grid="1" gridSize="10" guides="1" tooltips="1" connect="1" arrows="1" fold="1" page="1" pageScale="1" pageWidth="850" pageHeight="1100" math="0" shadow="0">
            <root>
                <mxCell id="0"/>
                <mxCell id="1" parent="0"/>
                <mxCell id="64" value="" style="rounded=1;whiteSpace=wrap;html=1;labelBackgroundColor=none;fontSize=16;fontColor=#333333;fillColor=#f5f5f5;strokeColor=#666666;arcSize=7;" vertex="1" parent="1">
                    <mxGeometry x="8" y="-29" width="1700" height="850" as="geometry"/>
                </mxCell>
                <mxCell id="mOjar0-Z3yJMxCgbcsLC-54" value="" style="group" parent="1" vertex="1" connectable="0">
                    <mxGeometry x="37" y="129" width="170" height="270" as="geometry"/>
                </mxCell>
                <mxCell id="mOjar0-Z3yJMxCgbcsLC-53" value="" style="rounded=1;whiteSpace=wrap;html=1;fillColor=#e1d5e7;strokeColor=#9673a6;strokeWidth=2;" parent="mOjar0-Z3yJMxCgbcsLC-54" vertex="1">
                    <mxGeometry y="22" width="170" height="230" as="geometry"/>
                </mxCell>
                <mxCell id="mOjar0-Z3yJMxCgbcsLC-52" value="Storage" style="aspect=fixed;html=1;points=[];align=center;image;fontSize=12;image=img/lib/azure2/storage/Storage_Accounts.svg;labelBackgroundColor=none;labelBorderColor=none;strokeColor=#99FFCC;strokeWidth=2;fontColor=#000000;" parent="mOjar0-Z3yJMxCgbcsLC-54" vertex="1">
                    <mxGeometry x="20" width="65" height="52" as="geometry"/>
                </mxCell>
                <mxCell id="47" value="Document Analyser servie" style="rounded=1;fillColor=#EBEDFF;strokeColor=#666666;labelPosition=center;verticalLabelPosition=top;align=center;verticalAlign=bottom;labelBackgroundColor=#E5CCFF;labelBorderColor=default;whiteSpace=wrap;html=1;strokeWidth=2;arcSize=6;fontSize=20;fontColor=#333333;" parent="1" vertex="1">
                    <mxGeometry x="230" y="40" width="900" height="460" as="geometry"/>
                </mxCell>
                <mxCell id="mOjar0-Z3yJMxCgbcsLC-49" value="Azuer AI Search" style="rounded=1;fillColor=#dae8fc;strokeColor=#6c8ebf;labelPosition=center;verticalLabelPosition=top;align=center;verticalAlign=bottom;labelBackgroundColor=#E5CCFF;labelBorderColor=none;whiteSpace=wrap;html=1;strokeWidth=2;arcSize=6;fontSize=20;fontColor=#000000;spacingLeft=1;spacingBottom=2;spacingRight=2;spacing=3;spacingTop=3;" parent="1" vertex="1">
                    <mxGeometry x="570" y="176.5" width="550" height="165" as="geometry"/>
                </mxCell>
                <mxCell id="48" style="edgeStyle=none;html=1;entryX=0;entryY=0.5;entryDx=0;entryDy=0;strokeColor=#1808FF;strokeWidth=2;fontSize=20;fontColor=#000000;" parent="1" source="2" target="3" edge="1">
                    <mxGeometry relative="1" as="geometry"/>
                </mxCell>
                <mxCell id="2" value="PDFs&lt;br&gt;" style="aspect=fixed;html=1;points=[];align=center;image;fontSize=12;image=img/lib/azure2/general/Files.svg;" parent="1" vertex="1">
                    <mxGeometry x="87" y="228.06" width="84" height="91.88" as="geometry"/>
                </mxCell>
                <mxCell id="5" value="" style="edgeStyle=none;html=1;entryX=0;entryY=0.5;entryDx=0;entryDy=0;fontColor=#000000;strokeWidth=2;strokeColor=#1808FF;" parent="1" source="3" target="8" edge="1">
                    <mxGeometry relative="1" as="geometry">
                        <mxPoint x="390" y="204" as="targetPoint"/>
                    </mxGeometry>
                </mxCell>
                <mxCell id="14" style="edgeStyle=none;html=1;entryX=0;entryY=0.5;entryDx=0;entryDy=0;fontColor=#000000;strokeWidth=2;strokeColor=#1808FF;" parent="1" source="3" target="11" edge="1">
                    <mxGeometry relative="1" as="geometry"/>
                </mxCell>
                <mxCell id="15" style="edgeStyle=none;html=1;entryX=0;entryY=0.5;entryDx=0;entryDy=0;fontColor=#000000;strokeWidth=2;strokeColor=#1808FF;" parent="1" source="3" target="12" edge="1">
                    <mxGeometry relative="1" as="geometry"/>
                </mxCell>
                <mxCell id="3" value="OCR/parser service" style="rounded=1;whiteSpace=wrap;html=1;fillColor=#d5e8d4;strokeColor=#82b366;strokeWidth=2;fontColor=#000000;" parent="1" vertex="1">
                    <mxGeometry x="239" y="231.5" width="144" height="82" as="geometry"/>
                </mxCell>
                <mxCell id="41" style="edgeStyle=none;html=1;entryX=0.5;entryY=1;entryDx=0;entryDy=0;fontColor=#000000;strokeWidth=2;strokeColor=#1808FF;" parent="1" source="8" target="40" edge="1">
                    <mxGeometry relative="1" as="geometry"/>
                </mxCell>
                <mxCell id="8" value="Texts" style="rounded=0;whiteSpace=wrap;html=1;fillColor=#f8cecc;strokeColor=none;fontColor=#000000;strokeWidth=2;" parent="1" vertex="1">
                    <mxGeometry x="410" y="160" width="120" height="60" as="geometry"/>
                </mxCell>
                <mxCell id="43" style="edgeStyle=none;html=1;fontColor=#000000;strokeWidth=2;strokeColor=#1808FF;entryX=-0.001;entryY=0.556;entryDx=0;entryDy=0;entryPerimeter=0;" parent="1" source="11" target="mOjar0-Z3yJMxCgbcsLC-49" edge="1">
                    <mxGeometry relative="1" as="geometry">
                        <mxPoint x="570" y="260" as="targetPoint"/>
                    </mxGeometry>
                </mxCell>
                <mxCell id="11" value="Tables" style="rounded=0;whiteSpace=wrap;html=1;fillColor=#f8cecc;strokeColor=none;fontColor=#000000;strokeWidth=2;" parent="1" vertex="1">
                    <mxGeometry x="410" y="240" width="120" height="60" as="geometry"/>
                </mxCell>
                <mxCell id="17" style="edgeStyle=none;html=1;entryX=0.5;entryY=0;entryDx=0;entryDy=0;fontColor=#000000;strokeWidth=2;strokeColor=#1808FF;" parent="1" source="12" target="16" edge="1">
                    <mxGeometry relative="1" as="geometry"/>
                </mxCell>
                <mxCell id="12" value="Images" style="rounded=0;whiteSpace=wrap;html=1;fillColor=#f8cecc;strokeColor=none;fontColor=#000000;strokeWidth=2;" parent="1" vertex="1">
                    <mxGeometry x="410" y="320" width="120" height="60" as="geometry"/>
                </mxCell>
                <mxCell id="44" style="edgeStyle=none;html=1;entryX=0;entryY=1;entryDx=0;entryDy=0;fontColor=#000000;strokeWidth=2;strokeColor=#1808FF;exitX=1;exitY=0;exitDx=0;exitDy=0;" parent="1" source="16" target="mOjar0-Z3yJMxCgbcsLC-49" edge="1">
                    <mxGeometry relative="1" as="geometry">
                        <mxPoint x="953.7600000000002" y="332.99" as="targetPoint"/>
                    </mxGeometry>
                </mxCell>
                <mxCell id="a4H2ehMqBmG_PgusIZXr-56" style="edgeStyle=none;html=1;entryX=0.625;entryY=0.2;entryDx=0;entryDy=0;entryPerimeter=0;strokeColor=#0066CC;strokeWidth=2;fontSize=20;fontColor=#000000;dashed=1;dashPattern=1 4;" parent="1" source="16" target="a4H2ehMqBmG_PgusIZXr-55" edge="1">
                    <mxGeometry relative="1" as="geometry"/>
                </mxCell>
                <mxCell id="16" value="Image captioning service (GPT-4)" style="rounded=1;whiteSpace=wrap;html=1;fillColor=#d5e8d4;strokeColor=#82b366;strokeWidth=2;fontColor=#000000;" parent="1" vertex="1">
                    <mxGeometry x="410" y="420" width="120" height="60" as="geometry"/>
                </mxCell>
                <mxCell id="18" value="Chucks Dataset" style="shape=table;childLayout=tableLayout;startSize=35;collapsible=0;recursiveResize=0;expand=0;fillColor=#bac8d3;strokeColor=#23445d;strokeWidth=2;" parent="1" vertex="1">
                    <mxGeometry x="587" y="208" width="520" height="110" as="geometry"/>
                </mxCell>
                <mxCell id="19" value="" style="shape=tableRow;horizontal=0;swimlaneHead=0;swimlaneBody=0;top=0;left=0;bottom=0;right=0;dropTarget=0;fontStyle=0;fillColor=none;points=[[0,0.5],[1,0.5]];portConstraint=eastwest;startSize=9;collapsible=0;recursiveResize=0;expand=0;fontColor=#000000;strokeWidth=2;strokeColor=#1808FF;" parent="18" vertex="1">
                    <mxGeometry y="35" width="520" height="75" as="geometry"/>
                </mxCell>
                <mxCell id="20" value="Document ID" style="swimlane;swimlaneHead=0;swimlaneBody=0;fontStyle=0;connectable=0;fillColor=none;startSize=40;collapsible=0;recursiveResize=0;expand=0;fontColor=#000000;strokeWidth=2;strokeColor=#1808FF;" parent="19" vertex="1">
                    <mxGeometry x="9" width="85" height="75" as="geometry">
                        <mxRectangle width="85" height="75" as="alternateBounds"/>
                    </mxGeometry>
                </mxCell>
                <mxCell id="21" value="Chuck ID" style="swimlane;swimlaneHead=0;swimlaneBody=0;fontStyle=0;connectable=0;fillColor=none;startSize=40;collapsible=0;recursiveResize=0;expand=0;fontColor=#000000;strokeWidth=2;strokeColor=#1808FF;" parent="19" vertex="1">
                    <mxGeometry x="94" width="85" height="75" as="geometry">
                        <mxRectangle width="85" height="75" as="alternateBounds"/>
                    </mxGeometry>
                </mxCell>
                <mxCell id="22" value="Text/Caption" style="swimlane;swimlaneHead=0;swimlaneBody=0;fontStyle=0;connectable=0;fillColor=none;startSize=40;collapsible=0;recursiveResize=0;expand=0;fontColor=#000000;strokeWidth=2;strokeColor=#1808FF;" parent="19" vertex="1">
                    <mxGeometry x="179" width="86" height="75" as="geometry">
                        <mxRectangle width="86" height="75" as="alternateBounds"/>
                    </mxGeometry>
                </mxCell>
                <mxCell id="23" value="URL" style="swimlane;swimlaneHead=0;swimlaneBody=0;fontStyle=0;connectable=0;fillColor=none;startSize=40;collapsible=0;recursiveResize=0;expand=0;fontColor=#000000;strokeWidth=2;strokeColor=#1808FF;" parent="19" vertex="1">
                    <mxGeometry x="265" width="85" height="75" as="geometry">
                        <mxRectangle width="85" height="75" as="alternateBounds"/>
                    </mxGeometry>
                </mxCell>
                <mxCell id="24" value="type" style="swimlane;swimlaneHead=0;swimlaneBody=0;fontStyle=0;connectable=0;fillColor=none;startSize=40;collapsible=0;recursiveResize=0;expand=0;fontColor=#000000;strokeWidth=2;strokeColor=#1808FF;" parent="19" vertex="1">
                    <mxGeometry x="350" width="106" height="75" as="geometry">
                        <mxRectangle width="106" height="75" as="alternateBounds"/>
                    </mxGeometry>
                </mxCell>
                <mxCell id="25" value="..." style="swimlane;swimlaneHead=0;swimlaneBody=0;fontStyle=0;connectable=0;fillColor=none;startSize=40;collapsible=0;recursiveResize=0;expand=0;fontColor=#000000;strokeWidth=2;strokeColor=#1808FF;" parent="19" vertex="1">
                    <mxGeometry x="456" width="64" height="75" as="geometry">
                        <mxRectangle width="64" height="75" as="alternateBounds"/>
                    </mxGeometry>
                </mxCell>
                <mxCell id="42" style="edgeStyle=none;html=1;fontColor=#000000;strokeWidth=2;strokeColor=#1808FF;exitX=1;exitY=1;exitDx=0;exitDy=0;entryX=-0.003;entryY=0.07;entryDx=0;entryDy=0;entryPerimeter=0;" parent="1" source="40" target="mOjar0-Z3yJMxCgbcsLC-49" edge="1">
                    <mxGeometry relative="1" as="geometry">
                        <mxPoint x="570" y="200" as="targetPoint"/>
                        <Array as="points"/>
                    </mxGeometry>
                </mxCell>
                <mxCell id="40" value="Chucking service" style="rounded=1;whiteSpace=wrap;html=1;fillColor=#d5e8d4;strokeColor=#82b366;strokeWidth=2;fontColor=#000000;" parent="1" vertex="1">
                    <mxGeometry x="411" y="50" width="120" height="60" as="geometry"/>
                </mxCell>
                <mxCell id="45" value="image, table, text" style="text;html=1;align=center;verticalAlign=middle;resizable=0;points=[];autosize=1;strokeColor=none;fillColor=none;fontColor=#000000;strokeWidth=2;" parent="1" vertex="1">
                    <mxGeometry x="936" y="294" width="110" height="30" as="geometry"/>
                </mxCell>
                <mxCell id="f_cEB0JVqlUnCTF1pEpO-49" style="edgeStyle=none;html=1;entryX=0.877;entryY=0.014;entryDx=0;entryDy=0;entryPerimeter=0;strokeColor=#1808FF;strokeWidth=3;fontSize=20;fontColor=#000000;exitX=0.875;exitY=0.994;exitDx=0;exitDy=0;exitPerimeter=0;" parent="1" source="49" target="a4H2ehMqBmG_PgusIZXr-57" edge="1">
                    <mxGeometry relative="1" as="geometry"/>
                </mxCell>
                <mxCell id="gkFZXeXOKkve3YWA7jD1-51" style="edgeStyle=none;html=1;entryX=0.8;entryY=0.8;entryDx=0;entryDy=0;entryPerimeter=0;strokeColor=#0066CC;strokeWidth=3;fontSize=20;fontColor=#000000;dashed=1;dashPattern=1 4;" parent="1" target="gkFZXeXOKkve3YWA7jD1-49" edge="1">
                    <mxGeometry relative="1" as="geometry">
                        <mxPoint x="1251" y="70" as="sourcePoint"/>
                    </mxGeometry>
                </mxCell>
                <mxCell id="60" style="edgeStyle=none;html=1;entryX=-0.043;entryY=0.775;entryDx=0;entryDy=0;entryPerimeter=0;fontColor=#000000;strokeWidth=3;strokeColor=#1808FF;" edge="1" parent="1" source="49" target="58">
                    <mxGeometry relative="1" as="geometry"/>
                </mxCell>
                <mxCell id="49" value="Graph Builder Service" style="rounded=1;fillColor=#dae8fc;strokeColor=#6c8ebf;labelPosition=center;verticalLabelPosition=top;align=center;verticalAlign=bottom;labelBackgroundColor=#E5CCFF;labelBorderColor=none;whiteSpace=wrap;html=1;strokeWidth=2;arcSize=6;fontSize=20;fontColor=#000000;spacingLeft=1;spacingBottom=2;spacingRight=2;spacing=3;spacingTop=3;" parent="1" vertex="1">
                    <mxGeometry x="1201" y="76" width="319" height="165" as="geometry"/>
                </mxCell>
                <mxCell id="a4H2ehMqBmG_PgusIZXr-53" value="GRAPHRAG" style="rounded=1;whiteSpace=wrap;html=1;labelBackgroundColor=none;labelBorderColor=none;strokeColor=#82b366;strokeWidth=2;fontSize=20;fillColor=#d5e8d4;fontColor=#000000;" parent="1" vertex="1">
                    <mxGeometry x="1220" y="125.5" width="140" height="54.5" as="geometry"/>
                </mxCell>
                <mxCell id="a4H2ehMqBmG_PgusIZXr-54" value="LightRAG" style="rounded=1;whiteSpace=wrap;html=1;labelBackgroundColor=none;labelBorderColor=none;strokeColor=#82b366;strokeWidth=2;fontSize=20;fillColor=#d5e8d4;fontColor=#000000;" parent="1" vertex="1">
                    <mxGeometry x="1383" y="125.5" width="120" height="54.5" as="geometry"/>
                </mxCell>
                <mxCell id="a4H2ehMqBmG_PgusIZXr-55" value="LLM:&lt;br&gt;&lt;font style=&quot;font-size: 15px;&quot;&gt;- AI&lt;/font&gt;&lt;font style=&quot;font-size: 15px;&quot;&gt;4Chem/ChemVLM-8B&lt;br&gt;- GPT4V&lt;br&gt;&lt;/font&gt;" style="ellipse;shape=cloud;whiteSpace=wrap;html=1;labelBackgroundColor=none;labelBorderColor=none;strokeColor=#9673a6;strokeWidth=2;fontSize=20;fillColor=#e1d5e7;fontColor=#000000;" parent="1" vertex="1">
                    <mxGeometry x="250" y="535" width="350" height="215" as="geometry"/>
                </mxCell>
                <mxCell id="a4H2ehMqBmG_PgusIZXr-52" style="edgeStyle=none;html=1;entryX=0.002;entryY=0.405;entryDx=0;entryDy=0;entryPerimeter=0;strokeColor=#1808FF;strokeWidth=3;fontSize=20;fontColor=#000000;fillColor=#fff2cc;" parent="1" target="49" edge="1">
                    <mxGeometry relative="1" as="geometry">
                        <mxPoint x="1120" y="200" as="sourcePoint"/>
                    </mxGeometry>
                </mxCell>
                <mxCell id="gkFZXeXOKkve3YWA7jD1-52" style="edgeStyle=none;html=1;strokeColor=#0066CC;strokeWidth=3;fontSize=20;fontColor=#000000;exitX=0.191;exitY=1.006;exitDx=0;exitDy=0;entryX=0.4;entryY=0.1;entryDx=0;entryDy=0;entryPerimeter=0;exitPerimeter=0;dashed=1;dashPattern=1 4;" parent="1" source="a4H2ehMqBmG_PgusIZXr-57" target="gkFZXeXOKkve3YWA7jD1-50" edge="1">
                    <mxGeometry relative="1" as="geometry"/>
                </mxCell>
                <mxCell id="gkFZXeXOKkve3YWA7jD1-60" style="edgeStyle=none;html=1;entryX=0.993;entryY=0.921;entryDx=0;entryDy=0;entryPerimeter=0;strokeColor=#1808FF;strokeWidth=3;fontSize=20;fontColor=#000000;" parent="1" source="a4H2ehMqBmG_PgusIZXr-57" target="gkFZXeXOKkve3YWA7jD1-53" edge="1">
                    <mxGeometry relative="1" as="geometry">
                        <Array as="points">
                            <mxPoint x="1360" y="710"/>
                        </Array>
                    </mxGeometry>
                </mxCell>
                <mxCell id="a4H2ehMqBmG_PgusIZXr-57" value="Retrieval Service" style="rounded=1;fillColor=#dae8fc;strokeColor=#6c8ebf;labelPosition=center;verticalLabelPosition=top;align=center;verticalAlign=bottom;labelBackgroundColor=#E5CCFF;labelBorderColor=none;whiteSpace=wrap;html=1;strokeWidth=2;arcSize=6;fontSize=20;fontColor=#000000;spacingBottom=1;spacing=3;" parent="1" vertex="1">
                    <mxGeometry x="1203" y="313.5" width="317" height="165" as="geometry"/>
                </mxCell>
                <mxCell id="a4H2ehMqBmG_PgusIZXr-58" style="edgeStyle=none;html=1;strokeColor=#1808FF;strokeWidth=3;fontSize=20;fontColor=#000000;entryX=0;entryY=0.5;entryDx=0;entryDy=0;exitX=0.995;exitY=0.942;exitDx=0;exitDy=0;exitPerimeter=0;" parent="1" source="mOjar0-Z3yJMxCgbcsLC-49" target="a4H2ehMqBmG_PgusIZXr-57" edge="1">
                    <mxGeometry relative="1" as="geometry">
                        <mxPoint x="1270" y="330" as="targetPoint"/>
                        <mxPoint x="1100" y="320" as="sourcePoint"/>
                    </mxGeometry>
                </mxCell>
                <mxCell id="gkFZXeXOKkve3YWA7jD1-49" value="LLM" style="ellipse;shape=cloud;whiteSpace=wrap;html=1;labelBackgroundColor=none;labelBorderColor=none;strokeColor=#9673a6;strokeWidth=2;fontSize=20;fillColor=#e1d5e7;fontColor=#000000;" parent="1" vertex="1">
                    <mxGeometry x="1155" y="-60" width="120" height="80" as="geometry"/>
                </mxCell>
                <mxCell id="gkFZXeXOKkve3YWA7jD1-50" value="LLM" style="ellipse;shape=cloud;whiteSpace=wrap;html=1;labelBackgroundColor=none;labelBorderColor=none;strokeColor=#9673a6;strokeWidth=2;fontSize=20;fillColor=#e1d5e7;fontColor=#000000;" parent="1" vertex="1">
                    <mxGeometry x="1215" y="590" width="120" height="80" as="geometry"/>
                </mxCell>
                <mxCell id="gkFZXeXOKkve3YWA7jD1-54" style="edgeStyle=none;html=1;entryX=0.133;entryY=0.681;entryDx=0;entryDy=0;entryPerimeter=0;strokeColor=#0066CC;strokeWidth=3;fontSize=20;fontColor=#000000;dashed=1;dashPattern=1 4;" parent="1" source="gkFZXeXOKkve3YWA7jD1-53" target="gkFZXeXOKkve3YWA7jD1-50" edge="1">
                    <mxGeometry relative="1" as="geometry"/>
                </mxCell>
                <mxCell id="gkFZXeXOKkve3YWA7jD1-53" value="Generating Answer" style="rounded=1;fillColor=#dae8fc;strokeColor=#6c8ebf;labelPosition=center;verticalLabelPosition=top;align=center;verticalAlign=bottom;labelBackgroundColor=#E5CCFF;labelBorderColor=none;whiteSpace=wrap;html=1;strokeWidth=2;arcSize=6;fontSize=20;fontColor=#000000;spacingBottom=1;spacing=3;" parent="1" vertex="1">
                    <mxGeometry x="790" y="560" width="317" height="165" as="geometry"/>
                </mxCell>
                <mxCell id="gkFZXeXOKkve3YWA7jD1-55" value="Vector/Hybrid Search" style="rounded=1;whiteSpace=wrap;html=1;labelBackgroundColor=none;labelBorderColor=none;strokeColor=#82b366;strokeWidth=2;fontSize=20;fillColor=#d5e8d4;fontColor=#000000;" parent="1" vertex="1">
                    <mxGeometry x="1216" y="334" width="140" height="54.5" as="geometry"/>
                </mxCell>
                <mxCell id="gkFZXeXOKkve3YWA7jD1-56" value="Multi-query retrieval" style="rounded=1;whiteSpace=wrap;html=1;labelBackgroundColor=none;labelBorderColor=none;strokeColor=#82b366;strokeWidth=2;fontSize=20;fillColor=#d5e8d4;fontColor=#000000;" parent="1" vertex="1">
                    <mxGeometry x="1216" y="400" width="140" height="54.5" as="geometry"/>
                </mxCell>
                <mxCell id="gkFZXeXOKkve3YWA7jD1-57" value="local/global&lt;br&gt;search" style="rounded=1;whiteSpace=wrap;html=1;labelBackgroundColor=none;labelBorderColor=none;strokeColor=#82b366;strokeWidth=2;fontSize=20;fillColor=#d5e8d4;fontColor=#000000;" parent="1" vertex="1">
                    <mxGeometry x="1373" y="332.5" width="140" height="54.5" as="geometry"/>
                </mxCell>
                <mxCell id="gkFZXeXOKkve3YWA7jD1-58" value="Multi-modal prompting" style="rounded=1;whiteSpace=wrap;html=1;labelBackgroundColor=none;labelBorderColor=none;strokeColor=#82b366;strokeWidth=2;fontSize=20;fillColor=#d5e8d4;fontColor=#000000;" parent="1" vertex="1">
                    <mxGeometry x="820" y="590" width="140" height="54.5" as="geometry"/>
                </mxCell>
                <mxCell id="zIqCYbw5w_8Iy1ONI7u6-49" value="embedding model" style="ellipse;shape=cloud;whiteSpace=wrap;html=1;labelBackgroundColor=none;labelBorderColor=none;strokeColor=#9673a6;strokeWidth=2;fontSize=20;fillColor=#e1d5e7;fontColor=#000000;" parent="1" vertex="1">
                    <mxGeometry x="608" y="380" width="150" height="100" as="geometry"/>
                </mxCell>
                <mxCell id="zIqCYbw5w_8Iy1ONI7u6-51" style="edgeStyle=none;html=1;strokeColor=#0066CC;strokeWidth=3;fontSize=15;fontColor=#000000;startArrow=none;startFill=0;entryX=0.526;entryY=1.003;entryDx=0;entryDy=0;entryPerimeter=0;" parent="1" source="zIqCYbw5w_8Iy1ONI7u6-50" target="mOjar0-Z3yJMxCgbcsLC-49" edge="1">
                    <mxGeometry relative="1" as="geometry">
                        <mxPoint x="860" y="330" as="targetPoint"/>
                    </mxGeometry>
                </mxCell>
                <mxCell id="zIqCYbw5w_8Iy1ONI7u6-53" style="edgeStyle=none;html=1;entryX=0.875;entryY=0.5;entryDx=0;entryDy=0;entryPerimeter=0;strokeColor=#0066CC;strokeWidth=3;fontSize=15;fontColor=#000000;startArrow=none;startFill=0;" parent="1" source="zIqCYbw5w_8Iy1ONI7u6-50" target="zIqCYbw5w_8Iy1ONI7u6-49" edge="1">
                    <mxGeometry relative="1" as="geometry"/>
                </mxCell>
                <mxCell id="zIqCYbw5w_8Iy1ONI7u6-50" value="Embeding sevice" style="rounded=1;whiteSpace=wrap;html=1;fillColor=#d5e8d4;strokeColor=#82b366;strokeWidth=2;fontColor=#000000;" parent="1" vertex="1">
                    <mxGeometry x="798" y="400" width="120" height="60" as="geometry"/>
                </mxCell>
                <mxCell id="mOjar0-Z3yJMxCgbcsLC-56" value="" style="aspect=fixed;html=1;points=[];align=center;image;fontSize=12;image=img/lib/azure2/app_services/Search_Services.svg;labelBackgroundColor=none;labelBorderColor=none;strokeColor=#99FFCC;strokeWidth=2;fontColor=#000000;" parent="1" vertex="1">
                    <mxGeometry x="630" y="140" width="72" height="52" as="geometry"/>
                </mxCell>
                <mxCell id="53" value="" style="shape=image;verticalLabelPosition=bottom;labelBackgroundColor=default;verticalAlign=top;aspect=fixed;imageAspect=0;image=data:image/jpeg,/9j/4AAQSkZJRgABAQEAYABgAAD/2wBDAAoHBwkHBgoJCAkLCwoMDxkQDw4ODx4WFxIZJCAmJSMgIyIoLTkwKCo2KyIjMkQyNjs9QEBAJjBGS0U+Sjk/QD3/2wBDAQsLCw8NDx0QEB09KSMpPT09PT09PT09PT09PT09PT09PT09PT09PT09PT09PT09PT09PT09PT09PT09PT09PT3/wAARCAHnAdkDASIAAhEBAxEB/8QAHwAAAQUBAQEBAQEAAAAAAAAAAAECAwQFBgcICQoL/8QAtRAAAgEDAwIEAwUFBAQAAAF9AQIDAAQRBRIhMUEGE1FhByJxFDKBkaEII0KxwRVS0fAkM2JyggkKFhcYGRolJicoKSo0NTY3ODk6Q0RFRkdISUpTVFVWV1hZWmNkZWZnaGlqc3R1dnd4eXqDhIWGh4iJipKTlJWWl5iZmqKjpKWmp6ipqrKztLW2t7i5usLDxMXGx8jJytLT1NXW19jZ2uHi4+Tl5ufo6erx8vP09fb3+Pn6/8QAHwEAAwEBAQEBAQEBAQAAAAAAAAECAwQFBgcICQoL/8QAtREAAgECBAQDBAcFBAQAAQJ3AAECAxEEBSExBhJBUQdhcRMiMoEIFEKRobHBCSMzUvAVYnLRChYkNOEl8RcYGRomJygpKjU2Nzg5OkNERUZHSElKU1RVVldYWVpjZGVmZ2hpanN0dXZ3eHl6goOEhYaHiImKkpOUlZaXmJmaoqOkpaanqKmqsrO0tba3uLm6wsPExcbHyMnK0tPU1dbX2Nna4uPk5ebn6Onq8vP09fb3+Pn6/9oADAMBAAIRAxEAPwD2WkbgUtRXMhitpZB1RCR+AoQM5vxD4geCZrO0IDr99yM/gP0rlcnrnP4UMxdmdjyxJPvSV72HoqlFW3Z5FWo5t3FyaMmkorcyFyaMmkooAXJoyaSigBcmjJpKKAFyaMmkooAXJoyaSigBcmjJpKKAFyaMmkooAXJoyaSigBcmjJpKKAFyaMmkooAXJoyaSigBcmprS9lsrhZYThlOTkZBqCgdeelKUVJWYXcdUdp4a8UQ69CytiO6j4eMf+hD1Fb5PSvCLe7msbxbm1kMc0ZyrY/T3FereF/E8OvW4DER3aAb489fceorysXg3SfNFaHZhcYqnuy3OhzS0mRmlrzz0Aoo4opgFFFFABRRRQAUUUUAFFFFABRRRQAUUUUAFFFFABRRRQAUUUUAFFFFABRRRQAUUUUAFV9R/wCQdc/9cm/lViq2o/8AIOuf+uTfyqo/EhS2PNB90UUg+6KWvolsjxH1FVS3C9af9nl/uNS23/Hwn1rQ7CpcmhqNzO+zy/3Go+zy/wBxq0aKXOyuUzvs8v8Acaj7PL/catGijnYcpnfZ5f7jUfZ5f7jVo0Uc7DlM77PL/caj7PL/AHGrRoo52HKZ32eX+41H2eX+41aNFHOw5TO+zy/3Go+zy/3GrRoo52HKZ32eX+41H2eX+41aNFHOw5TO+zy/3Go+zy/3GrRoo52HKZ32eX+41H2eX+41aNFHOw5TO+zy/wBxqPs8v9xq0aKOdhymd9nl/uNSGGRV3FDitI9KjuP9S/0o52LlM6gdRRSjqK0Ilsco/wB8/WpbW6msbpLi1kMcyHKsP5H1FRP98/Wk+nSulxU42Z53M4yuj13wv4og163CsRHdxgeZFn9R6iuhyK8HtbyeyukubVzHNGcqw/qK9V8LeKINegCuQl3H9+P+o9RXgYvBuk+aOx7uDxiqJRludHS0mRS5rgPRCiiigAooooAKKKKACiiigAooooAKKKKACiiigAooooAKKKKACiiigAooooAKKKKACq+o/wDIOuf+uTfyqxVfUf8AkHXP/XJv5U4/EiZbHmQ+6KWkH3RS19HHZHisltv+PhPrWhWfbf8AHwn1rQqJblxCiiioKCiiigAooooAKKKKACiiigAooooAKKKKACiiigAooooAKKKKACmXH+of6U+mXH+of6ULcTM2gdRRQOorcylscq/32+tJSv8Afb60ldSPNe7CprW6nsrpLi2kaKZOVYH+ftUNFKUVJWYRk4u6PXPC/iiHXYNrgRXiD54z39x7V0Wa8GtbqayuUuLV2jlQ5DDr9K9W8LeKINcg8t8R3kY+ePPX3HqK8DGYN0nzR2PeweMVRcstzpKKQHNLXAeiFFFFABRRRQAUUUUAFFFFABRRRQAUUUUAFFFFABRRRQAUUUUAFFFFABRRRQAVX1H/AJB1z/1yb+VWKr6j/wAg65/65N/KnH4kTLY8yH3RS0g+6KWvo47I8Vktt/x8J9a0Kz7b/j4T61oVEty4hRRRUFBRRRQAUUUUAFFFFABRRRQAUUUUAFFFFABRRRQAUUUUAFFFFABTLj/UP9KfTLj/AFD/AEoW4mZtA6iigdRW5lLY5V/vt9aSlf77fWkrqXQ817sKKKKZIlT2t1PZXMdxayGOWM5Uj+tQ0VLipaPYqLcXdHrfhfxTDrttskKx3kY/eR5/Ueorogc9a8HtrqezuEuLZzHLGcq2K9W8LeKYtdt9kmI7yMfvI89fceorwMZg3SblHY97B4xVFyS3OkFFIpzS5rgPRCiiigAooooAKKKKACiiigAooooAKKKKACiiigAooooAKKKKACiiigAqvqP/ACDrn/rk38qsVX1H/kHXP/XJv5U4/EiZbHmQ+6KWkH3RS19HHZHisltv+PhPrWhWfbf8fCfWtColuXEKKKKgoKKKKACiiigAooooAKKKKACiiigAooooAKKKKACiiigAooooAKZcf6h/pT6Zcf6h/pQtxMzaB1FFA6itzJnKv98/WkpX++frSV1LoebLdhRRRTJCiiigAqW1uZrO5S4t5GjljOVcdqioqZRUlZlRk4u6PWvC3imLXLfy5P3d5H99P73uPaujHTmvB7W4mtLmOe2kaOVDlXXqP8a9V8K+KYtdt/KlxHeRj5488H3HrXg4zBuk+aOx7uDxntPcludKKKQUV5x6QtFAopgFFFFABRRRQAUUUUAFFFFABRRRQAUUUUAFFFFABRRRQAVW1H/kHXP/AFyb+VWaraj/AMg65/65N/I1UfiJlseZj7opaQfdFLX0UdkeK2S23/Hwn1rQrNtv+PhPrWlUS3LiFFFFQUFFFFABRRRQAUUUUAFFFFABRRRQAUUUUAFFFFABRRRQAUUUUAFMuP8AUP8ASpKjn/493+lNbiM2gdRRSr94fWtjJnKP98/WkpW++31pK6l0PNluwooopkhRRRQAUUUUAFS29xNaXEdxbyGOWM5Vl6ioqBUyipaMpScXdHrPhXxTHrluIpdsd4g+dM9fce1dKK8Gt7iW0uEnt3McqHKuDjBr1Xwp4pi12ARSkR3iD50/ve4rwcZg3SfPBaHu4PGKolCT1OlopM+9FecekLRRRTAKKKKACiiigAooooAKKKKACiiigAooooAKKKKACq2of8g65/65t/KrNVtR/wCQdc/9c2/lVR+JEy2PMgelLmmjtRzX0UdkeI+pNbf8fCfWtKsy1z9pT61p9hUS3LjsFFFFQWFFFFABRRRQAUUUUAFFFFABRRRQAUUUUAFFFFABRRRQAUUUUAFR3H+of6VJUVz/AKh/pTW4nsZ2aAeabSjqK3MHszl2+831pKVvvN9aSuldDz3uwooopkhRRRQAUUUUAFFFFABUkFxLaTrNbuySocq4PINR0daUoqSsyotp3R6z4V8VRa5CIZysd4g+ZAfve49q6TIBxXg8E8tpOk8EhjljO5WU8g16p4U8VRa3AsM5Ed4g+Zc8N7ivAxmDdNucFoe7g8YqnuT3OmopMiivOuekLRRRTAKKKKACiiigAooooAKKKKACiiigAooooAKraj/yDbn/AK5N/I1ZqtqP/INuf+uTfyqo/EiZbHmC9KKRegor6JbI8ORPa/8AHyn1rTHQVl2v/Hyn1rUqJmkAoooqCwooooAKKKKACiiigAooooAKKKKACiiigAooooAKKKKACiiigAqK6/49n+lS1Fc/8e8n0oW4nsZdKOoptKGGRXSc7OZb7zfWkp0qFZpFx90n+dNroWxwS3YUUUUyQooooAKKKKACiiigAooooAKkt7ia0uEmt5GSVDlWB6Go6BSlFSVmUpNao9X8KeK4tbiEE2I7xB8y/wB8eorpwRmvBYJ5LW4SaBykqHKsOCDXqnhTxXHrcQhn2x3iD5l7OPUV4GNwbpvnhse7g8YppQm9Tp6M03OacK849IKKKKYBRRRQAUUUUAFFFFABRRRQAUUUUAFVdS/5Bl1/1yb+Rq1VbUP+Qdc/9c2/lVR+JEy2Z5cvQUUg6CivpI7I8J7ssWf/AB9J9a1B3rKs/wDj7T61qjvWU9zWGwUUUVBYUUUUAFFFFABRRRQAUUUUAFFFFABRRRQAUUUUAFFFFABRRRQAVHcjNvIfapKGAKkHoRg0ITMSlPSh1McjIeoOKbXQncwZkapD5dx5g6P1+tUq6GaJJ4yjdD39DWJcWsls2G5XoGHStoS6M5KtNp3IaKPxorQxCiiigQUUUUAFFFFABRRRQAUUUUAFSW9xLa3CTW7tHKhyrKeQajoqZRUlZji7O6PVvCfiyPWYFguNsd4g5XPD+4rqBzXgsFxNbXKTQOUkQ5Vl4INepeFPFsetQiCchL1B8w7P7ivCxuDdN88Nj3sFjOf3JvU6mimg5pwrzT0gooopgFFFFABRRRQAUUUUAFFFFABVXU/+Qbdf9cm/katVW1L/AJBt1/1yb+VVH4kTLZnlo+6KKav3R9KXNfSLZHgvdk9n/wAfSfWtasizP+lR/Wtf0rKe5tT2CiiioLCiiigAooooAKKKKACiiigAooooAKKKKACiiigAooooAKKKKACiiigChqFvgiUD2JH86pVuEAgqRkHqDWVdWrQMSvMfr6fWtYS6MymuqIKQgMCCMg8EetGaM1oZepVk023kHGUPsf8AGov7IT/nq2PcVfzRVczIdOL6Gf8A2Qv/AD1b8hR/ZC/89W/IVoZozRzMPZx7Gf8A2Qv/AD1b8hR/ZC/89W/IVoZozRzPuHs49jP/ALIX/nq35Cj+yF/56t+QrQzRmjmfcPZx7Gf/AGQv/PVvyFH9kL/z1b8hWhmjNHM+4ezj2M/+yF/56t+Qo/shf+erfkK0M0Zo5n3D2cexn/2Qv/PVvyFH9kL/AM9W/IVoZozRzMPZx7Gf/ZC/89G/Knw6ebadJoLl45EOVYdRV3NGaTfMrMappao9A8Oa2up2wikIFzGBvH97j7w9q2x0ry7S7x7LU7aZM5EgU47g8GvUVOVBrwcXR9lPTZns4arzx13QtFFFcp1BRRRQAUUUUAFFFFABRRRQAVW1L/kG3P8A1yb+VWaraj/yDbn/AK5N/I1UfiJlszyoHgfSlpB0FLmvpI7I8GW7JrL/AI+4/rWx2FY9mf8AS4/rWxWdTc1p7BRRRWZoFFFFABRRRQAUUUUAFFFFABRRRQAUUUUAFFFFABRRRQAUUUUAFFFFABQQCCD0PtRRQBTm05W5h+U+h6VSktJo+qHA7itmiqU2iHBPoYe1hwUb8qTDf3W/Kt2iq9p5E+z8zCw391vyow391vyrdoo9r5B7MwsN/db8qMN/db8q3aKPaeQezMLDf3W/KjDf3W/Kt2ij2nkHszCw391vyow391vyrdoo9p5B7MwsN/db8qMN/db8q3aKPaeQezMLDf3W/KjDf3SfwrdpaftPIPZmBz3opZPvv9abmtFqZPQfF/r4veRf5ivWk+6K8kj/ANdF/vr/ADr1pPuCvKzH4kejgNmOooorzT0AooooAKKKKACiiigAooooAKral/yDbr/rk38jVmq2pf8AINuv+uTfyNOO5M/hZ5QOgpaQdBR+NfSx2R4EupYsv+PyP61smsWy/wCPyL61tDvWdTc2pbBRRRWZoFFFFABRRRQAUUUUAFFFFABRRRQAUUUUAFFFFABRRRQAUUUUAFFFFABRRRQAUUUUAFFFFABRRRQAUUUUAFFFFABRRRQAUUUUAFKOopKUdaBGA/8ArG+pptK/+sf6mmfjXStjmb1Hx/6+L/fX+Yr1xPuCvI4v9fF/10X+deuJ9wV5WY/Ej0cBsx1FFFeaegFFFFABRRRQAUUUUAFFFFABVXUv+Qbdf9cm/lVqqupf8gy6/wCuTfyNOPxImezPKB0FFIOgor6eOyPn31LFj/x+RfWtsd6xLH/j8i+tbYrGpubUtgooorM1CiiigAooooAKKKKACiiigAooooAKKKKACiiigAooooAKKKKACiiigAooooAKKKKACiiigAooooAKKKKACiiigAooooAKKKKAClHUUlKOooA56T/WN9TTaV/9a/1NNrpWyOR7j4v9fF/10X+Yr15PuCvIYv8AXxf9dF/mK9eT7gry8y+KJ6OA6i0UUV5h6IUUUUAFFFFABRRRQAUUUUAFVdS/5Bl1/wBcm/katVV1L/kGXX/XJv5VUfiRMvhZ5KOgp1NH3R9KK+mjsj557ss2H/H5H9a3KwrA/wCmx1u1jU3N6WwUUUVmahRR14xn2FdBp2goFEl4NzHnZ2H+NZVa0aa1LhTc2c/RXbJY20YwsEQ+iin/AGOD/nkn5Vy/XV2N/qr7nDUV3P2OD/nkn5UfY4P+eSflR9cXYf1Z9zhqK7n7HB/zyT8qPscH/PJPyo+uLsH1Z9zhqK7n7HB/zyT8qPscH/PJPyo+uLsH1Z9zhqK7j7JB/wA8U/75o+yQf88U/wC+RR9dXYPqz7nD0V3P2SD/AJ4p/wB80fZIP+eKf980fXV2D6s+5w1Fdx9kg/54p+VL9kg/55J+VH1xdg+rPucNRXc/ZIP+eSf98ij7JB/zyT/vkUfXV2D6s+5w1Fdz9kt/+eUf5Cj7JB/zxT/vkUfXF2D6s+5w1Fdz9kg/54p/3yKPskH/ADxT/vmj64uwfVX3OGorufskH/PFP++aPssH/PFP++RR9cXYPqr7nDUV3P2SD/nin/fIo+yQf88U/wC+aPri7B9Vfc4aiu5+yQf88U/75FH2SD/nin/fIo+ursH1Z9zhqK7n7JB/zxT/AL5FH2SD/nin/fIo+u+QfVn3OGort2sbZhhoIsf7grM1DQonQva/I4H3R0P0qoYyLdmiZYdpHN0UEFWII59DRXYmrXRzNdAooopgFKOopKUdRQBzkn+tf6mm0sv+uf6mm11LZHG9x8X/AB8Rf9dF/mK9gT7orx6I/wCkRf8AXRf5ivYU+6K8rMviielgNmLRRRXmHohRRRQAUUUUAFFFFABRRRQAVV1P/kGXX/XJv5Vaqrqf/ILuv+uT/wAjVR+JEy+Fnkg6Ae1LTQeBRmvpo7I+eluyzYf8f0X1reNYGn/8f0X1rfNY1NzelsFFFLWZqXdFiE+pxbvuoC/1I6V14HT1rlfD3GpEf7Brq+1eTim3UO/DpcoUtJS1znQFFFFABRRRQAUUUUAMeRU+8QPqaaLiI/xp+dVdUtRc2rAAF15A965jbj61vRoqotzz8XjXh5WaujsvPj/vr+dHnJ/eH51xtLz6n862+p+Zyf2wv5TsfOT+8PzpfMX+8K43Lep/Ol3N/eb86PqfmH9sL+U7HzF9RR5i+tcfvb+8350eY/8Afb/vqj6m+4f2wv5Tsd6+oo3r6iuO81/77/8AfRpfNf8Avv8A99Gl9Tfcf9sR/lOw3j1FG4etcf5sn99/++jR50n/AD0f/vo0fU33H/bEf5TsNwo3D1Fcf50n/PR/++jR58v/AD0f/vqj6m+4f2vD+U7DcPWjcPWuQE8o6SP/AN9UfaJ/+e0n/fVH1SXcP7Xh/KdhuFG4etch9rn/AOez/wDfVL9ruP8Ans//AH1S+qS7j/teHY67IoyPWuS+23Gf9c/50fbLkdZpOf8AapfVJdx/2tDszrNwpDiuU+3Tj/lvIfxpft1z2nfH1pfVZdx/2rT6oNdhWLUmKDh1DHHrWbV2WV52BlO9hwCetR7F/uj8q76ScYpM4546EpNpFairO1f7oP1oKKf4QPpxWnN5CWNh2K1KOoqYxoexHsDSeT/tcdckU+ZGixEH1OWk/wBa/wDvGm1NdWs9vIzSRsEJ+91H51XrqTTSsZXTehJF/r4v+ui/zFewJ90V49Ef9Ii/66L/ADFewx/cH0ry8y+JHpZfsx1FFFeYekFFFFABRRRQAUUUUAFFFFABVXU/+QXd/wDXFv5GrVVdT/5Bd3/1xb+Rqo/EiZ/CzyIdBRSA8ClzX00dkfON6ss6f/x/xfWt8d65/T/+P6L6/wBK6Csam50UdgpaSiszYsWFz9kvY5f4Qefp3rsopVlQMhypGRjpXDVbstUnshhCGj67WrjxGHdT3o7nRRrcmj2Oypa58eJ+Pmtjn2b/AOtS/wDCTj/n3b/vquP6vU7HV7aHc36KwP8AhKB/z7t/30KP+EoH/Pu3/fQo+r1Owe2h3N+isD/hKB/z7t/30KP+EoH/AD7t/wB9Cj6vU7B7aHc36KwP+EoH/Pu3/fQo/wCEnH/Pu3/fVH1ep2D20O5usMg1zWrWpt7nIHyPyPY1Y/4SYf8APuf++qq3uspfRFDAynsS3Q1rRp1IS2OLGqFanvqU6Sl7Ckr0T5rrYdRRRSEFFFFABRRRQAUUUUAFFFFABRSUoXjnOD+dIaVwxzjqT2oHByefYUnsBilpMegmeOOPp/jRUkNvLcNiJC3uOn51pwaCxw00mB3Vf8azlVhDdnRSwtWr8K0Mj86VVZxhEZv90Zrp4dLtoukak+rc1aWNFA2gAVhLF9kehTyhv42cotjcsAVhcg+1SDS7tv8AlkR9eK6nFLWbxUzoWU0lu2cqdKux/wAsj+BFRtY3KA7oH/nXW4oxQsVMHlNLo2cYytGfnVlP+1kUg68Yz1rsZI1cfMoNU5tJtZR9wKe23itI4tdUc1TKJLWErnNYAJqpcaXbXAJMexj/ABJxj/P0roLjQ5EGYXDY/has2WGS3JEqsprohWjLZnDUw9aj8S0Ocl0ee3njaMeanmKcjqPmFepRnKDFcZ09OPTpV6z1SW1YKxZo+mD2+lZ4qEqtn2OzA46NNuM+p1FFVbW9juk3Rn8Casc15zTTsz3ozjNXi7jqKSlpFhRRRQAUUUUAFFFFABVXU/8AkGXX/XJv5Vaqrqn/ACC7v/ri38qcfiRM/hZ4+OlLmgfdFJmvqI7I+ce7LWnf8f8AF9T/ACroa53Tv+P6H6/0roqxq7nRR2CiiisjYKKKKACiiilYAoooosAUUUUWAKKKKLAFLSUUwJ4m3DnqKkquhw49DU+RUs8jE0+SXqLRRRSOUKKKKACiiigAooooAKQ9KWj7v1xjB7UmxgMDJP5elISc5bknvSVcstPkvnyPli7t6/SplJQV2aU6Uqr5YorxQvOwSNCzew6VsWeiKuHuDuP93tWja2cVqm2NcevvVmuCpiHLRbHvYXLYU7SnqyOONY1AUAAdgKfS0VzPU9RJJWQlKKKKBhRRRQAUUUUAJRilooATFRywJMpV1BU+oqWjtQtNiXFNWZhXmjHlrY/8BrIeN42KSAqR1FdmaqXmnxXa/OPm7HvXVSxLjpLY8vFZbGd5U9zmYpngkDxnaRW/p2prcgRyYWQfrWJd2klnJtdeM8N2NQhiCCudw/AiuidONVXR5tHEVMJPle3U7MUtY+mal5+IpDiQdM961u1efKLi7M+io1o1Y80R1FNAyc06pNgooooAKKKKACquqf8AILu/+uL/AMjVqqup/wDILu/+uLfyqo/EiZ/Czx4fdFH4UgPFGa+njsj5t7suab/x/wAX1roR3rnNNP8AxMIfr/SujNY1fiOijsFFFFZG4UUUUAFFGe3eipuh2YUUZo3U+ZCswoo3UbqOZBZhRRuo3UcyCzCijdRmjmQWYVPGcrg9RxUGRTkkCnJPFJtWOfE0ueHmWaKQ/wD6qWlc8ZqzsFFFFABRRRQAUlLR7sMj0obGkL0APAP8qbnjjJz3NB575q1YWLXkw3cIp+Y+vsKzlJRV2aU6cqslGI/TdNa8YO4IiH/j1dJFGsSBUGFHpRHEsShUGAO1PrzKtR1H5H1GFwsaEfMWiiiszrCiiigAooooAKKKKACiiigAooooAKKKKACkNLRQBBcW63EZWRQQRXNX1i1nIQQSh6GusNQXNulxEyOMg8VrSrOD8jixeDjXj5nIoSpBU4I5Bro9M1AXke1+JF6j1rCu7VrSco447H1FMgma3lWSPOR2z1rtqwVWN0eJhq08JV5ZbHYilqvaXAuYEkU8GrFec007M+mhJSimuoUUUUigooooAKqap/yCrv8A64v/ACNW6q6p/wAgq7/64v8AyNOPxImfws8cH3RS01eg+lLX1EdkfNSerLem/wDIRh/3q6Pua5vTP+QlD9a6SsavxHTQ2CiiisTcMZ4AyT2Hetyx0VFQPdAO5HKZ4FUdJhE2opkcKC35dK6UdMdq48RVd+VHTRgnqyJbeFBhYlA9AtO8mL/nmn5Cn0VyXZvZdhnkxf8APNfyFHkxf881/wC+afRRdjsuwzyYv+ea/wDfNHkxf881/wC+afRRdhZdhnkxf881/wC+aPJi/wCea/8AfNPoouwsuwzyYv8Anmv/AHzR5EX/ADzT/vmn0UXYrLsR+TF/zzT/AL5FL5MR/gQfgKfQKLsOVMwNQt/s9xwBtblcfyqtW5qVv59q2Pvr8w96wh34xXdQnzRPm8dQ9nU8mLRRRW5xBSUUlADgM8etITngY4oHTPfp/jQMZpXGOiiaaZY0+8x49veuqs7RbWFUXHufU1n6JZbYzcOPmboPQVsCvOxFTmlZH0eW4ZQhzyWrFooormPUCkyKD0rE1e8ngulWKQqCuauEHN2RhXrxow55bG3mjNcr/ad3/wA9jR/ad3/z2P5Vt9VmcP8Aa1Lszqs0ZFcr/ad3/wA9m/Kj+07v/nsaPqsxrNaT7nVg5oqvZO0lrGzHLFQSasVztWdj0oyUop9wzSZoNUtUme3tC0bYYEc0RXM7CqTUIuT6F7IozXLf2rd/89f0o/tW7/56/pXR9Vmed/atHzOpozXLf2rd/wDPX9KP7Vu/+ev6UfVZh/atHzOpyKKydGupbky+a24AjHFa1YTi4uzO+jVVWHOtgpO9LRUmpR1GzF3AR/GOVrmSpVipByODXZHpWBrVp5cnnIPlb73tXXhqlnys8fM8MpR9okR6ReG3n8tj8jkfga6QH0riwcEEda6jTbn7TaqxPI4P1oxVO3vIWV4nmXs5F3NFIKWuQ9kKKKKACqmqf8gq7/64v/I1bqpqn/IKu/8Ari/8jVR+JEz+Fnja9B9KWmjtS19RHZHzMt2W9N/5CEX+9XS1zGm/8hKH6109YVdzpobBRRS1kdBoaIR/aJz1KEfWuirk7Of7LdJL1Cnn2FdVHIkqBkYEEZrzsTFqVzroPSw6iiisDcKKKKACiiigAooooAKKKKACiiigBD0rn723+z3TKB8p5FdDVHVbfzIDIv3k5H0rSjPlkcOPoe0p3XQxaKT6UtegmfNdbBRRSA8/TmmAN2HYDFSW0BuLhIh/EefpUda+gwBnkmI6fKtY1ZckLnVhKXtqyibUaCOMKOgGKkptOryt2fWpJJJBRRRQMDXOa5/x+J/uf1NdHXOa5/x+r/uf1NdGG+M87M/4DM6iiivTPmBKSnUnpSlsOO51lh/x5Q/7g/lVmq2n/wDHjD/uj+VWa8eW7PsqPwL0ErO1riwb6itKs7Wv+PFvqKdL40Riv4MvQ5yiiivYPj+oUlLSUAbPh7/lt9RW4Kw/D3/Lb6itwV5Nf42fWYD+AgooorI7AqvdwCe3eNuQRVikNCdtSZxUlZnGuhR2Ruq8Vf0S4MV2Ubo44+tJrEHlXm8DAcZP1qjGxjlR1zlTmvSf7ykfLq+GxPzOyB5paihfzI1cdCM1LXm7aH1MXdXCiiigYVU1X/kFXf8A1xb+VW6qap/yCrv/AK4v/I1UfiRM/hZ40p+UfSikHQUV9THZHzD+JlvTf+QlD9a6euX0z/kJQ/Wuornq7nVQ2CiiisjoCrVnqE9nkRnKeh5FVaKiUFJWY1JxehsjxAf4rfn1Dcfypf8AhIf+nf8A8f8A/rVi0fnWX1en2NPbS7m1/wAJD/07/wDj/wD9aj/hIf8Ap3/8f/8ArVi/nR+dH1emHtpdza/4SH/p3/8AH/8A61H/AAkP/Tv/AOP/AP1qxfzo/Oj6vTD20u5tf8JD/wBO/wD4/wD/AFqP+Eh/6d//AB//AOtWL+dH50fV6Ye2l3Nr/hIf+nf/AMf/APrUf8JD/wBO/wD4/wD/AFqxfzo/Oj6vTD20u5tf8JD/ANO//j//ANaj/hIf+nf/AMf/APrVi/nR+dH1emHtpdzZ/wCEgH/Pv/5E/wDrUNr4Zdptsg9vM/8ArVjUUfV6YnVk9LlncG5XgHoKdUMTDkevSpq1tbQ8CvDkm0FJ/D+IpaD0H5/5/KkzJDeldTpcPlWUYI5Iya5iNd0iIepIFdjGu1FHoK48XLZHs5RTu3IdgUtFFcJ7wUUUUAB6Vzmu/wDH6n+5/WuiPSud1wH7YmM/c/rW+Hdpnn5km6LSM6ik2t6H8qXa390/lXpKS7nzXs5dmFJS7T/dP5UhBHY0nJW3Gqc77HWaf/x4w/7g/lVmqth/x4w/7g/lVqvJluz6+l8C9BM1n61/x4N9RWhWdrQP2FvqKdP40RiV+6kc3TqTaf7p/KlwfQ163Mu58m6c77BSUu1v7p/Kk2t6H8qOZdxezl2Nnw//AMtvqP61tisTw/1n69R2+tbYry67vNtH1OBTVBJi0UUVkdgUh5paQ0AZmuQh7Pf3Q5H8q54cmurvUEtpIvqOK5Tk8HvXfhHeLR89m0OWopnS6NKJLFR3X5TWhWJ4fkyJV9Dn862xXJVVps9fBz56MWFFFFZnUFVNU/5BV3/1xf8Akat1U1X/AJBN3/1xf+VVD4kTP4WeLg8D6UuaavQfSnV9TFaI+Yl8TLWl/wDISg/3j/I11JrltK/5Clv9T/Kuprnq/EdWH2CiiisjoCiiigAooooAKKKKACiiigAooooAKKKKACiiigAooooAUHBBHbpVnjt0qrU8RymPSpaODGwuuZEnNIe2OhGaB1FB6j6VPU85FjT0D6hAD/ez+hrrAOK5bSxnUoj9T+ldSK8/FfGfQ5Sv3TYtFFFcp6wUUUUAFNKA9QKdRQJpPcZ5a+g/Kjy19B+VPop3YuSPYZ5a+g/Kjy19B+VPoouw5Y9hAAOgpaKKRQUhUHqBS0UAM8tfQflR5a+g/Kn0U7snkj2GeWvoPyo8tfQflT6KLsOSPYQKB0ApaKKRVrBRRRQAUUUUANcZQ1xzrtlZfQkYrsm6GuQuRi7m/wCujfzrrwm7PGzde7Fl7QXIvGTsVyf8/jXRVzehn/TifVP8K6Os8R8Z0ZY70ELRRRWB6IVU1X/kE3f/AFxf+Rq3VTVv+QTd/wDXF/5GnH4kRP4WeLDoKWmj7opa+rXT0PmJfEy3pX/IUg/3j/Kuq9K5TSv+Qrb/AO9/Q11dc1bc68P8IUUUVkdAUUv05NatrpqqA84Dsf4ewrOdRQKjFyZk0vNdEIkHARcemKd5af3F/Ksvb+Rr7HzOb5o5rpPLT+4v5UeWn9xfyo9v5C9j5nN80c10nlp/cX8qPLT+4v5Ue38g9j5nN80c10nlp/cX8qPLT+4v5Ue38g9j5nN80c10nlp/cX8qPLT+4v5Ue38g9j5nN80c10nlp/cX8qPLT+4v5Ue38g9j5nN80c10flp/cX8qPLT+4v5Ue38g9j5nN1JEcNjtXQeWn9xfypGiQqRsHI9BS9v5EVcNzwauY9Ieo+gpZEKOyHscUh7GtVrqfPNcraZb0s41KL3z/KuqFcjZN5d7Cf8AarrVPFcGLXvHv5Q/3TXmLRRRXKesFFFFAB2pvNKelZ95qiWcoRkZiRnIpxi5OyM6lSNNc0nZGhS1jf8ACQR/88no/wCEgj/55P8AnWnsKnY5/r2H/mNiisf/AISCP/ni9H9vxnnyno9hPsP67Q6SNgUuaiglE0KyAY3DOKl7VkdSd9UFJR3qteXQtITIwJA7DvQk27IUpKK5mWaKx/8AhII/+eL/AKUf8JBH/wA8X/StfYVOxzfXqH8xs0hrH/4SCP8A54vR/wAJBH/zxej2FTsL69h/5jYzQKpWGorfbwqFduOtXRWbi4uzOmE4zXNF3QtFFFIsKKKM0AI3Q1x9yM3Up9XP8669z8prjWYM7N/eNdeEWrPGzd+7FGhoYzfk/wCxn+VdHXP6Au66kb0X+ddDWeIfvnRlitQQUUUVgeiFVNW/5BN3/wBcX/kat1U1b/kEXf8A1xf+Rqo/EiJ/CzxQfdFFIPuiivq47I+Xluy5pX/IVt/97+hrrK5PSv8AkLW3+9/Q11p71zVviOvD/CJRRRWJ0lrTow96ucEL81blY2lY+1/VTWzXFV+I6aXwhRRRWRqFFFFABRRRQAUUUUAFFFFABRRRQAUUUUAFFFFAGfqMeGEnY8H61Ux8uPqK154/OiK9z0rIOQCO4PP4cV0U5XVjwMfR5J81tGCtscMP4Tx+ddhC2+NT1GK46ul0ibzbJPVflP4Vji46JnTlFS0nA0KKTNLXCe+FFFFABXOa7/x+J/uf1ro65zXP+P1f9z+prow3xnnZn/AZmU6m06vTPmApPWlpPSlLYcdzrNP/AOPGH/dH8qs1W0//AI8Yf90fyqzXjy3Z9lR+BCGs/Wv+PBvqK0DWfrX/AB4N9RTpfGiMV/Ckc1TqbTq9g+Qe4UlLSUCNnw9/y2+orcFYfh//AJbfUf1rbFeVX+Nn1mA/gIWiiisTsCkNLSUAVdQkEVlKT/dxXK5re12bZbJH3c/oKwq78KrRbPnc1nz1VA2/D8eI5X9Wx+VbNUNJi8qxj45Iyfxq/XJVd5Nns4SPLRigooorM6Qqnq3/ACCLv/ri/wDI1cqnq/8AyCLz/ri/8jVR+JET+FniYPyiikGMCl4r6yOyPlpbst6T/wAha3/3j/I113c1yOk/8ha2/wB/+hrr65a3xHZhthKKKKxOkkt5TDcK+M46j2roUdZFDIcqRkfSuaqeC6ktvuHI9DyKwq0nLVGtOfLub9FZY1dscxAn2al/tg/88f1/+tWHspdjX2kTTorM/tg/88P1/wDrUf2wf+eH6/8A1qPZS7B7VGnRWZ/bB/54fr/9aj+2D/zw/X/61Hspdg9qjTorM/tg/wDPD9f/AK1H9sH/AJ4fr/8AWo9lLsHtUadFZn9sH/nh+v8A9aj+2D/zw/X/AOtR7KXYPao06KzP7YP/ADw/X/61H9sH/nj+v/1qPZS7B7VGnRWZ/bB/54/r/wDWo/tg/wDPH9f/AK1Hspdg9ojTorM/tg/88P1/+tR/bB/54/r/APWo9lLsHtEafWs29i8uUP8AwsMGm/2wf+eX60yXUvOj2tEAD3zVRhJPY5sVGNWHmRdK1NCuNkzxk8PyPrWZnI3DvSxSNFIrrkMpz9TV1Y88GjxsNVdGspHYg06oLeZZoVdcEEZqYV5TVtD62LTSaFooooKCuc1z/j9X/c/qa6M1zmu/8fif7n9TXRhvjPOzP+AzMp1Np1enc+YCk9KKSlLYa3Ot0/8A48Yf90fyqzVbT/8Ajxh/3R/KrNePLdn2VH4EJWfrX/Hg31FaFZ+tf8eDfUU6XxojFfwpehzlFNp1ewfIPcKSlooFY2PD3/Lf8P61tjrWJ4f6z/UVtjrXk1/jZ9Xl/wDAQtFFFZHaFNbpTs1Uv7kW1s7k4OMAe9NK7sROSjFyMLVp/PvmCn5U+UVWt4jNcRx44ZsVGSSfm79a1NCtt87TMOF4X616Uv3VM+Ypp4nE38zdiXYoUdBUlIBS15m59SlZWCiiigYVT1b/AJBF5/1wf+Rq5VPV/wDkEXn/AFxf+Rqo/EiJ/CzxFfuilpoPyijNfVx2R8rLdl7SP+Qtbf7/APQ111chpH/IXtf97+hrr65a3xHbhvhCiiisjpCiiigAooooAKKKKACiiigAooooAKKKKACiiigAooooAKKKKAClpKKAJoWz8vftz3qT1xxxVarCtvUtn5u/1/8Ar1DVjzcXRs+dGvot3tJgc/KT8v8AWt8VxasUcMv3lOQa6bT70XcOeAw4IrzsTS5XzI9LLcVzR9nJ6l6ikBpa5T1xG6VSu9Lhu5Q8hYEDHBq8aTFNSad0ROnGatJXMz+wbb1k/wC+qP7Bt/70n/fValJV+2n3MfqdH+VGZ/YNt/ef/vqk/sG3/vSf99VqUtHtp9w+p0f5SOGIQxKi5woAGTUlFFZtnQlZWCq9zbLdRmN8gE9qsUYoTa1QpRUlZmX/AGDbesn/AH1R/YNt6yf99Vp4oxWntp9zD6nR/lRmf2Dbesn/AH1Sf2Dbf3pPzrVoxR7afcPqdH+VFOysIrLd5ZY7sZyc1cFJilrNtt3ZvCEYLlitAoNFIaChp+97Vzur3n2i5KKfkjOB7nvWlq199miKJ/rGHHsK5317n+ddmGpa87PFzPFJL2UfmKqs7BV+8TgV1VjbLa2yRqOg5+tZOiWXmv8AaH+6OF9/et/aKnE1OZ8qLyvDOEfaS6gKWjFFcp64UUUUAFU9X/5BF5/1wf8AkauVT1f/AJA95/1wf+RqofEiJ/Czw9elLTV+6KXNfWR2R8rLdl3R/wDkL2v+9/Q12J71xujn/ib23+9/Q12PpXLX+I7cLrEKKKKxOkKKKKACiiigAooooAKKKKACiiigAooooAKKKKACiiigAooooAKKKKAFpUk2N7d/em0UtyWlLQtHJwfyqW1uXtJRInTv7iqsb7eG4U+vapefxrOUU1ZnlTjKhU5o7HW2twlxGHQ5B9+lT1ydpePaShl5Un5l9a6W1uo7pA6N9RmvMq0nB+R7+Dxka8bN6liikHWlrE7wooooAKKKKACiiigAooooAKKKKACiiigAoopKAAmqt/epaQkk/Mfuj1NJe3qWceWySegHWuaubh7mUySHJPQdcewrejRc3d7HnY3GxorljuNmlaeRpHOWP8qls7Vry4CL0/iPtUUSPPIEjXLMfSumsLJLOEKOWPU+tdVaqqcbI8rB4aWIqc0tieGFYY1RBgDtUtFLXn3bPpYpJJLYKKKKQwooooAKpav/AMge8/64P/I1dqnqql9Ju1HUwuB+RqofEiKnws8NX7opaQcKPpSV9ZH4UfKS+JlqxuRaXsUzglUOSq9TW7/wk9sR/qJvzX/GuYoqJU1LVlwrSgrI6j/hKLX/AJ95vzWj/hKLX/n3m/Na5eip9hEr6zM6j/hKLX/n3m/NaP8AhKLX/n3m/Na5eij2EQ+szOo/4Si1/wCfeb81o/4Si1/595vzWuXoo9hEPrMzqP8AhKLX/n3m/NaP+Eotf+feb81rl6KPYRD6zM6j/hKLX/n3m/NaP+Eotf8An3m/Na5eij2EQ+szOo/4Si1/595vzWj/AISi1/595vzWuXoo9hEPrMzqP+Eotf8An3m/NaP+Eotf+feb81rl6KPYRD6zM6j/AISi1/595vzWj/hKLX/n3m/Na5eij2EQ+szOo/4Si1/595vzWj/hKLX/AJ95vzWuXoo9hEPrMzqP+Eotf+feb81o/wCEotf+feb81rl6KPYRD6zM6j/hKLX/AJ95vzWj/hKLX/n3m/Nf8a5eij2EQ+szOn/4Si2/54Tf+O/40v8Awk9r/wA8JvzX/GuXoo9hEPrEzp/+Emtv+eM3/jv+NWLfxRavIkckcqKeN7EYH5GuQopPDxZM6rmrSPSQ4ZQykEHkEdKmt7iS1cPG2D+hFcNo+uyacRHIGktyemclfp/hXX29zFdxCWB1kQ9wf5j1riqUraSWhguanLmizqrHUoroAEhX7qavg5FcWCQQQcH1rStNZlgwsw3oO/evPq4Zp3iezhc0TXLU+86OiqttewXAPluCemM8irIrlaaep60ZxmrxYtFNB5pc0ixaKBRQAUUUUAFFJRxQAtFNPFVLnUoLbO5gW/ujk01FvZETqRgrydi23Trisy/1dLcFIsPJ046Cs281aW4yq5RPQd6oZxxXXSw3WR4+KzP7NL7x8krzyF5GLOetEcbzyCONcse1SWtnLeSbYx8o6segrorKwjs4wFyW7se9a1Ksaa5YnJhsHUxEuee3cbp+nrZpzgyH7xq9SU4V58pOTuz6KnTjTjyxWggpaKKRoFFFFABRRRQAUkgDIQeh4NLSN0oA8Z8T6LLomrSR7T9mkYtC2OME9PwrIr3K+0221K3aC7iWSNuxrkbr4Y2skmba+mhT+6VDY/GvZw+YwUUqm6PFxGXz5m6fU86orv8A/hVq/wDQVk/79D/Gk/4VaP8AoKyf9+h/jXR/aNDuc39n1uxwNFd9/wAKuH/QVl/79D/Gj/hVw/6Csv8A36H+NH9o0e4f2fW7HA0V33/Crh/0FZf+/Q/xo/4VcP8AoKy/9+h/jR/aNHuH9n1uxwNFd9/wq4f9BWX/AL9D/Gj/AIVcP+grL/36H+NH9o0e4f2fW7HA0V33/Crh/wBBWX/v0P8AGj/hVw/6Csv/AH6H+NH9o0e4f2fW7HA0V33/AAq4f9BWX/v0P8aP+FXD/oKy/wDfof40f2jR7h/Z9bscDRXff8KuH/QVl/79D/Gj/hVw/wCgrL/36H+NH9o0e4f2fW7HA0V33/Crh/0FZf8Av0P8aP8AhVw/6Csv/fof40f2jR7h/Z9bscDRXff8KuH/AEFZf+/Q/wAaP+FXD/oKy/8Afof40f2jR7h/Z9bscDRXff8ACrh/0FZf+/Q/xo/4VcP+grL/AN+h/jR/aNHuH9n1uxwNFd9/wq4f9BWX/v0P8aP+FXD/AKCsv/fof40f2jR7h/Z9bscDRXff8KuH/QVl/wC/Q/xo/wCFXD/oKy/9+h/jR/aNHuH9n1uxwNFd9/wq4f8AQVl/79D/ABo/4VcP+grL/wB+h/jR/aNHuH9n1uxwNFd9/wAKuH/QVl/79D/Gj/hVw/6Csv8A36H+NH9o0e4fUK3Y4Idas2WoT6fNvt3xnqvZvqK7X/hVy/8AQUl/79D/ABo/4Vcv/QUk/wC/I/xolj6ElZv8A+oVuxV03X7a9AWUrBMf4WPyn6GtXt/LNU/+FXDHOqyf9+h/jWnp/g2608hRq0k0XeOSIY/A54rkniKP2WRLLq26RApIIYEhvUdavQatcw8E71HZqWfRriFcrhwKpOjRth1Kn3FT+7qGNsRh31Rtxa9E3+tUof0q5HqVtJjEyc9ia5b+lH0NZywsXsdNPNasdJanZCVD0YGl3r6iuMyV6Eg+1OE0n/PRx9GNZ/VH0Z0LOF1idjvX1FNaaNRywH41yJkfH33/ABJNM69PzoWE7sHnC6ROok1S0iHMyk/7JzVOXXkXPlRMT6nisOitFhYLVnPPNK0tIqxbuNUuZ+N+xD0C1UJ5JOPfmpYbaacgRxsffHFaNvoLnBuJAB6LVc9OlsYRpYjEu+rMpEaRwqKWY9gOa1bPRGch7jhf7uf51rQWcNsoEaAe+OasLwK56mJctInqYbLIw96o7sjihWFAqKAB2FSYpe1FcrPVSSVkIR7UtFFAwooooAKKKKACiiigAooooAKMUUUAHNFFFABRRRQAUUUUAFFFFABRRRQAUUUUAFFFFABRRRQAUUUUAFFFFABRRRQAUUUUAFFFFABRRRQAUUUUAFGKKKAExUckCSjDqp+oqWijbYlxUtzNl0W2kwQpQj+6arP4fAB8uYj6ituitVVmtmc88FRlvE546FP2kQ/UUz+wrnP34/1ro+aOapYmoYPLKD6HO/2Fcf34/wBakXw/KfvTAfQVvUUPETfUpZbQXQyY9AiGN8jt+lW4dLtoTlYxn1PNXKKh1Jvdm8MLRhtFDVQLwAAPpS4paKzN0ktgxQOlFFAwooooAKKKKACiiigAooooAKKKKACiiigAooooAKKKKACiiigAooooAKKKKACiiigAooooAKKKKACiiigAooooAKKKKACiiigAooooAKKKKACiiigAooooAKKKKACiiigAooooAMUYoooAKKKKACiiigAooooAKKKKACiiigAooooAKKKKACiiigAooooA/9k=;" vertex="1" parent="1">
                    <mxGeometry x="263" y="201" width="33.99" height="35" as="geometry"/>
                </mxCell>
                <mxCell id="56" value="&lt;font&gt;Image detection (DETR)&lt;/font&gt;" style="rounded=0;whiteSpace=wrap;html=1;fillColor=#eeeeee;strokeColor=none;labelBackgroundColor=#1D1D1D;fontColor=#FFFFFF;" vertex="1" parent="1">
                    <mxGeometry x="246" y="296" width="130" as="geometry"/>
                </mxCell>
                <mxCell id="61" style="edgeStyle=none;html=1;entryX=1.006;entryY=0.548;entryDx=0;entryDy=0;entryPerimeter=0;strokeColor=#1808FF;strokeWidth=3;fontColor=#000000;" edge="1" parent="1" source="58" target="a4H2ehMqBmG_PgusIZXr-57">
                    <mxGeometry relative="1" as="geometry">
                        <Array as="points">
                            <mxPoint x="1620" y="404"/>
                        </Array>
                    </mxGeometry>
                </mxCell>
                <mxCell id="58" value="&lt;font color=&quot;#000000&quot;&gt;Graph Databae&lt;br&gt;(Neo4j)&lt;br&gt;&lt;/font&gt;" style="html=1;verticalLabelPosition=bottom;align=center;labelBackgroundColor=#ffffff;verticalAlign=top;strokeWidth=2;strokeColor=#001DBC;shadow=0;dashed=0;shape=mxgraph.ios7.icons.data;fillColor=#0050ef;fontColor=#ffffff;" vertex="1" parent="1">
                    <mxGeometry x="1580" y="107.5" width="70" height="69" as="geometry"/>
                </mxCell>
                <mxCell id="62" value="Customized&lt;br&gt;search" style="rounded=1;whiteSpace=wrap;html=1;labelBackgroundColor=none;labelBorderColor=none;strokeColor=#82b366;strokeWidth=2;fontSize=20;fillColor=#d5e8d4;fontColor=#000000;" vertex="1" parent="1">
                    <mxGeometry x="1370" y="402.75" width="140" height="54.5" as="geometry"/>
                </mxCell>
                <mxCell id="63" value="&lt;b&gt;&lt;span style=&quot;color: rgb(0, 0, 0); font-family: Helvetica; font-size: 16px; font-style: normal; font-variant-ligatures: normal; font-variant-caps: normal; letter-spacing: normal; orphans: 2; text-align: center; text-indent: 0px; text-transform: none; widows: 2; word-spacing: 0px; -webkit-text-stroke-width: 0px; text-decoration-thickness: initial; text-decoration-style: initial; text-decoration-color: initial; float: none; display: inline !important;&quot;&gt;Validataion Pipeline&lt;/span&gt;&lt;/b&gt;&lt;span style=&quot;color: rgb(0, 0, 0); font-family: Helvetica; font-size: 16px; font-style: normal; font-variant-ligatures: normal; font-variant-caps: normal; font-weight: 400; letter-spacing: normal; orphans: 2; text-align: center; text-indent: 0px; text-transform: none; widows: 2; word-spacing: 0px; -webkit-text-stroke-width: 0px; text-decoration-thickness: initial; text-decoration-style: initial; text-decoration-color: initial; float: none; display: inline !important;&quot;&gt; to Optimized overall and individual services performence&amp;nbsp;&lt;/span&gt;" style="shape=document;whiteSpace=wrap;html=1;boundedLbl=1;labelBackgroundColor=none;fillColor=#dae8fc;strokeColor=#6c8ebf;" vertex="1" parent="1">
                    <mxGeometry x="18" y="-120" width="248" height="150" as="geometry"/>
                </mxCell>
            </root>
        </mxGraphModel>
    </diagram>
    <diagram id="dZUoMR6d8EfK1gw4kbaV" name="OCR-Models-Comparison">
        <mxGraphModel dx="1998" dy="878" grid="1" gridSize="10" guides="1" tooltips="1" connect="1" arrows="1" fold="1" page="1" pageScale="1" pageWidth="850" pageHeight="1100" math="0" shadow="0">
            <root>
                <mxCell id="0"/>
                <mxCell id="1" parent="0"/>
                <mxCell id="xbk6CC57-3HPrHdIgxnw-2" value="" style="shape=image;verticalLabelPosition=bottom;labelBackgroundColor=default;verticalAlign=top;aspect=fixed;imageAspect=0;image=data:image/png,iVBORw0KGgoAAAANSUhEUgAABUoAAANECAYAAABmZRXeAAAAAXNSR0IArs4c6QAAAARnQU1BAACxjwv8YQUAAAAJcEhZcwAADsMAAA7DAcdvqGQAAP+lSURBVHhe7N19XFv13T/+F2DSNqQWuSnSNgM6V6tAg1a+ynSz9kL3ZWZsa7a2rmVZndfafndt5edwi/YaTjYsrtlG57ZW3WQMurW9rrgN47JVhnXe4EarpMBsay1osIwGUqqQKpH298eV87nOObkhUOgNeT0fjz6Uc5eTk8/deZ/P53PiMjMzz4KIiIiIiIiIiIgohsWrFxARERERERERERHFGgZKiYiIiIiIiIiIKOYxUEpEREREREREREQxj4FSIiIiIiIiIiIiinkMlBIREREREREREVHMY6CUiIiIiIiIiIiIYh4DpURERERERERERBTz4jIzM8+qF14MFixYgFWrVkGv1+NPf/oTWltb1Ztc9EwmEwoLC3Hs2DH89re/xenTp9WbAACWL1+OFStWYO7cuUhISMDo6Ch+//vf43e/+13UxyCiiTEajSgvL4dOpwMANDY2oq6uTr3ZlEtISMBdd92Fa665Bq+99hp+//vfY3R0VL0ZhWAwGLB582akpaUBk/wb2mw2ZGdnAwC6urpQXl6u3oSmKeZJIiIiIqLYM+5A6dVXX43PfvazWLx4MfR6PRISEgAAo6OjOH36NI4dO4b/+q//wj//+U/1ruPy/e9/H9deey0A4NSpU3jkkUdw+PBh9WYXrWXLluGee+7BrFmzcPbsWTz//PN49NFH1Zvhq1/9Kj71qU+J6yhpbGzEW2+9FdUxJpPJZMLatWuh0WjUqwAAfr8fPp8P77zzDlpbW/Hss88yeEsKd911F1asWIH4+P/psN7b24vKykqcOHFCvelF4WIJlK5cuRJf+MIXxMOS//7v/8aePXvUm00aeQAQAE6fPo1f/OIXePnllxXbhbN27Vp89rOfFb8zLuC1m66B0oSEBNxyyy1Yvnw5srKyMGvWLFFXSGXxkSNH0NjYeM51LgU733mSiIiIiIguvKiH3s+ZMwff+c538P3vfx833ngj5syZowjuJSQkQK/XY8mSJSgoKFDsOxGzZs0S/6/RaDBz5kzF+oudXq/HZZddBgCIi4tDYmKiehMUFRVh+fLl4jr6fD68+eabcLvdGBkZieoY55tGo8GcOXNw7bXXwmKx4PHHH8dXv/rVoEAvxaaEhATk5eUpgmcpKSkwGo2K7SiYPAiWkJCgKAPPh1mzZuGmm25SLw5p9uzZuP766xW/M02ugoIC/PjHP8Y3vvEN5ObmKh5MQlYWFxQUTEqdS8EudJ4kIiIiIqLzL6q73ISEBGzcuBEFBQXipuHs2bM4ffo0fD4ffD4fTp8+jbNnx9U5NaJ9+/bh9OnTGB0dxWuvvYaOjg71JhfMrFmzYDKZ8NBDD+FXv/oViouL1ZvghRdewLFjx3DmzBkMDAzg2WefVW+C6667TgSApV6z3/72t1FWVobf/e53UR1jKp05cwbvv/+++I19Ph8++OADxTY6nQ7FxcX43ve+hzlz5ijW0cXt6quvxsaNG/Gzn/0M1dXV6tUTYjQasWDBAsUyrVYbdQAulr3wwgvo7e3FmTNn8NZbb+GFF15QbzLlFi5ciLlz56oXB7npppuQkZGhXkyTZOXKlSgrK8OCBQsQFxcnlkv17vvvv48zZ84o9qHJdzHkSSIiIiIiOr+iGnp/++234+6774ZWqwUA9Pf345e//GXQvKFXX301vvjFL+LNN9/E7373O8W66UQ+VNfv96OhoQEOh0O92ZgeeeQRXHXVVQCAo0eP4jvf+Y56k/NOPvTe5/PBZrPB5XIptlm4cCFWrFiBpUuXijRx9uxZ7N+/H1u3buUcbpcIq9UqeqJN1pDi9evX4/bbb0dcXBwGBgZw+eWXQ6PRYGBgANXV1Th27Jh6lwvuYhl6f75JQ8pHR0cxOjoKrVaLDz/8EL/73e/whz/8Qb25wr333oubb74ZZ86cwdmzZ8UDtAt17abT0PvPfOYz+NKXvqQoW3t7e/H000/jhRdeEFOdJCQkoKCgAHfeeSf++c9/Tus6l4iIiIiI6HyJqkfptddeK27aTp8+jYaGhqAgKQAcPnwYP/jBD3jDFiX5MMqTJ08q1l3Mjh07BpvNhp///Od47733gMDUAPn5+SF711JsmD17Nq6++mrExcXhzJkzaGtrE0GdpKQkXHfddepd6CJw5swZ9PX1AQAuu+yyMYdxL1y4EIsXLwYADA8PY3h4WL0JTVBubi4+//nPi/rW7/fD4XCgrKwMe/fuVcwHPTo6ildeeQXf/e53WecSERERERFNkqgCpfJ5uc6ePYt3331XsZ5i04svvoinnnoKfr8fCMyZV1hYqN6MYkRBQQGuvPJKAMDQ0BBefPFFHD9+HAg8FFi6dCnnsr0IaTQaeDwejIyMAADmzZuHJUuWqDcTPv7xj+OKK64AAj0s1dNx0MTdcccdYgqTM2fOoLm5Gb/+9a/ZS5+IiIiIiOg8iWro/YYNG3D77bcDgZu3Z599Fo8//rh6szElJCTgzjvvxLJly3DllVdixowZQKDXzPHjx/HHP/4Rzz//PKAaFuzxeFBVVQW32604HgJvl7/zzjthMBig0Whw9uxZ+Hw+tLW1oaGhIehN26GO+7GPfQwrVqzA3LlzkZCQgJGRERw5cgS1tbXo7u4W+1osFpSUlMiOFqy1tRXV1dVhh/Oql4cinVdycnLIY6iN57qOJZqh93KzZ8/GQw89hMzMTACA1+vFI488gqNHjyq2mzNnDj73uc+hoKAAqamp0Gg0AIAPPvgA//rXv/DnP/8Zf/3rXyMGBObOnYvPf/7zWLp0KZKSkpCQkCB+7zfeeAO1tbXo6emJehhupKHnodKJ0WiEyWRCcnIy4uPjMTQ0hBdeeEEEMubOnYu1a9ciPz8fOp1OPFT4y1/+ArvdHva7zZ07F1/84hexdOlSzJ49G/Hx8RgdHcWJEyfw1FNPobm5Wb1L0HDg73znO/j85z+PO+64Q1yb06dP49VXX1XkA/W1CSWa3z0UaTg2ABw6dAibN2/GXXfdhRUrViA+Ph7vvvsufvKTn+DgwYPqXYFz+E5yCxYswGc+8xksWbIEV1xxhUhnfr8fbrcbzzzzDPbt26fYR50npfTyuc99DnfddRcuu+wyjI6OYvfu3bDb7Yp9Ech/1dXVWLhwIQDgpZdewo9//GMg8JDpC1/4Am688caQ6d5ut+Oll14CVHkv1JQekfJ5f38/9u7di8bGRrH9WOTX+5lnnkFubi4yMzNx9uxZPPvss3jsscfUuyjy+8jICPbs2YNPfepTY+Y1BALpn/70p7Fw4ULodDqRzoeGhtDR0YE9e/agp6dHvZuQlZWFL3/5y1i0aBFmzZqFM2fO4L333sNLL72Ev/71r7BarWOex2TkNfXQ+6ysLKxcuRKLFy8WL1w6c+aMKJcef/zxkGlVbeHChbBarUhJSQEAvP322/je976HU6dOqTeNyqxZs/B//+//xSc+8YmQ6eVvf/sbnn76aUUvVYn6O3/nO9/Bl770JSxbtgyXX345EBgF8ec//xlPPfUUELgO69atw0c/+lHMmjULo6Oj8Hq92LNnT9TXdfny5fj85z+P9PR0JCQkwO/346233sJ///d/hxzFIn3Hm2++GVdeeSVmzpyJuLg4jI6OYnBwEC+88AL++7//O+g7qj/7u9/9rpiHXaPRoKWlBT/60Y+mLE9effXV+OxnPxsyzbz55pvYvXs3Dh8+rN4t5Pl0dHQEXfe+vj78/ve/D3ndiYiIiIgosqh6lB44cABDQ0MAgPj4eBQVFcFqtUb10g+J0WhETU0NLBYLMjMzxQ0FAj2aMjMzx9UbcdasWbBarfj617+OhQsXigCE9Hb4m2++GdXV1WO+RKakpAQbNmxARkaG6O2m1WqRm5uL73znOyL4cbGa7Os6Xu+99x6OHDki/k5MTMRHPvIRxTa33norfvzjH6OkpAQZGRnitwKAGTNmIDMzE1/72tcivhDqi1/8In70ox/hjjvuQEpKivitpN87JycH+fn56t0mRVxcHFauXIkvf/nLSEtLQ0JCAuLi4jB79mwUFxfjvvvuw1VXXYUHHngAN998MxITExEXF4f4+HgkJSXhi1/8Ir7+9a+rDwsAuOWWW1BdXY3ly5djzpw54i3iCQkJyMjIwMaNG/Htb39bfN9Q4uLi8K1vfQurVq1SXJtZs2bh5ptvxre+9a2w13WyGAwGLFq0CAg8TJFevtba2orBwUFA9qb0aEzkO+Xm5uIHP/gBioqKMHfuXEU602g0WLhwIf7f//t/uPvuuxX7hXPw4EERpEpISEBubq56EwDAjTfeKF5sNDIygvb2diAQ+Nq6dSs+97nPhU330hzFY5kzZw6qqqrw5S9/OWQ+z8jIwLXXXqvYZzxGR0dx+PBhnD17FnFxccjNzQ0ZTM/LyxPlfm9vL3p6epCYmKjeTGHOnDmwWq247777sGTJEuj1ekU6nzNnDm6++WZs2bIl7NQdxcXF+P73vw+j0ShGOMTHx2POnDkoLi6GxWJRvPQolMnIa2omkwlVVVW48cYbMWfOHLFvfHw89Ho9rr766qhfenXttdeKIOTZs2fhcrkmHCQ1Go344Q9/iLVr14ZNL6tWrcKWLVvGrOPi4+PxwAMP4LOf/SySkpIQHx+P+Ph4pKSkYPXq1fjqV7+KpUuXYvPmzcjNzRW/T0JCAtLS0rBhwwbcdddd6sMqxMXF4etf/zo2bNiAefPmieuo0Whw1VVX4d5778VnPvMZ9W548MEHsXbtWmRnZ2PWrFkiDSQkJCAlJQWf/exn8eCDDwaVFXJxcXHYtGkTPv7xj0Or1SIuLk6RV8OZSJ5MSEjA+vXr8dBDD4VNM0ajEQ899BBKS0sV+4Zy5ZVXoqKiIui6z5s3D//+7/8e8poREREREVFkUQVKW1tb8be//U30iEsIvETixz/+McrLy4Pecq22cOFCcQMkOX36NLq6unD06FF4PJ5xvcE3ISEBmzZtwg033CB6BB06dAhOpxMvv/wyfD4fELiRWbNmTdiA7hVXXIFbb70VIyMj6OrqwptvvikCwgj0Plq5cqX4u729HU6nE88//7wYpjo6OorW1lY4nU44nU784x//ENuH0tvbi71798LpdKK/v18s7+/vF8dobm4WwaVIJvu6TpTH4xFpIz4+XtFb9qabbsK6deuQlJQEBIJoHo8HR48eRVdXl+jpExcXh2uuuQYbN24MClR85jOfwYoVK8Rxz5w5A6/Xi6NHjwb9ZlMhKSkJN954I06fPo0333wTx48fF983Li4OeXl52LRpEwwGA06dOoWjR48qtomPj8d1110XNJz5pptuwj333CNu4gcHB7Fv3z7s3bsX3d3dOHPmDOLj43HDDTdg1apVin3l5s+fjxtuuEH0RpJfVwTSidlsBgKf0dzcDKfTqegtLU9/e/fuRW9vr1gXjaVLl4rh2IODg6L319GjR0Uvwbi4OCxZsgSzZ89W7BvKeL6TJCEhAQkJCRgdHcXbb7+NZ599NqhMSEhIwC233BI26Cl37NgxHDp0SPy9YMGCkIHNvLw8zJw5Ewjk71deeQUJCQm4++67FQHUjo4OcY07OjqCerlFsm7dOlx11VWIC/SWO3r0qChH9u/fPyl5oKWlRcw5nJqaGvLBw0033SR6c7766quiHAwnISEBGzduxA033CDydbgySqfTYdWqVUEPt5YuXYqVK1cq8r9Uhrz99tv48MMPkZeXh+TkZMV+cpOV1+Ryc3OxYsUK8dufOnUKL730EpxOJ5599lm8/fbbogyIRkpKigjQjYyM4O2331ZvEhV1vXD27FkMDg6GLC8NBgPWr18fMZA4b9485OXlibJN/pslJCTgE5/4BL72ta/hiiuuQH9/f8htbr755rD1MAJ17Sc+8QmcOXMGb7/9dtAxtFqteIGg3GWXXSa+n/za9/X1iaD/woULceeddyr2k7v88suRm5s7ZqBdbSJ58itf+Qr+7d/+TfzOfr9ffF95naHRaPDpT386YqAzISEBRUVF0Ov1OH78eMhrJo22ISIiIiKi6CUkJSV9T70wlIMHD2LmzJlYuHChuOHVaDQwGAz4t3/7N6SlpaGzsxMffvihYr+EhAT8x3/8Bz760Y8CgcDi3/72Nzz00EP405/+hKamJjgcDpw+fRparRb79+8HAr1/5s+fDwSGAr/wwgtibtQ777wTd9xxBxISEvDhhx/C4XDgJz/5CV599VW0tLSgt7cXS5YswYwZM5CYmIgPP/xQDPeVHzc+Ph69vb3YsmULdu/ejWeffRYHDx5Efn6+6CWl1Wrhcrnw7rvvore3F6+++iref/993HTTTdBoNBgdHUVTUxN27dqFV199FV1dXUCgp8fHP/5xcUN0+PBhuFwuDA8P4+DBg3j11VexbNkyEVzq6+tDdXU1Xn31VXR2dmJkZCTsMXAO13UsixYtwpIlS5AQGPb48ssvixe9hPPRj34UeXl5IlDldrvhcrkwe/ZsrF+/XgSLhoaG8Mtf/hKPPvoompqasHfvXvz1r39FZmYm0tPTERcXh7S0NAwODoq3o1999dVYt24d9Ho9AODdd99FXV0dampq0NTUhGeffRZ/+ctfkJqaihMnTuDNN9/EnDlz8MlPflL8hvLrJidPC4ODg9i7d2/IdfHx8Xjrrbfwve99D3/4wx/gdDoRFxeHxYsXIz4+Hpdddhlmz56No0eP4j//8z/hcDjgdDpxxRVXYOHChYiLi4NWq8Xg4KBIh+pr09vbix/84AdoamrCgQMH8Ne//hXZ2dmYN28e4uPjccUVV2D//v3ixTl33HGHSDsJCQk4dOgQvvvd78LhcGDv3r04fvy4yANxcXG47LLL0NzcjPfffx+dnZ149dVXcf3114vvKE9/Bw8eHPcLer74xS+KwMwbb7yB3//+92LdFVdcgZycHMTHx2PmzJl4++23Q06jMdHvdPbs/8wekp6ejvT0dNhsNuzevRv79+8XZYLH48F1112Hyy67DFqtFl6vV/R6jZTP4uLicN1110Gj0UCr1aK/vx+vv/66OOfZs2fjC1/4ApKSknDmzBns27cP+/fvR15eHv7v//2/0Gq1OHPmDJ5++mn89Kc/xauvvopXX30V+/btw4svvoh33nlH9BqU570zZ87g4MGDOHLkCDIyMmA2m0UeaGlpwfe//30cOHAAr776Kl588UX85S9/QW9vLwYGBsS5jUV+vQ8fPoy9e/diyZIluPLKK5GQkIDLLrsMf/vb38T2CxcuxOc+9znodDq89957+OMf/4i4uLiw1w6qslrqJfnggw/i6aefFmXUwMCAeGHgjBkzkJqain379onf9Z577hFTe4yMjGDXrl2w2WxoamrCX/7yFxw8eFD0VJXIz2My85q8nPjUpz4Fo9GIuLg4vPvuu6ipqcEf/vAHvPrqq9i/fz/+8pe/oKOjA8ePH49qHtfi4mKRH0dGRvDXv/51zLI3lPXr14ve3SMjI/jDH/6AqqoqUV4+/fTTSElJwUc+8hHEB3q9nz17VjElhjovtrW14bvf/a4I9KempiIrKwtxcXGYMWMGZs2ahf3792Pz5s0iWJidnS2+z8yZM9HX14ejsilZ5J+h0WjgdrtRWVmJ//qv/xJp4/LLL8fChQsRHx+PGTNmID4+Hi0tLeIYBQUFePrpp/GTn/wELS0t4tq/+OKLuP7660XP4fj4eMUwdPlnSz0xn3vuOfzgBz/Ab37zG7z44ovAJOfJgoICfPGLXxSB9e7ubsX3dTqdOHLkCHJycqDT6ZCQkID09HRFWpSfT1xcnBh+v23bNnEMKS1L9c6JEycUoz6IiIiIiCiyqHqUIhCI+81vfoP7778fhw8fFr0WEAgm3n777diyZYu4QZPceOONYtnZs2fx8ssv49FHHw3qTeVwOLBjxw7FsnAKCwvFjfmbb76J3/72t4r1r7zyiugJFh8fj2uuuUaxXjIyMoKnn35aBOUQ6EX297//XdykJyYmRuypdKFMxXWdDGfOnBG9zAoKCkRvltHRUfzlL38JmjPt1KlT2LlzJ7xeLxBIS/JeQ/Jg8vvvv4+dO3cqApoI9FD72c9+FrR8soyMjOAvf/mLYp7B5557TvH3+++/j6effloxVFbeMzguLk686AiqazMyMoI//vGPivkZR0dHsXfvXtETMjk5OWwvyHfffRf/9V//pfhseR5AIFgk73k8ma699loxfPfDDz8MCkrLh7DPnDkTN9xwg2J9KBP5TgcPHsRDDz2k6CkrOXz4sEhj8fHxEXu3yf39738XPfsSQgy/lw9FHxoaCjn/alxgmga1EydO4K233lIvHpM0p6Hc6dOnQ85pOF6vvPKKyL8f+chHFD1o5S9xOnbsWMjvqiYvq3t7e/HYY48FDSdvbm7Gyy+/LMrcBQsWwGg0Aqq0dfbsWfz9739XBOEB4MiRI3jqqafC9m6dzLwWjlarFcPm5Y4ePRr0fafStddei6uvvhqQXa/f/e53im2kuly6BvHx8TAajUFpSvLuu+8q5jIdHR3Fc889J3ofIzBf6e9//3vRI3J0dBQvvPAC3n//fSDQ8zPUVA6SoaEh7Nq1K2iO2l//+teK4OpHPvIRRV6qqqoKWe6fOnVKUQ5cfvnlYT//TOClWdu3b5/wbxVNnvz4xz8uAqunTp0Sc2rLuVwuOJ1O8cA5NTUV/+f//B/FNnIHDhzAM888I/5Wp2WNRiPmvCUiIiIiouhEHSiVdHd344EHHsB//ud/orOzUzG00GAw4P/7//4/xZxnH/3oR0UPivfeey8oUDZeBoNBNPzPnj2L119/PeTwRvnQ4eTk5JDzxJ06dUoReJH09/cH9Yy92Ez2dT0XV1xxBS677DIgcKMm3UAbDAYxb9upU6fCTktw7NgxxU3tlVdeKW6GpR6ZAPDWW2/hueeeE9udL++++25QjxyPxyN6OEt/qwOEfX19ip6Z8htp+bUZHBwUvRvlPB6PuOHVarWid5bawMBAyKDVeIfPT9T111+vCACoz+XYsWOKhxEf+9jHxgxUnst3SktLw8qVK3HvvffCZrPh17/+NR599FFFUFXqRTaW0dFRHDhwQJQx8+fPV5RvS5YsEceSBw+7urrwr3/9CwgESpcvXy7m2I32syW9vb2KgOqSJUvw6KOPYsWKFRGHTE+Ey+USPeCSkpLEMPiEhARce+21iI+Px8jICF555RXVnsHkZTUAdHZ2hn2p0f79+0VQbebMmeJFOwsXLhTX64MPPgj5Qh8EgqXy/Cg3mXlN7tChQyJ/z5w5E1//+tdhtVqDptiIlvwhl9RjeryivV7vvfee4jokJSWJa67m9XrR2dmpWObxeBRDy3t6eoIC9X19feKaxgXmbA7nX//6V8hzHQ3MnStJTExEenq6YptZs2Zh+fLl2LBhA6qqqvD444+joaEBn/jEJ8Q2Go1G1Jdq0nQk4zGRPCkfAv/WW2+FTIcA8Nprr4kHbBqNJuzURn6/P6hegiotExERERHR+IW/cxnD4cOHUVFRga1bt6Knp0f0Bpo7dy7WrFkjtrvyyitFoOvUqVNiaPpEJScniyHVcXFx+NznPge73R70T/52+onedF7MJvu6nov58+eLc/nggw9EDzx5cPrdd9+NeI7vvPOO+P+ZM2ciKSkJGRkZil5a453zb7KcPXtW0YNaIu9R9eGHHyr+ltaHC7jLr83cuXPxs5/9LCgN19TUiF5QYwUaLpSEhAQYjUZxbikpKdi6dWvQdykoKBD7jNVLaqIWLFiAH/zgB/j5z3+OVatW4eabb0Z2djZmz54tejVOhDxwMWfOHBEImz17NhYvXgwEeirKg4fvvfce9uzZI4KO8fHxyMrKwvr16/HEE0/g3nvvHTNYLLdnzx689dZbYt7F9PR0rFmzBo899hgeeughZGVlqXeZkBMnTqC9vR1nz55FfHw8rr/+esyePRs33nijeEnbwMBA0EOBUORltd/vD+o9J3fixAkReEtISBCBd/m8nT6fL+xQ9DNnzog6SG2q8lprayuamppET1atVouCggJUVFTgiSeewBe+8IWgXoaReL1e8R20Wu2EflP59RoaGhrzmvv9fiBQ5oZ7KdfZs2eDyl2Px6OYTiDU1AIffPBB0H7hnDx5Ur1IGBgYCHmeCQkJ+NrXvoYnnngCX//613H77bdj8eLFSElJUbzYaSynAnOvjtd48qTBYFBMDRFq6hHJW2+9pahLpPm9iYiIiIjo/Bj7bnAMra2tqKioUDT8Fy5cKN72Kr9RHB0dZU+HSXKxXNeFCxcqetidOHEiqPfRRF122WWKm91wQ2vpwpG/8T1aGo0G1113nXrxOZkzZw6+8Y1v4JprrkFC4IVOx48fx0svvQS73Y6qqqoJDXOH6qVOl112GfLy8oBALzIpuBYqeHjgwAHcd9992Lt3r6L33axZs3DzzTejuro66MVF4Rw7dgybN2/Gnj17FAE1jUaD3NxcVFVVwWQyqXebEPlLndLT07FkyRLxEqezZ8+ivb09bM/QqTQ6OhoyIHch1dfX43vf+x46OjpEMC8uLg7JyclYvXo1qqqqwvYwVHvnnXdEGZeQkIClS5eOK9A6XclHLHz44YfiOn/lK19BUVGRSJeDg4NwuVxwOBz46U9/GnJI/mQ6n3mSiIiIiIjOn3MOlCLQI6O9vV38fdlll4leLVJPLATmCQs3vC9ag4ODIig4OjoKh8OBysrKiP+2bduG48ePqw91SZvs6zpRn/rUp8QcrqOjo3jttddELyJ5MGWsc5QPdR0eHsbx48cxODgohuNCNXRxMkjDcS8E+bU5fvw4qqurg9Kt+t+f/vQnxTEuBvKh5++//z6OHTuGo0ePhvwnf9GQwWBQBNjP1W233SZ6cL3//vvYvn07vvGNb+DHP/4xfvvb3+KNN96IqpdgOK+88ooYGi2d+w033ICZM2dGDB6eOnUKjz32GO6++25s3boVb7zxhuidPGfOHKxcuTLk/KWhnD59Gnv27MG///u/o7KyUpHXZs6ciZKSkkm5pgcPHhRTJcycORMf//jHxXHfe+89xct0IpGX1ZGGECPQ01Pqcef3+0VaGRkZEddLr9eH7YU7e/bssPl5qvPa4cOH8eCDD2L9+vWK+Zbj4uJw1VVXYfXq1epdQmpvb0d/f7/4Ozs7G5/+9KcV24xF3vtSr9ePec3lvXXldcr5Fu63Q6BnsvTA7P3338fJkyexcOFC3HjjjUgIvCTsueeew9e+9jVUVlaitrYWzz//fNQ9Ss9FtHny+PHjimlYItVlmZmZijIhVLlCRERERERTZ+KRA5VwN7A9PT3ixk0+591E9fT0iLnoEhIScMUVV8DlckX8F24e00vZZF/X8UpISMBXvvIV3HrrreKGtKurS/FiCfnQzssvv1y8oEXNYDCIYb2QDbF/7733xDyPAJCVlRXV/H8ffvihYhhuqCGsCxcujGoewqkivzZ6vR4ffPBBULpV//N4POrDXFBpaWnIyckRfx85cgT33XcfvvOd74T896c//UlMRXDFFVfgxhtvlB3t3Fx55ZWi19l7770XNJQ2Ozs76p59ochf6jRnzhwUFBSIFx1FEzwcHR3FK6+8AqvVimeffVYE/9LS0iYU3Dx48CB+8IMfoKGhQZHHpJ7856q9vV38VkuWLEFqaioQCDSGmjs2FHlZDQBXX3112N/AaDSKYNnp06dFoLavr098vxkzZoQtQ+Tz5Kqdr7x26tQpPPXUUygvLxfnHxcXh4997GPqTUPyeDx45ZVXRF2l1WrxhS98AcuXL1dvGtbx48dFr9QZM2aELS9nz54tXvqEwLzcE+1xPRnUc/9K5s6dq7h+//rXv9Db24uMjAwxBP/DDz/EW2+9pajjExISFHXK+RApT46OjirS1IIFCxTXXy4vL0/kkw8++CDky+mIiIiIiGjqRBUo/eY3vxn2JRUJCQlYs2aN4gZ2cHBQ9OD8xz/+IW4Q4uPj8alPfSrkcDSTyYQNGzaoFwcZHR3F66+/LgINBQUFuOuuu9SbAYF1Vqs1Yu+Nc5WQkHBB5hCb7OsarYSEBNx0002oqqrCnXfeKXokeb1e7NmzR/HWYPk5XnbZZfjMZz6DW265RaxHYBjymjVrRCDm9OnTipd6yF/ycvnll+Puu+/GokWLxHoEjvEf//EfuOOOO4DAizakXl0IBEXlgeSEhASsXLlS9IS9EFwul+jBdfnll8NisYTs/TVr1iysX78eK1euVK+aVDNnzgz7sCOc/Px88budOXMm5ItF5A4ePCjSR3x8PPLy8iZtaLG8R9qMGTPE29kRuIaf/vSno+65Gcro6Cja29tx5swZXHbZZbjxxhvFi4p6e3uDppuYM2eO4o3xcqdOnRKB/Ehza0pmz54d9lgnT55UzIMbbk7c8Xr55ZdF3tXpdNBoNPjwww9DvnAnHHUPc4PBgI0bNwa9zOqWW27BJz/5SdHj99ixY/jnP/8JAOjo6BB5OT4+Hp/85CeDypBbbrkFRUVFYXsMT1Vey8zMDJlnhoaGFFOhjOch3TPPPKOYy1mv12PDhg34z//8z6DAmjSFw/e//31RB7pcLhHQj4uLwyc/+Ul8/vOfV+yXkJCAu+66S/TwH+/vOhWSk5OxcuVKRdpISEjA3XffjSuvvBIInKcrML3FjBkzxAO6UHVwSUlJxBEM52oieVJelyUnJ+Puu+8OSj+LFi1S1KvhXnJFRERERERTJ/SdpYpOp0NBQQEefPBB7Nq1C3V1daipqcGTTz6JnTt3YsWKFdBqtUDgpmDfvn3iJvvEiRPYu3ev6OWi0+nwla98Bb/61a/wyCOP4JFHHsGvfvUrfOUrXwm62QnH4XCInoZarRZmsxm/+tWvYLVacc899+Dee+/Fjh078O1vfztkb8JzNTw8LG544uPjceedd8Jms8Fms+Gb3/ymevMpMRXXVW3mzJn49re/jfr6evHvd7/7He677z587GMfE4GJEydO4Gc/+xkOHDig2P/EiRP405/+JM5x9uzZ+OY3v4nt27fjkUcewQ9/+EPs2LEDBQUFiIuLw+joKJ577jm8/PLL4hjPPfeceLkMAsGWH/zgB3j00UfxyCOPwGaz4YknnsAtt9wi0iACb9iWAhR6vR6bNm2CzWbDI488gscffxxLly69YPO6IvAyj7/97W/iHLOyskQa2rBhA9avX4+qqio88cQTE3pTejTkQ22vvPJKfP/738cjjzyCH/3oRyEfiqgtXbpUXPOhoSERxAjn2LFjipd2ZWRkKHqknou33npLBCQuv/xybNq0Cd/4xjfE8Pvrr78+5Au5xuPvf/+7eOmMwWCAVqvFhx9+iH/84x9BwbCsrCx897vfxY4dO3DvvffinnvuwT333IPNmzfjc5/7nAgQ/+tf/4r4kjMEeox/61vfUpRx99xzD771rW/ha1/7mkgbg4ODQQHbiTohe6mTxOPxKPJmNJ5++mlF78qCggI88cQTIi8++uij+OY3vymC2CdOnMDOnTvF/idOnMDLL78srq9Uhkj5X9r/sssuU8wDKzdVeW3ZsmX46U9/Ko5zzz33YP369fjhD38oevaeOXMm6G3wkUhTNcjn/E5ISMB1112Hhx9+GHv27EF9fT0aGhpQX1+Pe++9F9dee63Ih6Ojo/j9738vevJqtVp86UtfwhNPPCHqhccffxx33HGHGLb+2muv4emnnxafdyGcPXsWN9xwA37+85/DarXCarXi8ccfxw033KAYsfDXv/4VANDd3S1+b6kO3rx5M9avX49HHnkEd91115QOvZ9InmxqaoLL5RJ56qqrrsK2bdvwk5/8BI888gh+8pOfoLKyUgRPpRfCqV8SSEREREREUyuqQKmcRqOBXq+HwWDAnDlzFG+THhkZgcPhgN1uV+zz9NNPY+fOnSIwFRcXh6SkJFx11VW46qqrkJSUNK6bmhMnTuDRRx8VwVLpeAUFBSguLsbNN9+MtLQ0xMfH48MPP5y0XlaSo0eP4o033hA3PFqtFtnZ2cjOzoZOp1NvPmUm+7qqxcfHY+bMmdDpdOKfvAeg3+/HP/7xDzz44INhg2ROpxO/+c1vxDkmJCRg7ty5uOqqq/DRj35UDJcdHR3F888/j1//+teK/UdHR7Ft2zbFkNSEhATMmzcPV111FbKzs0MGNtQ9s6TfSLoux44dG1cAYyrs3r0be/fuFd9Lo9EgOzsbt99+O+644w4sXrwYs2bNwpkzZ4ICcZOhtbVVBFTi4uKQmpqKq666CnPnzh0z3ahf4tXb2xvV9ezo6FAEvQoLC9WbTMhzzz2nGKKalJSEZcuWYdmyZUhNTUV7e3vEN2tHQ/5Sp/j4eMTFxUUMHsbHxyMtLQ0333wziouLUVxcjOuvv14EtU6cOIHf/va3UQVC1GVccXExPv7xj4vy5t1338WePXsivk17vOQvdQKAN954Y9zzJb733nvYsmUL/vnPf4ryctasWSIvzps3T5QpJ06cwI4dO0RgVbJ7927s379fBLrl+X/evHkYDcxVLc0hG8pU5TX5cYqLi3HHHXcgKysL8fHxOHPmDNra2oLqw7EcO3YMDz74YMgAfEJCAnQ6HWZFeKv7gQMH8LOf/UzREzc5OTmoXjhz5gxee+01bN++Pehzzje3240333xTTGtRUFCgqL/cbjcef/xxkR6PHTuGv//97+K8tVotrr/+etxxxx246qqrcOLECZFXp8pE8uSPfvQjReBfq9XiIx/5CK666ip85CMfEe2pd999F7/5zW/wyiuviH2JiIiIiOj8iCpQ2tDQAKfTie7ubgwPDytuqj744AOcOHECTU1NuO+++1BfX6/YV+JwOHD//ffjpZdewqlTp8QxRkdHcerUKTQ3N+PJJ59U7xbWkSNHUF5ejj/84Q/o7+8POqfe3l40NjZi8+bN6O3tVew7GR599FE0NTVheHhYBABOnz6tGPJ9Pkz2dY3kzJkzeP/99+F2u+FwOPCNb3wDjzzyyJjBE6fTifvvvx/Nzc2Kczxz5gyGhoZw8OBBVFVV4ec//3nIG/bTp0/DZrOhpqYGhw8fxunTp8U19/v96O3txW9/+1s4nU6xz6lTp/C9730Pf/7zn/Hee+/h7NmzOHv2LIaHh/Hss8/ie9/7XsjPOp9GR0fxy1/+ElVVVfjnP/+p+F6jo6Pi2vzwhz9EQ0ODevdzduDAAfziF79QzO83OjqKwcFBxYtHQrnuuutET+UzZ87gn//8Z1TX0+VyieH3cXFxuPrqq89pSLzk1KlTePjhh/HSSy+JPHnmzBkMDAxg9+7dqK+vH3OIezTkL3VCIGATKv339vaK7yq/LlJ6/cMf/oB777037AMGucHBQbz66quKF/Ug8FsNDAxg7969+M53voPm5mbFfueqs7NTlJ3qKTHGQ8qLv/jFL3Ds2DHFm+ujuR6jo6P40Y9+hPr6ehw/flxcT7/fj6NHj+LHP/4xXnrpJfVuClOR115//XW88cYb8Pl8Ioh79uxZnD59Gm+88QZ+/vOfo6qqSjEdSbROnTqFRx55BN/97nfx97//PSgdSed86NAh1NXVYc+ePYr9Dxw4gPLycjQ2Nirqx8k6v8l25swZ/OhHP8JLL70k8teZM2dw6tQp/PnPf8b9998fFED/1a9+hV27dmFgYEB8v9OnT+Oll15CZWWl4kWAk22ieXJ0dBQ//vGPsXXr1pDpMNK+RERERER0fsRlZmaee/SAiCgGFBUVYd26dZg5cyZOnz6NX/ziF2F7lBJReDabTcwj2tXVhfLycvUmRERERERE511UPUqJiGJdQkICli1bhpkzZwIA3n77bfz9739Xb0ZERERERERElygGSomIolBSUoKPfvSjQOCldQcOHIhqugEiIiIiIiIiujQwUEpEFILBYMAjjzyCH/7wh9ixYwe+9KUviRcxvfHGG/jDH/6g3oWIiIiIiIiILmEMlBIRhTFnzhx89KMfRVpaGuLj43H27Fm88cYb+OlPf8repERERERERETTDAOlREQhfPjhh/jwww+BwBu4BwYG8Mc//hEPPfRQyDfdExEREREREdGljW+9JyIiIiIiIiIiopjHHqVEREREREREREQU8xgoJSIiIiIiIiIiopjHQCkRERERERERERHFPAZKiYiIiIiIiIiIKOYxUEpEREREREREREQxj4FSIiIiIiIiIiIiinkMlBIREREREREREVHMi8vMzDyrXii3ePFi9SIiIiIiIiIiIiKii9KhQ4fUi6IyZqCUiIiIiIiIiIiIaLrj0HsiIiIiIiIiIiKKeQyUEhERERERERERUcxjoJSIiIiIiIiIiIhiHgOlREREREREREREFPMYKCUiIiIiIiIiIqKYx0ApERERERERERERxTwGSomIiIiIiIiIiCjmMVBKREREREREREREMY+BUiIiIiIiIiIiIop5DJQSERERERERERFRzGOglIiIiIiIiIiIiGIeA6VEREREREREREQU8xgoJSIiIiIiIiIiopjHQCkRERERERERERHFPAZKiYiIiIiIiIiIKOYxUEpEREREREREREQxj4FSIiIiIiIiIiIiinkMlBIREREREREREVHMY6CUiIiIiIiIiIiIYh4DpURERERERERERBTzGCglIiIiIiIiIiKimMdAKREREREREREREcU8BkqJiIiIiIiIiIgo5jFQSkRERERERERERDGPgVIiIiIiIiIiIiKKeQyUEhERERERERERUcyLy8zMPKteOBEGgwGbN29GWlqaYrnH40FVVRXcbrdiOdGFYrPZkJ2drVjW1dWF8vJyxbLxMBqNKC8vh0ajQUNDAxwOh3oTmEwmrF27Fn6/HzabDS6XS70JrFYrCgoKzvl8aHqTl7eNjY2oq6tTb3LRsVgsKCkpCVknSPlHp9MBQNB3kvKORqOB3+8Pm8fk1McEgNbWVlRXVyu2I1KTpx11eo2UjommSqjyDEDU5WG0pDaI3GR/BlEok3EfGU1bPJptJkJ+/j6fT9HOj6b9TxStUOU0JuFeloiULokepQaDATt27MCuXbtgMpnUq4miYjQaUV9fHxQkJaLJZbFYYLfbYbPZ1KuikpeXp/g7NzcXGo1GsWwiCgoKYLFY1IuJwkpLS8Py5cvViy8655rn6NKk0Wiwbt06/u40baWlpWHz5s0wGAzqVRctnU6H4uJi9eJxsVqtsNvtsFqt6lVEIWVnZ1+QWAnbHzRdTUmgtLGxEWazGWazGRs2bIjqKWAkycnJSExMVC8miprBYMDGjRuh0+ng9/tRW1sr0mhlZSXeffdd9S6TzuFwYPXq1SgtLeXTZJrWMjIy1Iui4vP54Pf7kZ6eDqPRCATyblZWllgXLZfLhdLSUpHPu7q6gHM4N4pdRUVFIj1erJiuY4O8/VJWVgaPxwMAWLBgwaTeHHd1dYmyc/Xq1ZPW644oGtJ9ZGNjIwAgKSnpoi+D1fLz888pT6ampqoXESnIy2kpr2g0Gixbtky96ZRi+4OmqykJlIYjPR2T/kk9e6SefvJ10lMJk8mE+++/HzqdTvHkXHp6sWPHDvGU0WazKZ6+SX8//PDDqK+vF9uqP09+DJqeli9fjrS0tJBDyFwuFyorKwFZWty1axcefPBBRXqS0pz0r76+PmTDLSUlRaQv+TYmkwm7du0KuUxKhzNmzFAdjWj81GWt9IRZXvZJ5a/UY19aJv9b+ifv0TBW2Wuz2cSQoIk83R4cHIROp0N+fj4QyJNJSUlwu90iUJqUlCTOUTo3+Xmre2AYDAbo9XoAQG9vr2IdUTh+vx/vvPMOdDodSktL1asFdZsiUv5ClHWBVP9IbSF1/SM/3rnmObo0ud1ubN++HT6fDxqNBrm5uYAqzUn/1GWiPL1JaS6adrA6HarbQaHa3WvXrhXp3WKxiM+1Wq2KvKM+lvqz5N8h1OdEc/50aWlraxPpOyUlJeg+T95mV5d54drikYTKO1LaktJjqHK7vr4eixcvFsfp6uqCRqOByWQKmy7VnyUdV1oujX4rKCiI+vwpdtXV1aG1tRUAFJ0N1OWoPC3J84/FYgmZX8bKc2x/0HQ2JYHSkpKSoIaNPCNJiouLRSWiHlaZnZ0d1LCbqKuvvlrM63TrrbeKwKskLS0NmzZtku1B0430tGtwcBAulyvoxlZdsGs0GixZskT8bbVaUVJSIv5GYGhNeXm5ovGi0WhQUlIi0pdOp8PGjRtDNpRMsnkXEUiH8s8kmih1TwSNRoNVq1YBADo7OwHZ8HZjIBDp8Xhw/PhxPPzww0FzhBUUFExaeTyWQ4cOAbLzk27+Dx8+LLYZHBxES0sLACArKwsGg0GMPPD5fHA6nYCsgVhTU4O0tDS0trZeEvO50sXjxRdfhMfjQXZ2tghMyplkD3PlSkpKQm4fSjR1QageG1IbimKXy+VCX18fECj3jUbjmGW4xWLBunXrgtrdctnZ2UGBomjbQVC1uyU6nQ4lJSXic/Pz8xXzrsqHK4f6rFBTp4T6HJo+8vPzxUiwgYEB9eqwxtMWlws1glG6R2xubobH44FO9iBXmhaos7NTtF0AoL29HV1dXUhLS8OaNWtkR/sfofKpdI7p6emKbYmi1dHRAb/fD41GM64yO1R+OdepI4imgykJlKoZjUakp6crhgy1traKJ+DSkGSp+7j0RCQ1NRUOhwNbtmwRwy5ra2vHPVGxx+NBWVkZNmzYgAULFkCj0Yju6pWVlfD5fIqnL0QIvPjFbDZj586dyMrKUiyThryFqkykIUO1tbXw+/1hhwxJDSwpfcqHBxOdi/LyclGeSmWc1HCSGlJSmSelw+7ubsybNw86nQ4+nw+VlZWK4Tw5OTkh07FaeXm5KMO7urrGPWzzjTfeEGXyrbfeiqysLAwODqK7u1uxndTTRMpf0g1VX19f2KktznUoHMUen88ngvKFhYWYOXOmYn2oclxK/4WFhVHd9KqPIR9SLamurhZ5WlqvCfSyOtc8R9OHVA6GK8Nvv/12FBYWAqphm2NNk5Wenj6udpC83T04OAjIpg2Q10mdnZ2Ktk9qaioMgelWEGIItnr+avnnRDp/urRIHW6kIE9PT8+4y7Ro2+Jy6il7pHQnjUiR2iF5eXkinfr9fnR0dCiOAwD79u2D3+9HTk4OUlJSFOukfKou85OSknDllVdiw4YNIk+0trZyyi4at6SkpHGV2VJ+kZfF0WD7g6azKQmUyucora6uFj1GNYGh83a7XdG7VD0ESN3z9Fx1d3eLBpSU8aWn5RUVFXwaHQOk4bZSQ0lqDEkNdjV5w0d6wixf5na7MTQ0pNrrf/aTnnrLhwqHIqVFefrs7+9XbUU0ftJQmVBlnMPhQE9PD3Q6HW666SZFQ1/qtSYPNg4MDERMx5Otp6cHfX190Ol0WLZsGZKSktDd3S1utiVSTyopWCTdQLe3t4tt6urqRF0kPZyLNBSOKJS6ujrRO+jGG29UrAtVjo93egf1Mdxud9CDAatsOg2phzSR1BEBgfbDWGX47NmzRXtm3759siMpqYOofr8/6nYQVPlB4vf74Xa74fV6MTw8DMjyirztI+/Vpw6YqYX6HJpeWltbx91BZjxtcTn1aDN1unM6neJB7vLly5GUlCRGqqk5HA60tbVBp9OhqKhIsU7Kp2lpaaipqWGZTpNCeujq9/vh8/miLrPl+UUqi/V6PdvKFPOmJFAajl/1Eh0pkCpNOiytG0+vusTERCQnJysai9GQNwLNZjOf1k1z8nmOVq1aNeZTZTmpUS/1gIZqzkM5KWgD1ZChSA15aeiwvBcF0USZTCYsWLBAlHFSbwo5qafDLbfcgqSkJNFbQ7pplfewT0lJgSbEEM2Jlr3RkIKd0vDjUL01INtu6dKl0Ov18Pl8aGtrU29GdM7q6+vh8/kwZ84cxXLppkIqxxFmmDxky6WbGbVwdYHRaEROTo7ofRTuAR/FFoPsJZW+wJQjY5Xh7733XlB7BgDKysoi3hSPpx00meQdL8xm87gDZnRpUne4UZMeLkntbLWJtMURmM5Ep9OJz5d6yklcLhc6Ozuh0+lw6623QqPRoKWlJexxd+7cKXrwhSrz5SMRzHxxGp0Di8UiOpp1dnaitbV1UsvssfIc0XR0XgKlUg8meY9S+bxHCFRq0jppAms1aRubzSaekOt0OlRUVOD+++9Xbx6SFCCQz79kl70UgaYnl8uFpqYmIDD3SkVFRcjedqHIe/cUFBQoevRINydy6h4Q4YYCS0EePlGmcyGlN3tgAvb58+cDsl7zoeaic7lc4qVJGo1GpEXpgYI8j0jpuLOzEy6Xa1xlb6iJ3aX0Lp1zqLlPpfOAbF7hUKTt5s+fj7S0NHGOCDGBvdSAZA8kmgh5HSInTWUhT9dSWmtpacH+/ftFDw6p/sjJyVE8vIi2LpDWR6q3QuU5mj7kbWV5OmlqaoLL5RqzDH/22WeD2jN2u13xIppQxtsOOhdSMAoh6rfxPOSm6Ud6MCW1b4qKioIeBEvGaouHuiedNWuWYt9QIxylMn/OnDljPpx1u91wOBxB5yj1TI2mPcSXOVE48liGlM49Hg927tw5aWX2ePIc2x803ZyXQCkCc1iE6ykqBS8R6OkZ7gmenDSkQdLW1iYmtI/E4XCgoaEhbCan6auuri5sTxyn0xnxKW51dbWYq0ji8XjwwAMPKBpefr8fL7zwgkhfHo8H27Ztk+31v+RvKESYtE80Xq+88gp6enqAQHpsbGwMSvNut1vMu+jxeNDc3AwEytoHHnggaH7ExsZG0asjmrJXugmYKJfsBSWRApvy7fxh5gmTa21tDdk7hSga0hB8Ofk86hJ/YPSM9OIwqTcqAnOeqgOuoeoC+eeo20B79+4NyqPnmufo0uQLzEUqpbVoyvBQ7ZmhoaGw5awk1H6h2kGTobq6mu0hCiL10ESgnG1qagp5Pzeetrjciy++KMpRj8eDvXv3qjcRnX8ge4AcibrNhEA+tdlsEcts+b0xUTRaW1sV8zVPRpkdTZ5j+4Omq7jMzMyz6oVERDR9GQwGbN68GWmBN8EzeEh08TCZTFi7di00Gg3zJxHRRUQqnwGgoaEhYicLIiK6dDFQSkQUI+QBUgR6I9lstqifLBPR5DMajSgvLw8aTs/8SUR0cZA/wEKg5z/nzCUimr7O29B7IiK6eDAIQ3Tx6urq4ksmiYguQgySEhFNf+xRSkRERERERERERDGPPUqJiIiIiIiIiIgo5jFQSkRERERERERERDGPgVIiIiIiIiIiIiKKeQyUEhERERERERERUcxjoJSIiIiIiIiIiIhiHgOlREREREREREREFPMYKCUiIiIiIiIiIqKYx0ApERERERERERERxby4zMzMs+qFck888YR6EREREREREREREdFF6d///d/Vi6IyZqCUiIiIiIiIiIiIaLrj0HsiIiIiIiIiIiKKeQyUEhERERERERERUcxjoJSIiIiIiIiIiIhiHgOlREREREREREREFPMYKCUiIiIiIiIiIqKYx0ApERERERERERERxTwGSomIiIiIiIiIiCjmMVBKREREREREREREMY+BUiIiIiIiIiIiIop5DJQSERERERERERFRzIvLzMw8q15INB0ZDAZs3rwZaWlpAAC/34+GhgY4HA71poLJZMKqVauwe/fuiNtNlM1mAwCUl5cDqnM8cuQIFixYgKamJtTV1an2HB+TyYQVK1Zg27ZtcLlc6tV0CbPZbMjOzlYsa2xsPOc0M9msVitSU1NFWh+LzWZDf38/qqur1auIiGKKuv0i6erqirpMJbpUmEwmrF27Fk6nc8raMlPZLla37acDi8WCwsJCVFVVwe12q1fTBWCxWFBSUqJYdjHWCeNt/493e6Kpwh6lFBOMRiMefvhhtLS0wGw2w2w2o6GhATqdTr2pgsPhQGlp6aQESY1GI5588kmYTCaxrLy8XFERrFmzBkNDQzCbzbj//vtRWlo6ZY3E6cBms8FqtaoXxwSj0Yj6+noAEGnabDajsbERGRkZ6s3pIhCqDCAiilZjY6Mo68vKyqDX61FfXw+j0aje9JJ2LmWl1WoVgaqpMNXHJ2DZsmXo6elBXl6eetUlQd22p8nD/Pc/bDYbioqKUFlZKeqEyspKIPBgjS4+sXzPeqlioJRigsFggN/vR1tbm1jmcDiwZ88exXYXWmpqKvr7+9WLiYKUlpais7MzqDFeV1fHXphERNOc2+3Ghg0b0NfXh+LiYvVqokuS0WiEXq/Hc889h+Tk5AkFy4mmM4vFAr1ejwceeEDRG9rlcqG8vJw9fokmCYfeU0wwGo0oLy+POIxdGuqj0WgAAK2trXA6ndi0aROeeuop0avUarWioKAAAODz+WCz2eByucSwlN7eXixZsgSQDYFQH9vj8aCqqgpr1qxBamoqtm3bFjQtgMPhwC233IKWlhZxzurjtLa2hgyKSd9X6jF78OBBZGZmiiFG6mF8oaYhUA/pkHoqyodDSMeRzlF9DaTjpqSkiGOph4XIP0d+HtKxDx06hKVLl0Kn04n1LpdrzPOfzsYzZGwi11e6jup0JE9vVqsV8+bNg1arRVJSUtDvHGr7SENp5PnK4/FgZGQEx48fF/ur06M6HanTtJTHNm3apBjCbzQaFXlaOi8AyM7OFnm6uLhYnI86n01mGcAGLRGNRV3XyqmHxE5FWSnVufL6oqurS9F2UdcfmOKyMtSxS0tLFVPRNDY2oq2tDZs2bcJbb72FJUuWoKurC/39/RHbMgjT3kpNTQ06/sDAQFB9LK/vpO86MjKC+fPni6lxwtXNsc5isSAvLw/l5eVhp+CRTzkk/fZer1eRruXpDSHaM2O1i+X5ZrztBHV7R33sUGla2ua1117DddddJ7aVT6Wk/g7y40if2d/fL85JnffDpTkpr8vziLqtNlY5I33/UL+Z1AO0vLw86DvIfyd1+wyqz920aVNQ/lOXh9NdqLIqHPW1ln6jaNr/6jSrzg/q9r/b7R4zbarTlESelnw+H9xuN7Rardhe/T3UeRthyoTi4uKQ+XAq7lmltHvw4EHcdNNN0Gg0Ycsm9bWmixd7lFJMcLlc2L17N4qLi0MOU5PmIm1oaBDDF06ePKnYBoHKISsrC2VlZTCbzejs7ERpaalYn5aWhg8++ABmsxm1tbVYsGABLBYLHA4HtmzZglOnTqG2thYbNmxQNJCkniFdXV1obW3F6tWr8fzzz4v1GMc5yoPC0vC8jIwM0diXKgppiL/ZbIbT6cSqVavEdbFYLIohHbW1tTh9+rTqk0KTX4O2tjasW7cOeXl54jjp6emih4D6c5xOJ0wmEwyyYSNLly6FzWaD2WxGT0+P2Fd9vWKpwklJScHIyAi8Xq96lcJEr6/BYAhKR5WVlVi0aJGid8fcuXPhcDjE9c/MzBSf1djYiJycnKC8Foo6X7W0tGD+/PlivcViQXFxMWpra0Wa1uv1sAaGsEhpuru7W6TpQ4cOyT4hsuzsbLS3t8NsNqOvrw8VFRVAYEoD9fdQn+tklQFERBMxMDAArVaL5OTkKS8rpfqisrIS6enp2Lp1KxwOh6g/li1bJradyrLSZDJh0aJFor7ZtWsXEAjEtLa2oqurC2azWQQSNBoNZs+eDbPZHPZmXS5ceyvc8ceSlpaGAwcOiH2iqZtjVV5eHtrb2wEA7e3tyMrKUlwXKegmpd8XX3wRCLR9Dx06JNL98PCw6Gmtbs+EaxdL+ULKNxaLRXzueNoJcupjm8fIc7fddpvIU7W1tSgqKhLtrvz8fEWbLDExEcuXLxf7SoEi+XeQ8v5YaW68eSRce0/9mxmNRiQnJ2Pfvn3id+js7BTXorOzExs3bowq7U80/00nycnJ0Gq1GBgYUK9SUKf5UG34cO1/dZoNlR/U7f+x0mY46nS5e/duLFy4UKyPJs2EKxOiMZn3rBqNBosXL8Z9990nyqDS0tKQ9/ixdM96KWOglGKGVKA3NTWhoqJCFKwIzIfU2dkpCi6Xy4XHHntMtvf/NHaysrLQ0tIiGu1OpxN6vV40jjweD3bu3AkEPq+np2fS5ouM5hwRaEgNDw+jubkZCARhHQ4H/H4/EKh0tFqtmN8SAJqbmzE8PIz8/HwYDAYUFhaiqalJPK1zjGOaAvk16OjogM/nw759+4DAOQ8PDyMlJQUINIg7OzvF5zQ3N2NkZETR2JSfx759+8QNISnZbDbY7XbY7XaRts/l+qrTkcvlwpEjR5Cbmyv27enpUVT2lZWV4lhtbW3w+/1jNn5D5au6ujp0dXWJbfLy8tDW1iY+y+12o6WlRTTGpcaYlO4AoKamJujmOpyuri7R4G5vb4fP54PT6QRU3yPUuZ7PMoCIKJKpLiul+sLlcqGvr09RB7S3t0Ov15+3slKj0Yj65ZlnnlH0LlLz+/2iHRKNaNtb0fJ4PKIuRZR1cywymUxITk4W02S1tbVBq9WK6yKtl7dfH3vsMbhcLjgcDtTU1ACBdN/d3S16garbM+HaxVK9L+Ub+Ryp0bYT1Mab55xOp0h3DocDfX19ot1VV1cnzkHKg/I809XVJXpyqvP+WGluvHkkXHtPusbS987Pz8fIyAhcLpf4HeTXwul0Kn5jGj+LxSLa/1JnIHWaD9WGD9f+jyY/qNv/Y6XNcNTp0uFwKKbJGyvNRCoTojGZ96z+wGhQt9strplUJ9KliYFSijl1dXWKJ60GgwF6vR69vb3qTRWSk5ORmJiIkpISUSFVVFQgKSlpygvBaM8RADIyMjA0NBS2ERaqN6Lb7cbQ0BAyMjKifloZDbfbjeHh4ZDnIn2ngoICcT1ramowf/58USlRaPIeRJLy8nKYzWa0trYCk3B9MzIykJaWhpqaGrF/QUGBuPEIxWQyYdeuXSJvjPWyNETxdDxc2pdfg7HS/HgMDAzg5MmTIXvrXsgygIgoFKlO12g057Ws7O/vDzun+lSXlQ6HA7t378batWtht9sVPZ3OVbg6Z7Kca908neXm5mLOnDmoqKgQaWbOnDmip3Ko9quc/IGxNPwcUbaL5Z9rt9tRUlISNsgRqZ2gNtZnj0WexwwGA3bs2CHOUT4MPZSBgQGMjIwgPT190tNcuPaeFKSWgmp5eXnigUmoa+H1ejEyMjLh84g1oa5XXV2d6AEpBf8n0oaXjDc/YAJpE1GWtWOlmbHKhPHgPSupMVBKMUmqyFNTUxVBwki8Xi9OnjwphrRJ/85HF/pozxEAent7gyqzlJQUMcQoVJBN0tvbG7ISngrSd5K/xVf6Jz2VpNBcLhdGRkaQn5+vXiWc6/Xt7e0Vw5vk/8INyTIF5k3dsmULzIGhNz6fT71ZkFDpTWqQYIy0PzQ0BK/XGzLNT4ULWQYQEakZAiNAWlpasH///pgqKx2BUUKVlZUoKiqatGBppDpnMpxr3TxdGQK9kNXXpba2VvRyi9R+tQXmxpT2kx4aI8p28TvvvCOmiZD+hZr2YbxCffZ4SIEtg2x+Ren85CNvQklJSYFWq0VfX9+kprmx2nsdHR1ITk7GnXfeCb1eL3oIhrsWIyMjYR+Wk5I6EB3OeNvwcuPNDxNJm4hQ1sqDuWOlmUhlwmRiuR2bGCilmGAymVBWVib+lhpk0pPa9vZ25Ofni3lIjEYj1q9fL7ZHoJA8fvz4BZtHKppzRKCCS0pKEsNepBspiRRkk88VZrFYkJ6ejra2NlEJFxUVKYY7rVy5Er29vUhPTxfL16xZIyannoj29nbF51B03IFhY8XFxWL+qVDO5fq2tbUhPT096ptP9VPd/Pz8qHqUSo2PwsJCka+WL1+uSFfqtG8wGGAymXD8+HG43W60tbUhMTERa9asEfuUlZXBYDCgv79fMV9WaWlpVOcVyoUuA4iIJEajEQ8//DCGhoYUQ4Jjoay0WCyibvJ6vRgeHlZvEtFYbRn1dQzX3kLgu2o0GvHg0mQyRXyIiXOsm6crabivfNgtVA+GQ7Vf169fj9tvv13RM01q40uiaRdrtVpFvpgskfJcKPK2kNQ2dzqdQaNvjEYj0tPTFfsuWLBAkWaLiopEb87JTHNjtfccDge8Xi/MZjO6u7sVQ/TV12LNmjXQarVwuVziwbk0PFz6DqS0c+dO6PV67NixI2w6Gm8bXm68+SGatBlOf3+/Yn5fk8mEBQsWiPVjpZlwZYLRaByznB+vycxDdGlgoJRigtvtxtKlSxXd5bu7u8VcPnV1dXA6nVi3bp0YRvL++++rD4Pq6moMDQ0phjLI5zqNxBWYH2bdunURK7dwoj1Hh8OBhoYGFBcXw263Y+vWrTh06JAYjuF2u1FVVQW9Xi++Q1FRkeINgtXV1ejs7BTDLtauXQufz4e6ujoxib3dbseMGTPg8XhUZxC9uro6xefY7fZxXZt9+/YhPz8fu3btEo3DWOEIvPAiJydHXDu73Y6cnBwxV8+5XF+X7AVo0r6RrrM0D5KUNwoLC6PqUYrAtAHyfJWXl6d4Gq1O++r863K5YLPZFNdiwYIFcLvdYu4h6dg9PT1Rn1coF7IMIKLYJh/Kfv/992P37t2KHkKxUlYODAyIukn6jlKw2Ol0Ij09HfYIQ/LHasuor6O8vaU+vsvlQlNTk/htTCYTXn/9ddmnBTuXunm6WrZsGbxer2iHSqSH91JgU91+ve6663Do0CG0tLSI32Dr1q0YGRkRx4imXbx9+/ag9lS49DMekfJcKL29vdi6dSvsdjuKi4uxe/duERCS8oTdbkd5eXnQA4ITJ07AZDKJNNvZ2SnyxWSmuWjae+3t7dDpdOjo6BDLQl2LrKws8XZ0qRNAfn6++I4HDhxQHFed/2KRO/ByIHX5um7dOjz//PMivYynDS833vwQTdoMR32/qS4/o0kzocoEr9c7Zjk/Xueah2L5nvVSFZeZmXlWvZCIiIiIiIiIppZBNnxZCm6Oh9VqRWpqalRDq88Hi8WCwsJCEdAiIrrUTFqgVCrg1V2aPR7PmIWkzWZDdnY2WltbxVPvi825fD8iIiK69FgsFhQXF6OhoWHS5lZUk+bWm+z2j9FoRHl5OZqamsZ14x2qvSNv65hMJqxdu1bM7ydpbGxUfI7FYkFJSYlim66urgt6Iy/1aLyQ50BEpDadAqUTrXuIiC4mUz70Pi0tDZs3b466W/KlZrp/PyIiolhkMBiwdOlSnDhxQsyZdilxuVwoLS2d8I2q/KUFQ0NDiraOz+dDZWWlWF9bW4vi4uKgodUej0fxQogLfRNfXl5+wc+BiGi6stlsQcP+iYguRVMSKJUa142NjQCApKSkiBPflpeXw2w2T3pviqky3u9HRERElxapXn/xxRexaNGimK7npXmPw71ZVpozOTk5mXNvERGNkzTv5ESDi9XV1RfFQ6BL7Z6eiCicKRl6Lw2/krre63Q6NDY2IiMjAwUFBXjnnXeg1WqRmJgIm82G0tJSxdB7+VD81NRUZGdnw+fzwWazobi4GAUFBQAgth9rmJjVag363N///vf4/Oc/L86trq4u5HcYz/dDYKJ9+WerpxWQ/j58+DAMBgOGh4fx4osvwmQywe/3o6mpCcXFxdBoNEHD+tXD2KRrIk18Lh1bIp/KQLoGEvX3IyIiov9ltVqBwBtmQw2JVLc9pDo7OTlZtA3ky6W6XF4fezwejIyM4Pjx46K+ltf1fr9fDPuXPu/QoUNYunQpdDodurq6sG3bNnEeobaXn7d62HyoKY/C7bdixQps27YNBoNB/L/6xSvyaQSinaNO+rzXXnsN1113nbie8naKvL2FEG28efPmQavVIikpCQ0NDQCg+J7SseTDU6Xz6+3txZIlS4AQUwPIfwuPx4Pe3l7Mnj37oghIEBEREdHUmJIepZL8/HzodDr4/X4MDAyI5fPnzw+a6zOUgoICEfjT6XQoLy9Hfn6+WJ+TkwOj0Yjk5GQkJibK9vyfIfGbNm1SLJN/7ptvvonOzk4AQF5eHhBoiCclJcHj8Yg3+kUS7vtF4+qrrxYNfolOp0NJSYlo2Mu/g9VqDZrrS7omRqMRVqtVESSVs9lsiiApABQXF7PXBxERUQgGgwHz5s1DR0cH3IG3LkttBWn95s2b0d3dLYaVHzp0CAi0DZqammA2m1FZWYnExEQsX74cCNTlWVlZYjh6S0sL5s+fL45rsVhQVFQkhrU7nU6YTCbF9D5Lly6FzWZDZWUl0tPTsXXrVjgcDpjNZvT09GDZsmViWzmTyYRVq1ahoaFBnNvJkyfVm4UU7o3Uav39/UhNTVUvjsptt90mvkdtbS2KiopEOyXSNQWAuXPnwuFwYPXq1XC5XDCZTHA6nWL7/v5+2Sf9r7S0NHzwwQfiMxcsWCDe7Kv+LRwOB6655hr1IYiIiIhompmSQGlJSQnsdrsI7PX09ChegiDNbVVaWhqx0d3V1QWz2YzW1laxbMuWLaitrYXf74dGo4HBYBDzcEk3K1LvTr1er7i5UH9uR0cH/H4/0tPTYTQakZubC41Gg+7u7oi9H8b6ftGQ5u3asGEDBgcHgUDPkdraWsV3SE9Px+23346srCwg0PvDbDajrKwMHo8HOp0OxcXF4rjyecOqq6thNBqRnp6uOHZrays0Gs0lOecaERHRVFu+fDm0Wq1oo3R0dCA5OVkMv5eCdDt37hT71NTUwO12o66uTvSEdLlc6OvrQ0ZGBgwGA7KystDS0iLaGHV1dejq6hLHyMvLQ2dnp/jc5uZmjIyMKIb9NzU1weVyiWPL2yDt7e1BbR/JsmXL0NnZKbZ1uVx47LHH1JsJUlvHbrcDE3wBUlpaGmpqasRxpCBkKE6nU5ybw+FAX1+faKeEu6aSUO0wab3L5cIzzzyjWCfxeDziN3Q4HOjp6RH7qX8Lh8OBtrY2xf5ERERENP1MSaBUrrW1Nahx3dfXFzFAKpF6APT29gIAhoeH4fV64Xa74ff7xXZGoxH19fWiIa7ueSlRf67UKNbpdLjpppuQlZUFv9+Pjo4OxX6RhPp+0QgVjPX7/WLZwMCA+I6zZ89GYmKi4tzcbjeGhobEvk6nEz6fDzqdDhUVFeKGxGAwQKPRQKPRYN26dbDb7UG9S4mIiOh/5eXlKYJ869atw5w5c8SDyYyMDAwNDQXV4wj0Nt2xY4dok0ijPZKTk6HVasOOQDEYDNDr9SgoKBD71tTUYP78+UhJSVFvDgTaSeF6S8pJx5baU9GQv8wp2nZOamqq4nzUL3Maz5Q/8uOEu6ahuN1uVFVVISsrC3a7PegFU9GYyPUiIiIioulhSgKl8sa1eu6rqVBcXCzmCVX3QB3Lvn374Pf7ccsttyApKSlkrwS1sb5fYmKi6HmSnp6uXh2W1EMWgOjdOjw8jLfffhvDw8OKXqBSI14i71Ur9U4pKioSQ/rkPUojnTsREVEsk6b0UdeZjY2NyMrKgsFgQG9vb8iem9KQ/JaWFrGfVCd7vV6MjIwogp7yulx6ACpvY0j/xhNgDEU6trwX5mQzmUxITk6G0+lUr5oQaQh/pGsajjvwYhSz2QwEpiCaCPX1mui0AkRERER06ZiSQOmFIg0TG0+PSZfLhcHBQeh0Omg0GrS3t6s3iZrUC1Tq1Xn//ferN4koVK/P7u5u7N+/H93d3UBg3lapl0laWhp8Ph+cTiesVmtQT4vh4WH86U9/Qk9Pj+LYdrsdO3bsCLrBIyIiinX5+fkYGRkJGvnS1tYGrVYLo9GItrY2JCYmYs2aNWJ9WVkZFi9erOg1Kn9gKgUrCwsLRf27fPlyxZzt7e3tKCoqUgy1nyzt7e3Iz88X834ajUasX79evdmEWCwWrFu3Ds8//3zQdYuW/LpYLBakp6fD6XQG9cQd6yG00WhERUWF+DuaHrdq0ry00lz4CASCFyxYoN6UiIiIiKaZaREolYadIzDMa+/evepNwnK73WhpaQEC+0bzEqdw1PNXtbW1oa+vT7FNJD6fDy+88IL4u6urS/T6rK6uFvOWSjweDx544IGQNyU+nw/bt2+H2+1GeXn5mL0viIiIYp3BYEBhYWHI6XFcLhe8Xi+WLVsGl8sFm82GnJwc8QBywYIFePbZZ3HkyBHxYLK8vBzDw8PiGOXl5RgaGhJD+vPy8hT1c11dHTo7O8UUOpP5YLOurg5Op1OcW0VFBd5//331ZlGRT/Njt9tRWFiIsrKyc+r52tvbi61bt8Jut6O4uBi7d+8Wc7FGuqZqXq8X8+bNE+eWlZWFbdu2qTcbU3V1Nfr6+sT3NJlMeP3119WbEREREdE0E5eZmXlWvTCWSEO60tLS0NraekGGo5tMJqxduxZ+vx82my1k4JOIiIhoupEPrT+XQOv5YLPZ0N/ff0HaikRERER0fkyLHqUTIb0YQD2EnehcSC8Wi/RmX6KLkclkwpNPPjklQ36nktFoxJNPPimGE9tstgnPR0hEFI7FYsGCBQvG9cLPi526/BwvtnnoUmC1Ws+pXcB2BU1n51oPXEg2mw1WqxUI5PPJGoFDhFgOlMr5fD725KRJIb1U62LvFUN0vpzvAGx5eXnUb+gmIgrHYrGI4fvSdAANDQ1jvvAzlrDNQ7GA7Qqi8TvfAdjq6mps2LAhaNokoomK2UCp/I2opaWlFzRI6nA4sHr16gt+HkRERETnk9Qeu9iCbXV1dTCbzeLf6tWrGSQlIiIiigExP0cpxQZpDrTXXnsN1113nXjLcGNjo7g5MxqNKC8vh06nAwIvy6qqqoLb7YbVasW8efOg1WqRlJSEhoYGAMDatWuh0WjEsZqbmxVzrVksFhQWFqK3txdLliwBAi/pkj+ZtlgsKCkpEZ/Z29uL2bNn8+k1hWU0GrFp0yY89dRT4sZdSmtVVVUAgM2bN+PQoUNYunQpdDod/H6/ojeUOr0fPHgQmZmZ2LZtG1wul2L+ZqjSrfRZIyMjmD9/PhobGzEwMBCUHwCItC0/hjzNAxDzQ0ufGem81ed1+PBhXHnlleJaWK1WpKamory8XFyngwcP4qabboJGowkaQcD8R0SXAqvVioKCAvG31H6Jppwba9+nnnoKKSkpog6ReuRYLBYUFRXBZrOhuLhYHEM6vtfrVbR5pDn35fXAxRYAp4tXuLYBAmk4NTUVAJCdnR20Ppp99+3bhxUrVoh2DgKjXlatWoXdu3cDIdr1dXV1inYFAsN9pXOQ3ysQnQ/qubLl5bjL5TrndjRUdYa8PgnV/m9ra1PcT7S2tqKjo0ORl6R8kpycHPFeO1Ieh+q8PB4PRkZGcPz4cVRXVyvug5KTk8esF+X3QX6/H6+88gqWLFmiKB8otsVsj1KKTbfddhscDgfMZjNqa2tRVFQkhgTk5+ejqakJZrMZlZWVSExMxPLly8W+c+fOFb1/XS4XTCYTnE6n2L6/v1/2Sf8rLS0NH3zwgfjMBQsWiPm8pJuQyspKmM1mOBwOXHPNNepDEE3I0qVLYbPZYDab0dPTA5PJBIPBIBoHUnovKytDRkaGaNBIjaju7m6xXq/XK+ahS0tLw4EDB2A2m9Hc3BwyP9TV1aG2thanTp1CZWWluMnIzMwUab6xsRE5OTmKofnhzlt9XmazGVqtVjS4QtFoNFi8eDHuu+8+lJWVYXh4GKWlpQDzHxFdIgwGA2bMmIGysjKYzWa0traisLBQzMUWqZwba19JW1sbtFqtoizOy8tDZ2cnDAYDFi1aJMrKXbt2KfZF4HNC1QNE0RqrbZCdnY329naxPj8/X7Thx9oXgakiRkZGkJ+fL5bl5uair68v6na9xWKBXq8X+am5uVm9CdEFdy7taKvViqysLJHGOzs7RX0CVfu/rq4OpaWl6OzshDlwv3Ds2DE4HA5s2bIFp06dQm1trRgSP9a9dqQ8rj6vlpYWzJ8/X+yrFqleVN8H3XfffVi8eLG4DyICA6UUa5xOp3ha5nA40NfXh9zcXCAwzE7q+eByudDX14eMjAyxb09PT9CwO2m9y+XCM888o1gn8Xg82LlzJxD4zJ6eHrGfdBMiPblyOBxoa2tT7E80UU1NTSJt7du3D1qtFsnJycjPz8fw8LBo4LvdbjgcDvj9fiDQgNBqteIFd263Gy0tLcjLyxPH9ng8QTcI0eQHAKisrBTn1dbWBr/fr7hpD3fe6vMCgPr6evh8PvG3mt/vh8PhgNvtFt9Dr9fDYDAw/xHRJcHtduOhhx4SvdY6OjpEuYgxyrmx9pW4XC4cOXIEy5YtAwL1QHJysnh5lUajEeX0M888E7bHTbT1AJHaWG2Drq4u0U5vbm7G4OAgUlJSotoXsraM9KDAYDAgKysL7e3tYpto0m9iYqLIP3v27GFvUrroTLQdLeWJlpYWka6dTif0er148BCq/S/1BHW73dizZ49indxY99rh8nio86qrq0NXV5fYVy1SvTjWfRARGCilWCd/WmwwGLBjxw7x4gap238obrcbVVVVyMrKgt1un9DbMA0GA/R6PXp7e9WriKZURkYGhoaGwjbuU1JSMGfOHFRUVIj8UFJSIhoYauPNDyaTCbt27YLdbkdFRUXEHqFyKSkpGBkZgdfrVa8at/T0dOY/IrpkWGQvl1q3bt24er5Eu29HR4e4mc7Pz4fX64XD4YDD4cDu3buxdu1a2O12xegCyXjrASK1ibYNMI595T2njUYjRkZG0NzcHHX6raurQ1NTEyoqKrBr167z9qIaoskwVjs6OTkZiYmJKCkpEXVGRUUFkpKSQrb/EXjZGQDY7fYx3zo/nnttueTkZGi1WgwMDKhXTchY90FEYKCUYp30BMwQGIrQ0tIihiJEekoF1QvBEJgzZiLkT9IgOyeiqdLb2xsU9ExJSRE3zwMDA3jnnXfE8BbpX6S3SUabH0wmE1asWIEtW7aIoTeReoTKDQwMBPWEMhgMYW/6o8H8R0QXO2nuNalMrq2tjbrny3j2dcmGJufl5Sl62jkCUw9VVlaiqKgobLA0mnqASO1c2gbj2dflcsHr9SI3Nxe5ubk4fvy4aNdEm37rAi96a2howKpVqxgspUvGWO1or9eLkydPora2VtH+H+tlhuXl5TCbzeju7sbmzZtDBksncq8t8Xq9GBkZET3IIetwNFGR7oOIwEApxRr5vFwWiwXp6elwOp1BT6qMRiPS09NVe/8vo9GIiooK8XeoeYzG4na70d3drZhHyWQyYcGCBepNiRSkBoM0bYTRaERRUZF6s7AGBgaQlJQk5gUyGAwoLCwU610uF7RaLdasWSPbK7zx5Af10+z8/PywPT/U3G43NBoNiouLxbJly5ZNqGHT19fH/EdElwR175fc3Nyoy73x7OsODE8sKiqCVqsVwxItFosIjHq9XgwPD6v2HF89QKR2Lm2D8e67b98+LFq0CIsWLRJDkKNNv2VlZSIw6na7wz50IJoq/f39yMrKEvezpaWlEdO73FjtaLfbjePHj4s5TcdiMBjw4IMPim0jjdIa7722nNvtxtDQkOI+fvny5eKFVOPV0dER8T6ICAyUUqzp7e3F1q1bYbfbUVxcjN27d8Plcom5udatWwe73Y7y8vKQNwISr9eLefPmiaEDWVlZ2LZtm3qzMVVXV6Ovr08McTaZTHj99dfVmxEpuANz6eTn54v0euDAAfVmYTkcDjQ0NKC4uBh2ux1bt27FoUOHRIPf7XZj+/btyMnJEWncHma4JcbIDw6HA16vFxUVFbDZbOLGu6amBna7HYWFhWF7fqi5XC7YbDbFefX09ES9vxrzHxFdCpxOJ9LT00W5N2/evKgDNOPdV5qnWd7TbmBgQNQXNTU16O7uDnqbfaR6gGgs59I2GO++Us9pr9cr5nGMNv2ePHlS3CtUVFTg+eefj9jTjmiySe+9kNL7eNrB0bSjq6urMTQ0JI5vjzAVhdvtxuzZs8W2RUVF2L59O9xut+LeeseOHfB6veO611YrLy9XnFdeXl7UPVLVHA4HnE6nmGJAfR9EBABxmZmZZ9ULiaYbeXd/deP+YmOz2dDf34/q6mr1KiKaYsx/RBTLjEYjNm3ahKeeeooBIJqWLqV7AiI6P6RpaqqqqsRDQopt7FFKdBGxWCxYsGCBeMssEZ0/zH9EFOtKS0vhDbzEiWg6kqYVUr+5m4hikzSFWXd3N4OkJLBHKcWEi/XpscViQUlJifjb7/ejoaGBNyhE5wHzHxHR/5DKQ4/Hwx41NC2ZTCasXbsWfr8fNptNDLsnothiNBpRXl6umNu1tbWVo8lIgYFSIiIiIiIiIiIiinkcek9EREREREREREQxj4FSIiIiIiIiIiIiinkMlBIREREREREREVHMY6CUiIiIiIiIiIiIYh4DpURERERERERERBTzGCglIiIiIiIiIiKimMdAKREREREREREREcU8BkqJiIiIiIiIiIgo5sVlZmaeVS+UW7x4sXoRERERERERERER0UXp0KFD6kVRGTNQSkRERERERERERDTdceg9ERERERERERERxTwGSomIiIiIiIiIiCjmMVBKREREREREREREMY+BUiIiIiIiIiIiIop5DJQSERERERERERFRzGOglIiIiIiIiIiIiGIeA6VEREREREREREQU8xgoJSIiIiIiIiIiopjHQCkRERERERERERHFPAZKiYiIiIiIiIiIKOYxUEoxxWKxYMeOHTAYDOpVU+pCfa6c0WjEk08+CZPJpF4VxGKxwG63w2KxqFcBgWPV19fDZrMBAAwGA3bs2BF2eyKiS0Gkskxehlqt1jHLdJPJhPr6+qjK3ImQymn5P6lMPp9MJhOefPJJGI1G9SoiIiIioksOA6VEFJLP58PSpUtDBgKKi4uh0+nUi4mILmlutxvd3d0oLCwMKvvy8/MxMjICl8uF6upqbNiwAW63W7GNnMPhQGlpKRwOh3rVpPF4PCgrK4PZbIbZbEZ5ebl6EyIiIiIiGgcGSokorCuuuCKol5DRaMSiRYvwzjvvKJYTEU0HHR0dSExMDCr78vLy0N3dHTE4SkRERERElzYGSimmqYcuWq1WAIDNZhP/L5Evs1qtiv1CDdMM5dOf/rTYRz1sM9IxbTZbyP2kIfDq84dsCKm0btWqVWJdNIaHh3H06FEsW7ZMsTw/Px9erxfHjx9XLCcimg5cLheGh4eRm5srlhmNRiQnJ6OjowMIMZ1KqDI61HQn6nJeXmZbrVbYbDbFsdT1ULSiOZa6/pPqHPVy9XB+db2zdOlSxXp13SPf32q14qc//Sl27NiBXbt2Tdm0BEREREREE8VAKcW0zMxMVFZWwmw2o7GxETk5OTAajWhvb0dWVpa4CTaZTEhOTobT6YTBYMCMGTPEcMfW1taQwzTV0tLS8LGPfUwMkRwaGsKmTZuAwI1luGNaLBbo9Xqxrrm5GQjcrJaXl6OpqQlmsxmVlZVYtGgRTCYTDAYDNm/ejO7ubvF5Wq123MPl9+3bh+TkZHEzazAYUFhYiPb2dvWmRETTgjT8Xl4HFBcXi2H3auHKaDWr1YqcnBxR51RWViInJ0fxUCw7Oxvt7e2iTsrPz48YTExLS0NNTU1QsBNjHMtisaCoqEicS21tLU6fPg2LxYLi4mLU1tbCbDajrKwMer1eBFnV9U5ZWRkyMjKg0WiAQB0hr3uk/eXnNXfuXDgcDqxevXpKpyUgIiIiIpoIBkopplVWVoob37a2Nvj9fhgMBrS1tUGr1Yqhl7m5ufB6vXC5XHC73XjooYfE8MuOjg5otVokJycrjq3m8Xiwbds28bcUhDQajWMeMzExUfz/nj174Ha7kZ+fj+HhYXFT7nK5cOTIEeTm5sJoNEKr1cLpdIrPq6+vh8/nE39H49ixY/B6vaJn1fLlywEgbCCAiGg6kA+/NxgMyMrKQktLS9hh96HKaDnpGE1NTaLOcblc6OzsRF5entiuq6sLdXV1QKCcHRwcREpKilivpp6jVNoXEY4lPfCSn4vD4cCePXuQl5eHtrY2EcB0u91oaWkRQWN1veN2u+FwOOD3+4FAIFVe90j7y79jT08PA6REREREdNFioJRiztDQkLiJNZlM2LVrF+x2OyoqKkSPS3nQ0WAwYN68edi3b584hnxo4rp160RvGvWQRPXwejm3242RkRHxd7hj1tXVoampCRUVFYqhihkZGUG9iQoKCpCamoqUlBSMjIzA6/WK40/Uvn37sGjRIhiNxgnN0aceahrtNAVERBeKw+FAX1+f4sFTW1ubejMgQhktl5ycDK1Wi4GBAcXy3t5e6PX6sPXEVAh3LgaDAXq9Hr29vYrlAwMD4sFdRkaGog5VS0lJwZw5c1BRUSHK/JKSkojfUT49QLjrR0RERER0vjBQSjElIyND/L/JZMKKFSuwZcsWMQxS3uOyo6MD8+bNQ2FhIRAIniIQ0CwsLBS9eGpra0VvGpfLhdLSUtG7J9JbkQ0GA7RaLTDGMRG4ETebzWhoaMCqVatgMpnQ29uLrq4u8VnSv/LycsWNrfzzpODreDgcDni9Xnzuc58T0w+MR3V1teL85D2eiIguVtIULEuXLhUjCsIJVUbLeb1ejIyMhOwdGinwOBXCnYvb7cbQ0JCinpQMDQ3B6/WGDOympKSIumVgYADvvPOOopfrWHVheXm52I7D8YmIiIjoQmOglGKGNPRRml9T3esyPz9fMYendFN8yy234Pjx4+ImT92jJjc3N6oAZFpamhi6bjAYYDKZcOTIEbhcrojHLCsrEzfdbrdbBFDb2tqQnp4esoem2+2GRqNBcXGxWLZs2TLFPHI7duwIuW8o7e3tWLJkiThfIqLprq2tDYmJiViyZEnEeZnDldFy7sC8p0VFRWJKF6PRiKKioojHngqhzsVkMmHlypVob29XzGUq1VVSHTgwMICkpCRFXSY9TESg3tRqtVizZo1YRkRERER0KWGglKY9KShYU1OD7u5uxZxtAMTQ9cLCQkWPUrfbjePHj+OKK65Q9KJ0Op1IT08XQwXnzZsX8sZYzePxYOnSpbDb7aipqcHQ0BCqq6uBMY558uRJrFu3DvbA9ADPP/88HA4HXC4Xdu/ejeLi4qBhiy6XCzabDTk5OWJdT0+P+H5ST9NwQ0nVmpub8c4774g3PodTUlIiPs/OYfZEdAlzuVzo6+uDz+eLWFaGK6PVqqur0dnZKYalV1RUoKmp6Zx62aunX4k03Yuc+lzWrl0Ln8+Huro6OJ1O8X2kelOqqxwOBxoaGkS9s3XrVhw6dEjUV263G9u3b1fUPawLiIiIiOhSEpeZmXlWvZCIpjeLxYKMjAxx80tEREREREREFOumJFBqtVpRUFAAAGhtbT2nYIzRaER5eTk0Gg0aGhpC9tKQPq+rqwvl5eXq1URE04rNZkN2drZ6MXw+H2w223mbHkE6j0ut7LVarUhNTb2g5yzNkbxt27bz9nsR0aXHYDBg8+bNSEtLU6+Cx+NBVVVV2PlfJ5P8PM61bX8+Sefd0tJyTr23z9XFUO9cKtRtHKmNIf2WiYmJQW0ddZ1qsVhQUlISMq3abDb09/cHLZe7GH4v9XcKxWKxoKioCDabDfn5+SgpKVGs9/v9Ye+fpwN1+SgvE202GxCYB3u6kN5pEarcl9JsfX09ysvLxxyxMpXXx2QyYe3atYqp6c5nfSUXTX4fL6l8kbuQec1oNGLTpk146qmnLsjnT1eTPvRemgdSkpWVFdUwsMkkDbWerLenSm8yr6+vF/N5ERFdKNLLT8rKyuDxeNDY2Aiz2YzS0tKwjenJZrFYoNfrUVZWNiWNLCIi+p/pDDZs2ABz4KWTp06dQm1t7ZgvyZpsa9aswdDQEMxm86TecBJJpPstAIqXwb377rvi/mtkZAQAFHPwh+Pz+bBo0aJpe+9mNBpx6623Yvfu3aLt5/F4FC/Tk6ZSsVqt6t1DMplMePLJJyflmtlstqg/d6KWL1+OlpYW8X2HhoawadMmAMC2bdug1+un1dQv0tzp0jzhEvl7OKQXC0cKkiJwLzGV7Xefz4fKysqoXup4KTrXvEYXv0kPlC5fvhxpaWnweDzw+XxISkqalMI2Eumt2lJmT05ORmJionqzCTNM8G3hRETTlfoFZERENH2lpqaiv79fvZhoUhgMBmzcuBGdnZ1BwZvKykoRCNRqtTh69ChycnLG7AwzPDyMoaEhlJaWqldNC8XFxfB6vRF7kNXV1aG2tnbaBozr6uoUAcF9+/YhOTkZRqNRvLgwLy9Psc+lTJo7Xf2djEYjtFptxPnUaWpN97wWiyZ96L00XKK1tRWpqani/6Wnz1JXbL/fD7fbjauvvhqNjY2oq6sL6sbc1dUluo9rNBo4nU4UFRVBp9Mpum/Lh97v27cvqKu3esiG1D1fPUxV3U3c4/Ggo6MDt912mzgWAtMJqL+beooAt9st/n799dexZMkSsa36e4YaFkJENBb1kELp797eXlxzzTUYHBxEVVUVli9fHrLMkbY/dOgQli5dCp1OFzR0RD6VilRmlpaWKobFSWW4fFv550A2XGhkZATz589HY2MjAKCwsBC9vb1YsmSJ+OyUlBRxvuph/fLyU36u0rCTt956C0uWLAnaT04antTf3y/OV759pLpCKut1Oh0Q4juGOjfIppGR9jt48CAyMzMjDqkjIpKTyjlpeF24ck9dFktltLT9wYMHcdNNN0Gj0QS1heXDnj0eD375y1/innvuEeWhVLa5XC5FOaku86xWK+bNmwetVoukpCQ4HA7ccsstivqmq6sL27ZtE8dRH0M6jroOkoZWq+uUUD2opPL8tddew3XXXSfOV769unyW32Oo7w3k+4U7N6jqA5/PB7fbDa1WG7ZeinXRDDOXt3kyMjKQlZWl+J3UQ+8LCwvxu9/9Dvfcc49iGHI0Q3Ev9naCuv2HCMOy1duqz136Xur703D3z+r2lXq/5557Drm5uUFlQ0pKSsg8q95ffvxoyiw59TVQp4vpwCKbbkH6TvKpItS/d7gyTD29xGT+DpGuezTHUp+z+r5FnbbC1RkejwcjIyM4fvz4mHkwXH0aijqdSdTXXn2+6mNO9Huq1x8+fBhXXnmlYuh9uPppPN8z1k1qj1Kj0Yj09HT4/X50dHSgvb0dCDP8XqfT4eqrrxZ/W63WoLke5DQaDUpKSkTlkZaWhjVr1qg3C8toNOLhhx8WCQqBc9i4cSMMBgMsFgvWrVs36T1HNRoNlixZIv4O9T0LCgpgmUbDAojowsrIyMB9990nhrlkZmaK4S+NjY3IycmBUfa0c+nSpbDZbDCbzejp6YHJZILBYIDJZMKiRYvEvrt27QICw3VaW1vR1dUFs9ksGlw5OTli28rKSuTk5CjKtrS0NBw4cEDsIy374IMPYDab0dbWhnXr1iEvLw9msxm1tbVIT08XvUakxqH0GU6nU5wrAuXt7NmzFSMMwpECAebAFAZ6vR7WwHAZo9GIQ4cOiXXDw8NimF9paSk6OzvFumPHjgFjnJt089PU1CT2y8jImPT6hohij7rcMxgMmDFjhhgS2NraisLCQkU5uXjxYtx3332ifJN63FlkU6qYzWY0Nzejr68PGzZsQFdXF1pbW7F69WoRJJWG4ktl3qpVqxR1y9y5c+FwOLB69Wo8//zzgKy+qaysRHp6OrZu3QqHwwFzoP5ZtmyZ2N9qtSIrK0ucT2dnp6J3YKg6JZzbbrtNfE5tbS2KiopE3ZKfny/K58rKSjG0VaoHnU6nWCf1qo10bur6YPfu3Vi4cKHifEgpJSUFIyMj8Hq96lUh7dy5EwhMCRHJsWPH0NTUhKKiIkXajMbF3E5ITk6GVqvFwMCAelUQt9uNoaEhZGRkiABLd3e34ntZLBbUBXrEnTp1CpWVlYqgW6jtEeI71dbW4sSJE0FlhhS8UedZi8WC4uJiMZ2I+jpjjDJLzmAwoLCwEN3d3SJ4Jf1XHYe4lEm9RvPz84FAWszJyRFxF7lIZZjcZP4OEp1Oh4qKCtjtdtjt9qiPZTKZsGrVKjQ0NIhzPnnypEiLkeoddbnc0tKC+fPni89Vp9dzuY8IJdq8hnP4nurjms1maLVaESNDiOugrjvP9XvGikkNlObn50On02FwcBAulwttbW0Rh99L8+q1tbUhJycHCETSpR9d/cNJ23d1dQGBYUBqDocDW7Zsgc/ng9/vR21tLcrLy8W5SfNJlAXm9ktKSsKtt96KwsJCIBDplz5/w4YN+NnPfoba2lr4/X4x10akJ5ChSN9p586dYv5W6btIvarUXeiJiCaqpaVF8YSzUjZsra2tDX6/X9FobGpqEuv37dsHrVaL5ORkIFCZSts+88wzQU+GIZsbSX4cl8uFzs5ORdnm8XjQ3Nws2/N/lkk3PB0dHfD5fNi3bx8QOMbw8DBSUlKAQDnZ2dkpPqO5uRkjIyOifvH7/WLfsXR1dYmy3O12o6WlRTzUczgcqKmpEeu6u7sV9Y30/263G3v27AHGOLf8/HwMDw+L7+52u+FwOOD3+8UxiYgmQl3uud1uPPTQQ6IO6OjoUJTpfr8fDocDbrdblH16vV6U84mJiWLbPXv2KOoSiTEwzFOaTxKBMm94eFjcvANAT0+PoqcPZPWNKzCEVL5Ne3u7OBepXpHXZ06nE3q9XpT5oeqUcJxOp/gch8OBvr4+5ObmAqrhu9J5ZWRkiH2l/3e5XHjmmWfGPDd1feBwODgkdpJJ9Wg0w1zr6urQ19cX1bymchd7O2FkZCRk/oxEyrtOpxOQfa9w96GRtjcEApPytp/D4RDfNxR1ns3Ly0NbW5vIm+rrjCjKLMh62A0NDSnu071eL0ZGRkQ7cjqQyijpN1OnnVDUZZjaZP0OclLcRIqryH+XSMdatmwZOjs7xbm4XC489thjY9Y7ocrluro6ETfCGHkQIerTcxEp7wCY8PdUHxcA6uvr4fP5ANk9Wbj6CZP8PaezSQ2USj98WloaampqUFFRAZ1OB41GIxojEp/PJxoNhsAcoD6fT/Gjy/n9fvHULNSTkLFIBYR0bjU1NaJ3aWJiIhITE6ck0Ui9a6GaO7WkpAR2uz2odykR0WQzmUzYtWsX7Ha7KJej4XA4sHv3bqxduxZ2uz1sz/dwPRt6e3sjNqLU3G43hoeHQzb8DQYD9Ho9CgoKxNPpmpoazJ8/P2wDWP697XY7bIE3fIYyMDAgXhKBwNA8aT/5EFbpAZ7dbseOHTvEDX2kc+N8rkR0PlksFlEWjWe0VF1dHZqamlBRURHxhaihev+5ZT1potXf3x+2TS+1maX2slR/JSUlha1T5OV2pPOH6l7CEHgJrLSv1JPQ7XajqqoKWVlZijok0rnl5eVBr9ejt7dXHJ/GNjAwoAjoR8PhcMDr9Ubs1SbZt29fyHlNY6GdIH12b28vUlJSMGfOHEVPv5KSkrBttUjbL168OGTbL1ry85Ibb1owmUzYunUrWlpagjpZTVfyuVjz8vIUvWjlwpVhcpP1O0yG9PT0kOeCKOqdcPcikrHyYCjjKR8wjrx2ww03TPh7hlovF6l+CpXHKbxJC5QaA8Puw5E/kVBzu93w+/3Q6XTiSbTBYEBZWZl603OmfkPZ6tWr8ac//QnDw8NBAd2ysrKw5yyRnhhKPVajJfUoDdd7lohoMpgC8wRt2bIF5sDQDumpYzQcgWGTlZWVKCoqChksjfTEfrIa/lIjQV12miMMuZTOPZpyNiUlBVqtFpDNXybt19raqti2vLwcZrMZ3d3d2Lx5MxD4nuHOLVTAOCUlJergBRFRtCyBudOktq40KipadXV1MJvNaGhowKpVq4ICSxjjBjrUjd9EeL1enDx5UgwFlf7Jh/GqSWXzWNtB1n43yOaUk/aV90Byu93YsGEDzGYzEKgfIp1bQ0NDyIBxqFFw9L9cLhdGRkYUPZKjUV9fj/T0dCxdulS9SsHhcKCzsxMmk0nU9dLyS7WdoNVqx7xPReBFywj0ShsYGMA777yjuBc2R3gjeaTtDx06FLbtF41ID1eGhobCBoLk5G3ccG3BkZGRsMGzS5WUX2677TYkJyeLTlmhhCrD1OvP9XeYLH19fWHPZax6J9S9iBS4xHm4j8A48tr+/fsn/D1DrTfIXjweqX6KVCdSsEkLlEqBQnU3a6mBFm74PWRdyCHraVlTU4MFCxaoNx0XjUaDdevWwWazwel0wufziR6lUoTdarXCHRgygcB8odK6xYsXK44nzbVhtVrFk+js7GzY7XYUFRWN2RB1BYaiQvY97XY76uvrw14bIqJzoX7yOJ6HOhaLRQRGvV4vhoeH1ZsAgcZHd3e3Yg4wo9GIoqKikHMmTVR7e/uE5hkLZcGCBSIAIJ1rS0sLACie8hoCQ1ik/3/wwQfFjYk8IBDp3AYGBpCUlCQaUIbAcDUiosmm7pmWm5sbMdgiV1ZWJspFqRNDKNJNurwnn8ViQXp6+qQNMXe73Th+/Lhi/rhzIZ+nVTpXp9MZ1AtJ3vHDaDSioqJCHENq+491bv39/Yq5wE0m0znf00x37sCw1JKSEsVchgBQUVERsm5FIC02NTVhyZIlY6ZzaZof+ZyFkVzM7YRQQaFQrFYriouLxTBnl8sFrVY75tyukkjbh2r7mUwmrFy5Ur1pWO3t7cjPzxfX2RCYU/P48eMhA7dqy5Ytw5EjR8RQajWj0Qi9Xh/VsS4l0rX/xCc+gZGRkYjfP1QZpnauv8NkUp+L0WjE+vXrx6x3pECovKxfvny54v00kfLguRpvXjuX76nRaBRTiSxbtkyUf2PVTxS9SQmUygvzvr4+RWZ1uVwYHByERqNRTNCuVh54OYhcuMw8FnlAUr7MZrOF7UlVXV0t5guVSA1Nh8OBnp4exbqdO3fC4/EAgeH1TU1NYRuUctXV1UHfk4hoqkhzFkkPiAoLC8OWg2oDAwMoLi4WD6+6u7vDPnWtrq5GZ2enGGJSUVGheMvsZKirq1N8hl02rG28Tpw4AZPJJM61s7MTdXV1ips1u92OrVu3iqF2brcbs2fPFteyqKgI27dvh9vtjnhuDocDDQ0N4lpu3boVhw4diqrOICIaD6fTifT0dFEOzZs3L+qy5uTJk1i3bp0oF59//vmQPVDcgeGcer1efE6R6i3Mk6G6uhpDQ0OKDg7q3lDR6u3txdatW2G321FcXIzdu3fDFZgr9ciRI+J7l5eXi4eCXq8X8+bNE5+dlZWFbdu2AWOcm7o+NJlMeP311xXnQ8Hq6upQGXgRpHRN7XZ7xEAQQsxDGI50TxdtfriY2wlSoEw9t6i6Q1BqaqqiJ5nb7cb27duDrrH0UNwRmM6goqICNpttzO3VaX3t2rWijblv3z7k5+dHnAajrq4OTqdT5D+prTme94HIOzmpzy8lJQVerzdi+rlUdXR0wO/3hx12jzHKMLnJ+B3U1C9zirZjmPpcKioq8P7770dV75SXlyvK5by8PEXZECkPjte55rWJfk8ppiU/bk9Pj+LeLlL9RNGLy8zMPKteSEREREREREQXH6PRiE2bNuGpp54K+UAj1hlk02pM5kN7IooNk9KjlGi6s1qtF/2TGKPRiCeffDLsU1siIhqbQfVil4vhafylUAcREdH543K58Pzzz2PVqlVR9dSLNZs2bcLQ0BCDpEQ0IQyUEhEREanIJ/wvKyuDXq+PeugYERHRVKurq0Npaem0HFp+rsrLy8d8+Q4RUTgMlBIRERFF4A68Nbavr08xgT4REREREU0vnKOUYoY0V4309ruuri7xpNFqtSI1NRUAkJ2dDQBobW0Vk1iPtd5isaCkpASS8eyLEPs3Njairq4ORqMR5eXl4i3l8v3U3+fw4cO48sorOVcREdE5iDSvmcViQWFhIaqqquB2uxVlt9/vR0NDg6L8tdlsotz3+XxiMn6r1YqCggKxXaQ6wefzwe12Q6vVijorXN0gnXtvby+uueYaDA4OinMlIiIiIqKxsUcpxQTp5rG7u1sxjFJ68xwCQcz29naYzWY0NjYiPz9fMd9npPWZmZmorKwU63JychTDMyPta7FYUFRUJPavra3F6dOnxY1wU1MTzGYzKisrsWjRIphMpqDvYzabodVqxU0zERFNvoGBAWi1WiQnJweV3U6nU5TPCARJAYgy+sUXXwQCD89ycnLEftJbnqX6SH3c3bt3Y+HCheIcItUNkoyMDNx3333YsGEDg6REREREROPAQCnFBKPRCK1WC6fTCQSGUba0tCAvL09s09XVJXoPNTc3Y3BwECkpKVGtr6ysFPMDtbW1we/3i5vlSPsaDAYUFhaiqalJ7O9wOLBnzx7k5+djeHgYzc3NQGDS9iNHjiA3Nzfo+wBAfX09fD6f+JuIiKZOXl4eOjs7Rdnd3NyMkZERGI1GmEwmJCcno76+Xmz/2GOPwev1IisrS1Hmu1wudHZ2ivpIfVyHw4G2tjZxnEh1g6SlpYUBUiIiIiKiCWCglGJCSkoK5syZg4qKCvEG45KSEuj1ekVAc6JMJhN27doFu92OioqKqHt2JicnQ6vVYmBgQL0KGRkZSEtLQ01NjTjngoICpKamIiUlBSMjI/B6verdiIhoikhlr0ajgV6vR0FBgSifa2pqMH/+fKSkpIQto8OV+b29vdDr9bjhhhug1+vR29urWC8XqW4gIiIiIqJzw0ApxYSBgQG88847KCsrE8MgzWbzpAxLNJlMWLFiBbZs2SKGQUbbs9Pr9WJkZETRc1XS29uLrq4uxfmazWaUl5crhn9KDAYDNBqN4hhERDQ5pBEALS0t2L9/P4aGhtDY2BhURtfV1YUsozFGmT80NCSOm5GRoVgnD4JGqhuIiIiIiOjcMFBKMcHlckGr1WLNmjXqVedM3XMoPz8/6h6lbrcb3d3dKCoqEnOamkwmrFy5Em1tbUhPT1fMoyrfT6PRKN6+vGzZMgZKiYimgNFoxMMPP4yhoSExjUp7e7ui7JZzuVwYGRlBaWmpWLZ+/XokJycHlflGoxFFRUVob28HAPT39yvmuTaZTFiwYIE4TqS6gYiIiIiIzg0DpRQT3G43tm/fjpycHDFU0W63T8qNpjRPnDQMsrCwMOoepQBQXV2Nzs5OMS3A2rVr4fP54HK5sHv3bhQXF4vz3bVrF0wmE1wuF2w2m+L79PT0jOtziYgovJKSElG+3n///di9e7ei12ZdXZ2i7Lbb7dixYwcMBgPcbjeqqqqg1+vFuuuuuw5erzeozK+oqEBTU5MIwKrXm0wmvP766+JzI9UNRERERER0buIyMzPPqhcSERERERERERERxRL2KCUiIiIiIiIiIqKYx0ApERERERERERERxTwGSomIiIiIiIiIiCjmMVBKREREREREREREMY+BUiIiIiIiIiIiIop5DJQSERERERERERFRzGOglIiIiIiIiIiIiGIeA6VEREREREREREQU8xgoJSIiIiIiIiIiopjHQCkRERERERERERHFvLjMzMyz6oVyixcvVi8iIiIiIiIiIiIiuigdOnRIvSgqYwZKiYiIiIiIiIiIiKY7Dr0nIiIiIiIiIiKimMdAKREREREREREREcU8BkqJiIiIiIiIiIgo5jFQSkRERERERERERDGPgVIiIiIiIiIiIiKKeQyUEhERERERERERUcxjoJSIiIiIiIiIiIhiHgOlREREREREREREFPMYKCUiIiIiIiIiIqKYx0ApERERERERERERxby4zMzMs+qF42UwGLB582akpaWpVwEAfD4fbDYbXC6XetWksVgsKCkpUS9GY2Mj6urq1IsvGlarFQUFBejq6kJ5ebl6NU0Sm82G/v5+VFdXK5ZLabelpWXK04nJZMLatWuh0WjEMo/Hg6qqKrjdbsW2k8VqtSI1NZVpaxqy2WzIzs5WLJuq8k6ejoxGIzZt2oSnnnoKDodDvSnRJS9Um8bv96OhoWHS07y6DrJYLCgsLJzSeoEuLeo0Inc+y+NQ7eypbruGa7vR9BTu97ZarcjKyppQuWg0GlFeXo6mpqag/DNRbFvThRKpjXC+0uX5bCNJTCYTVqxYgW3btk1pPIlI7pLoUWo0GlFfX4/6+noYjUb16klhtVpht9thtVrVqyaNxWKB3W6HzWZTr6Ip1t7ejpycnKD0YzQaodVq0dbWplg+2axWK9auXYuGhgaYzWaYzWaUlZVhaGgIycnJ6s2JotLa2irSk9lsnrSbgPPFZDLhySefDMqXRBeDxsZGkbdWr149ZTcAU8VqtbK9MQ243W50d3ejsLAQBoNBsS4/Px8jIyNTfuNos9lQVFSEyspKkScqKyuBwE0z0VSqrq7Ghg0bggJD0XC5XCgtLRXtI6PRiCeffBImk0m9KdFFr62tDYmJiVi+fLliucFgQFZWFtrb2xXLJ5vJZMLWrVvR3d2tuP9oa2tDSkqKenOiS9qkBErdbjc2bNggGk4+nw9+vx+1tbUwm80oLS09p0acwWBQ9MKLxOPxoKysbNyBg9TUVPWiSZeRkaFehOrqapjN5il/+hPrpEBofn6+Ynlubi68Xu85pc+xmEwmLFq0CFu2bFHcaLvdbpSXl0/pZxMREdGlraOjA4mJiUEPlfLy8tDd3T2hAFK0LBYL9Ho9HnjgAUV7xeVyoby8fEo/m4iI/pfL5UJfXx/y8vIUy89Hxx+DwQCTyQSn0xnU67u6ujrqmAvRpWJSht7LSUMcNBqNogu2upu2NBzfYDCI4citra2orq4Ww9F9Ph9cLhcKCwsVnyFtJycNCQo1lFkaoip9JgCUl5dDp9Oho6MD6enpiu7j0nalpaXIzs7G4cOHYTAYMDw8DLvdji9/+cvQ6XRie/XQI/XwpK6uLgBQDJOVuqjn5uYGDb1X7y+fukB+fZ1OJ4qKiqDT6c7L9AaXOvlvjxDD2aRrK/22UjqTtuvt7cU111yDwcFBjIyM4Pjx44p0qD6+fHmooUShSGlfok7rY62Xpx2fzwe32w2tVht0TnTpC5eu1EPULBYLiouLRXmsngJCnc6lslBeJkUaeh9pP2mIUG9vL5YsWaJYry7n1OUo0YWirhvk1OW81WpFTk6OqH/V6VqaDmOs+iXc0Ptw+0mfLT3kldoX0nqp3aM+D7o0Semku7tb/P7qslie9uTDIKXt3nrrLSxZsgQ9PT2YMWOGIn2HOr58eai8oKauC9RDMcdaD1Ubx+PxhGxr0fQVrl0jLxcBYPPmzTh06BCWLl0KnU6Hrq4ubNu2TaQvedqSp+GBgQFF+0d+zyhPe+p7Krat6WJisVhQVFSkSKPydrq6rFW35+fNmwetVoukpCQcPnwY6enpithJqONLy8MN+1dTt4XUbfyx1qvbPgcPHkRmZiaH3tN5NSk9SsdiNBrx8MMPK4KROp0OGzduhMvlgtPpBADk5OTgzjvvRE5ODvx+P3bv3g2PxyM70tjS0tJQU1MDu90uhupv27YNHo8HOp0OxcXFKC4uFhXrL3/5S/Uhglx99dUio6anpwf1bs3OzhZD9q1Wa9AcTuMRan+dTicCFBKNRoOSkhJxXtJ3o/Da29uRnp4uruPy5cuRmJiItrY2USA3NTWJntGLFi1SDM3JyMjAfffdhw0bNuDAgQPIysqCITDkzGg0Ijk5Gfv27RPbI3BjoNfr0dvbq1geinTDLQ1tq6ysRE5ODiwWS1TrpYpNWr97924sXLhQ9Sk0nRQUFMButyvKu+rqagwNDWHNmjUwGAwoLCyE0+kUQdJVq1aJKSAqKytx8uRJxU2yOTAthF6vF2krnGj2S0tLwwcffACz2Yza2losWLAAFosFdXV1qK2txalTp1BZWckbDrrolJSUiPy1Y8cOGAwGbNu2TaRxo9GIRYsWYffu3SJIKi+Da2trcfr06ajql1Ci2S87Oxvt7e0wm81obGxEfn4+TCYTysvL0draiq6urnGNrqGLkzT8Xt7uKC4uFsPu1WnP6XTCZDKJbTUaDWbPng2z2YxNmzahu7tb0SPJGOiNJLXHJcnJydBqtRgYGFAsV5PqgqGhIZgDI7qcTidWrVoFo9E45nrIHvJJo8JaWlowf/589UcRAQCWLl0Km82GyspKpKenY+vWrXA4HDCbzejp6cGyZcvUu8DhcGDLli04deoUamtrxXB+ddrr7OxEaWkpwLY1XYTUoySNRiNycnLQ3t4eVbt87ty5cDgcWL16NZ566ilotVpFjCEvLw+dnZ1BAcmMjAwMDQ1FFSQtLi4WI4ulc5BiJWOtV7d9ysrKkJGRERR/IZpq5yVQmp+fD51OJ4bFl5WVwePxICkpCUajEXV1dejq6oJOp8Pdd98NnU6HtrY2OBwOcTPt9/vh8/lQWVkZ9KRxLG63Gw6HA36/HwUFBaK3an19vZg2QOr12draGjRVgHTeGzZsQENDA1avXi0aeq2trUBg6L5UUEnHkbYpLy8XNy0IPDUJNd+ZITC/iHx/6VqFCoRK86dJ534+pg+4lKkrFnlFkJ+fj+HhYTQ3NwOBoQ1HjhxBbm6u2L+lpUVUDtJ20hwx45knzGQyYdeuXbDb7di1a5e4mcnKykJTU5M4hsvlQmdnJ/Ly8sZcjxAVm8PhmNIhGHThycsZebm1b98+LFq0CBs3bsTQ0JAIkixbtgydnZ2i7HG5XHjssceCbpLdbjdaWloUN9KhRLOfx+PBzp07gUCa7OnpCTkNCdHFRj5HqXRDLaXxwsJCfPWrX8WRI0dEr6XCwkJFGe1wOLBnz56o6pdQotmvq6tL5O/m5mYMDg5ynrBpSj78XmoTSO0Sdf3f3NyMkZERcfPr9/sVD3KdTieSk5NF0H080xBZAvPtyx/QSXVBfX292K65uRnDw8PIz88fc736+wAQ9wZEoUhlrSswFLmnp0e0bdrb26HX68WDgkhCpT2n0wm9Xg+j0RiUt9i2pgtNSvNSW1veVoimXS7PK1K7QnqwYAx0/Ono6BDbh2MwGLBjxw5RH0iBzry8PBHHgewcpAd9Y61Xt33kcRyi8+m8BEqlm2Kpt2dNTY2idykCN/ZSBvD5fEFPtaMln6NUHjiQbtAloZ6UhCOf/0ke5LLb7Yph0IbAXKoTPf/k5GQkJibC7/eLAsrtdmNoaEi9Kfx+v3jC39/fDwBRNwpilTywqK4IMjIyFL2Rpd82XPDZHejdIQ9SyhtZ8u2GhoYUgSHpKZ40ny8i9Nro7e2FXq/H4sWLI66/4YYbou65StOfw+HAkSNHYDAYxI2pIULv5pSUFMyZMwcVFRUi/ZeUlIxZpkx0P6JLWV1dHYaGhqDVasVDgHBlOCZQv0gmuh9NTw6HA319fcjNzRU3w21tbaJsl48wqKmpwfz588MGzV0uF7xeL3Jzc2EwGDBv3rygETEA4PV6MTIyojhOXV0dzIEe01K7PSUlBSMjI/B6vWI7eftnrPWR8g/RWPr7+8W90HhJ917yEQQVFRVISkpCXl5e2HYT0YW0b98+JCcni2C+FKuYSLu8o6NDHCs/Px9erzeoMxdk95zScdyyd9RID7XC3WsMDAxAq9Vi8eLFEdcnJydH3XOVaKqdl0CpRP2iJXmvymXLloku1TqdTgx5mCwmkwkLFiwQf0vD08ZLeuIidReXP+12u93w+/3Q6XSi16LBYEBZWZnYJhKv14vh4WFoNBrRY0QqcGhySJXBbbfdpugB2tvbK4Yoyv9FGg4sHevOO++EXq8P+4S5vb1dMVwulFA3I5KhoSEcOnQo4vr9+/cHBWTBXsYxy2g0IisrC8PDw6IneqigvWRgYADvvPOOonyW96ILZ6L7EV3KTCYT9Ho9tFqtGFUQqQyfSP2Cc9iPpi+pPbF06VLRA1Qq2+U9oKV/Um/jUKRjSe8BCNV5QP1QOBz5Ta5ab2/vmOtD5R+2f+l88Hq9OHnypLivk/6tXr0aDQ0NIdtNbFvTheZyuTAyMoLbbrtN0fFnIu1y6Vj5+fnIy8tDe3u7ehMgMDJTqxqmrxbpXkO6n4203uv1BgVkEXgYx6H3dL6dl0Cp0+mEz+cL6hkhn9czOzsbHo8Hu3fvht/vx4IFC4ICmTqdDhUVFWK/UEJ9htFoxKpVq6DRaNDY2Iiuri5oNJqQ89cUFBSIoUThaDQarFu3Dna7XfGyBKkrPGRzm9XU1CgCtAjMKSYNuZaTGqSQzT0o9b6daC9VUpIqg0984hOKnsJtbW1IT08fc05GOYfDAa/XC7PZjO7u7pA3GZD1Pnr44YfDpivpty8qKhLbGI1GFBUVob29fcz1CDxRz8nJEevVDwcoNhgMBmzcuBEtLS3Yvn27Yk7D9vZ2xUMio9GI9evXw+VyQavVYs2aNaqjRTbR/YguVUajEStWrIDD4cBTTz2FW2+9FUajMWQZbTKZsHLlygnVL5hgvUTTW1tbGxITE7FkyRLFzWx7e7si7UVDGp7/mc98BgcOHAh7E71z507o9XoxT28oUttK3snBYrEgPT0dbW1tY66Xbq4LCwvFZyxfvjxo9BnRZHO73Th+/LhiTl85tq3pYiS1OT7xiU8oOv5MpF3uDgx9LyoqglarFUPe1VwuF55//nmsW7cuYrtEfa9hMBhgMplw/PhxuN3uMdcPDAwgKSlJPIg2BKY2Ijrfzkug1OVywWaziWHGchaLRQxfb2lpwZ49e9DW1gaNRiMmeVcPmx+PWbNmYePGjWKO1ObmZtTX18Pn8ylewiQf+h+JfLuuri4x76hEPhepRBoOIgWMI6murkZjY6NimcfjwQMPPBA2EEfRkyoW+fQGCKTR3bt3o7i4WATZQwWz1drb26HT6cacy6W8vBydnZ2KoRAVFRVifjsEfnv5NhUVFWhqahI9Qsa73mQy4fXXX1ecB00v8qGW0oOhTZs2AYGbYKlRs3btWphMJtTV1cHpdIoHPRUVFXj//ffhdruxfft25OTkKI4XqSGEQH6ayH4S6WFDRUWFeJs40cVCPhTTbrfjP/7jP7Bx40YxLE2a4kJ62aK6DF67di18Pt+E65eJ7idxOp1IT08fV56ki5v0QN7n8ylGsdTV1QW1MSIFNiELEEE2h3so7sDwyqGhIUVHhHXr1uH555+HK9CrtaqqCnq9XqyXvzV5rPUItJPkn5GXl8c5SmNQqHbNZHIF5mRct26dyCPSSzDl6Vtqk6jLdbat6WLR0dEBv9+v6Pgz0Xa5VAdIwcpw6gLvjpG3S+x2O/R6vZiKSH2vUVNTg+7ubvGOmbHWOxwONDQ0iM/YunUrDh06FFWchmgyxWVmZp5VLySi6FgsFhQWFqKqqipixUJERER0MbFarUhNTeV0DkREMcxoNGLTpk146qmnQs5PShSLzkuPUqLpSBr6HuolTkREREQXK5PJhJycnJAvcSIiothRWloa9iVORLGKPUqJJsBmsyE7Oxutra1iqAARERHRxcxgMGDz5s1IS0tDY2NjxBc+ERHR9GWxWFBSUgKPx8PRkUQqDJQSERERERERERFRzOPQeyIiIiIiIiIiIop5DJQSERERERERERFRzGOglIiIiIiIiIiIiGIeA6VEREREREREREQU8xgoJSIiIiL6/9m729C2sjxP/N9ikfq/smo77YfyOMnFdu2QTmM710tK0J6dotLBM4N2bpshgnIg8QozDJ3AsPELFagq4GK8pGKIXjjDQtzMUkZjB5IC1QvPbQSF8broGTzgKtAtW1QqM1Py7nXicclWUjOyptpiqf+L1jl775VkyY7t2Nb3A4bkPunpnHN/93fPOZeIiIiIah4TpURERERERERERFTzmCglIiIiIiIiIiKimsdEKREREREREREREdW8V1pbW793LrQ6e/ascxERERERERERERHRofTo0SPnoqpUTJQSERERERERERERHXccek9EREREREREREQ1j4lSIiIiIiIiIiIiqnlMlBIREREREREREVHNY6KUiIiIiIiIiIiIah4TpURERERERERERFTzmCglIiIiIiIiIiKimsdEKREREREREREREdU8JkqJiIiIiIiIiIio5jFRSkRERERERERERDWPiVIiIiIiIiIiIiKqea+0trZ+71y4G4qi4ObNm2hqasL09DSi0ahzkyNDVVWEQiF4PB7kcjlEIhEYhuHcbNcikQja29uxsLCA0dFR5+qqiPfocrkwNTUFXdedm1AZ4vu32s8yq6oqbty4gY8//pi/E+2ZgyzH4XAYjY2NCIVCLM90rIlYZn5+vqguHWTZDwaD6Ovrsy1LpVIIhUK2ZXspEolgfX1913EJ7R9rjC3k8/l9if+cdcDa/hPtJ8Y1RNVjnEC0v2qmR2kwGEQsFkMkEnGuKtLd3Q2PxwMA8Hg86O7udm5CR5CqqpicnAQABAIB+Tc9PY2Wlhbn5kSH3sLCgq0s78fFxH7SNA0ffvghVFV1riJ6KUzTxPLyMnp6eqAoim1dd3c3tra29vTGaSmRSAS9vb0YGRmRdXtkZAQoJLGodk1PT8sycfny5SOX1AmHw1XF4VS7GNcQVcY4gWj/1UyitNpEmKIo6OnpQT6fx5MnTwAAXV1dzs1eOsMwMDAwcCQD5ZdlYGAAyWSy6E5bNBrlnTEiIgIALC0toa6uruhCt6urC8vLyzBN07Z8LwWDQXi9Xrz33nu2hKxhGAiFQvv62kRERHS4MU4gOhgHligNh8OIxWLy78GDB9A0Tfbyi8ViCAaDQCFZOT4+LpdZ/y/+wuGwPLboLTo+Pi7vokQiEbldJBKBz+cDALS3t8vXLkVVVZw4cQL5fB6ff/458vk8mpubbRdMzmOL9yTev/Uzib9yd9DF92J979bP88YbbxR99mAwKF/D+lms78X5HdU6TdNQX1+PeDzuXFVEfP/lfjvn7zs5OWkrH87y2t/fb9ufaD+Fw+Gi9sTaTmiahgcPHhS1E85y6yz35Wy3XzAYxPj4ON5///2i9cFgEIODg/jhD3+I4eHhql+PaL8ZhoHNzU10dnbKZaqqor6+HktLS4DjPGGtX6I+vP/++3jw4AH+6q/+Cn/1V38l4wPrNs5ztLhROz8/X/FCx1nvSsU1zrjL+XrW9ePj43C73bb1dDREIhFb+xkOh21xiTOmKRerOstHOeX2E2VyaGhIrnfGqD6fD+3t7bb3QVQJ4xqi39pJnOBsqytdr1aKIxgnUK05sERpY2Oj7f8ul0smkJLJJGDpuSmSlel0Gk+fPsUHH3xgm5cJAHw+X9VB3U50dnbC5XJhbW0Ns7OzeP78ednh9yLgE8RQPUVR4HK5bNu2t7eXfL/xeBy5XA4nTpyQjZf4Hubn53H58uWiz15KOBwumteH/p+GhgZsbW0hk8k4V9kEg0H4/X5MTEwgEAhgaGgIXq9X/nZqYW7YZDIphzokk0lcv35d/vY3b97E8vKyXO92u+VUDkR7yefzFQVAo6OjyGazuHLligyo4vE4dF2Hpmno7+/H1NSUHKbz7NmzonIryn2lC9lq9mtqasJvfvMbBAIBTExM4PTp0wgGg4hGo5iYmMC3336LkZGRop7eRC+LGH7f1tYmL8z9fr8cdh8MBm1D3uLxODRNk9uiMIrlnXfewZ/92Z/hn/7pn2wjU1RVhdvtLrpxV19fD7fbjY2NDdtyJ1HvstmsPM/E43H09/fLOCIcDqOjo0O+x5GREXR0dMi6GQ6H0dbWhqGhIQQCAczPz+PUqVOOV6LDpq+vz3bRqigK7t69K9tdVVVx5swZPHz4sGRZnZiYwL/927/JWGZmZkaWjzNnzhRdJDtVs9/58+cRiUQQCASwsrIi60YoFMLCwgJSqRQCR3BINR0MxjVE5VUbJ1R7vVopjmCcQLXswBKloVBIVsSRkRHkcjm4XC4oioKlpSVbz02RrFxeXsbJkyflQ5VEoDc9PQ0A6OjosN0ZKUcEZyhMclxuuLqiKGhrawMALC4uyosllBl+L4I98X7q6upQX18PXddx+fJl+XnFazuTxSj0XFlbW4PL5UJnZydUVUVzczNyuRwSiYTcLp1Oy4Zqu+DS+j1xOPn2rD1wxV3frq4uJBIJWT5M08T8/Ly8YO7u7sbm5ibu378vjxOPx+F2u6GqaskL4MnJSeRyOfl/or1inctrYGBADsGZm5vDmTNncP36dWSzWdlmXLhwAclkUpZvwzDwy1/+sqjcinJfqt2zqma/dDot64uu61hZWal6KhSil8U6/F7EBqIHR1dXF5LJpKxvs7Oz2NrassUj1t4e8Xgc9fX1MpnU2dmJTCZT1VynQUtvQJE0EPVOzLmNwnvY3NxEd3e3fL8zMzPyNQzDQDKZRFdXV9HnQWEKmlQqJY9Hh5N1jtJr167BNE3Z7vb09OBP//RP8fjxY+i6LhNK1nKg6zo++ugjGcvMzs4ChfLx+PFjWy/qUqrZz/p6c3NzcLvdqK+vl+uJtsO4hmhnSsUJ1V6vVoojGCdQLTuwRKk1KTU8PGzrYSdOMh6PBz/96U/R1taGfD6PpaUleeJZW1uTJ8uNjQ3k83m5/15RCz1ZYblrL4bsO4ffA8D6+jpgeT8i8escAiKOUc7c3Bzy+Tza2trw05/+FB6PR35esa6pqQljY2Mlu8XD0jPV4/FgeHgYMQ5rstnY2CgK1kXyXiSyFUWB1+vF6uqqZU/7vi0tLchms7bhDplMBltbW2hoaKi65yrRftJ1HY8fP4aiKDIIKle+UehxLYaKiXarr68PXq8XyjaTwu92P6LDTtd1rK2tyRuYbrcbiURC1iNrr6exsTGcOnUKDQ0NzsMAhQv3TCaDzs5OKIqCkydPYm5uzrmZ7VwiRKNRBAq9lkTcU+o8Y5omstksWlpayvY4WV1dhdfrxdmzZ0uup6MrGo0im83C7XbLC+Ny5QCFHs8irrTGqqVu6Fvtdj+iF8W4hqj6OGE316vVxBFEteRAEqWapuH06dOyB6a1IgsiIfj7v//7OHHiBFZWVqDrujz5WROVDQ0NRUPbYenRqRZ6Ze6U6MlaSrnh96VcuHABAOTw7Up3X0Si+MSJE/j93/995PN5eREleqcODQ0hnU7D5XJB0zS89tprtmMYhYc7WV+vt7e3KLlbqwzDwNbW1ra/ofUE4ZTNZpHJZOSFpjNY2trawsbGRsmErFJiKgai/aSqKtra2rC5uQm/3w9UKN8bGxt48uSJ7LXu7LFUzm73IzoKFhcX0dbWhvPnz8seoKIeWXv2ib/tRnuIY/X09ACFc5KTWRjFUqnHU6nzjLC6ulryQkrIZrN49OhR0XqRcKCjSdM0eL1euN1uXLx4EShzQS2srq7KmNz6V2mo8G73I3pRjGuIqo8TdnO9KpSLIxgnUK3Zl0SpdQ6lyclJOZ+FmMB9cHCwKHFkGIacD9TlcmFxcREAkEgkinpK9vX1AYW5TQ3DkD06xTbvvvuu7dhW5R7mpFiG3VuHfQQsicdKjZKVy+XC4OAgYrFYVXOHLi4uwuVywePx4Pnz5/IiSvTEHRsbk3OVZrNZfPPNN7b9rZMti9fb3Nxkz8YC0zSh6zr8fn/JuWKFxcVFdHd3y/KhFHoIP336FKZpIpFIoK6uDleuXJH7XLlyBW63W15Eu1wuGcShkDh3lnei/aIoCq5fv475+Xncu3fPNn+cs3yrqopf/OIXMAwDbrfbVq6rsdv9iI4C0d6fO3dOxiQo1KOd3ogUw/N//vOf4/PPPy97wX3//n14vV7bg0ucxI2/gYEBuSwYDKK5uRmJREJeSFnfo6qq6O3tldMKZbNZOa86AFy8eLGq+dDp8FFVFZcuXYKu6/j444/x1ltvQVXVkuVA0zS8/fbbSCQSaG5u3vHIo93uR/QiGNcQ/T/VxAmVrleriSMYJ1Ct25dEqdPf//3fY2VlBQCQz+cxPT1dNGejWZgDBoW5X6zzH7333ntIp9O27aenp+UcnLqu2+bzTCQSWFtbs2z9/4amlyMqvxjybyUukE6fPl2UYC1F9I5FYR5TMbR7O7Ozs/IzWucDcUqn07h7965zcZFcLod79+6VPU4t0nUdt2/fRkdHh0wqx2IxdHR0yGE80WgU8XhcJrnHxsawvLwsy5phGIhEIrZjtLW14datWzBNs+T6lZWVbcse0W5Zh//GCk96vXHjBlBoUwzDwKeffoqrV69C07Si8j08PIzvvvsOpmni3r17RXWj0sXwbvcTdF1HJpPh02HpUDIKc4g75wyPRqNIJpO2oZnbXbCgUFeePn0KFGKUckzTxLVr15DNZm3DmwcHB/Hpp5/KG3K3bt2C1+uV63t7exGJRORN1tHRUdt7HB4exszMjOz1GgqFbK/R1dVVcfQLvXzWjgixWAx//ud/juvXryOTyUDXdTk8ORQKQS08BMdaDq5evYpcLgfDMPDw4UP4/X55rFKdCJx2u58Qj8fR3NyM2A7OE1RbGNcQba+aOKHU9aj1erWaOIJxAtW6V1pbW793LnwZlMLT15qamrCwsFBzDyIKBoPo6+tDLpezNVJERER09IXDYTQ2NnKYMhERERHRIXYgPUq3oygKxsfH5dDyXC5ne2L4cSeeVOecToCIiIiOB03T0NHRUfIhTkREREREdHi89ESpVa33pqzFnrRERETHlbgZPDg4iJmZGei67tyEiIiIiIgOkUMz9J6IiIiIiIiIiIjoZTlUPUqJiIiIiIiIiIiIXgYmSomIiIiIiIiIiKjmMVFKRERERERERERENY+JUiIiIiIiIiIiIqp5TJQSERERERERERFRzWOilIiIiIiIiIiIiGoeE6VERERERERERERU815pbW393rnQ6uzZs85FRERERERERERERIfSo0ePnIuqUjFRSkRERERERERERHTcceg9ERERERERERER1TwmSomIiIiIiIiIiKjmMVFKRERERERERERENY+JUiIiIiIiIiIiIqp5TJQSERERERERERFRzWOilIiIiIiIiIiIiGoeE6VERERERERERERU85goJSIiIiIiIiIioprHRCkRERERERERERHVPCZKiYiIiIiIiIiIqObtWaJUURSMj48jFoshGAw6Vx9K1vds/RsfH4eiKM7NDw1N0/DgwQNMTk5CVVXnaiojEonYfucX/f5UVcXk5OSRKe90vEQiEYTDYedihMPhXbdh+1Gmw+EwIpGIczHRoVcqRnjw4AE0TXNuumc0TcOHH374QucmOn5EWSzVNkcikV23sZqmYXJyck/LdLlzE9F2ypWb7cr+XhPXVwd5Tcg2n3YqGAyWLJcv2p6/yLmkFJZtOur2LFFai4LBIGKx2J42Kk4icfGiST36rYWFBQQCAQQCAaytrWFgYMC5SdUMw8DAwACi0ahzFdFLMzo6imvXrsE0TeeqipxlWlVVfPjhh7sOuoiOKk3TcOfOHSwvL8tzRiAQQCKRQENDg3NzopcmFAohFAo5F1dF13UMDAxA13WAN7boJVpcXERHR0fRtY6qqnC73UgkErbley0cDuPq1auYmpqS7f3Q0BCy2Szq6+udmxMdOs72fKes5xLG/0RMlErT09PyxFhtkqGlpcW5aM8pigKXy2Vbpus6Ll++jIGBARiGYVtH1VtcXITX6y26I0dERLVLURRomoZ4PI7R0VHbutHRUd4cIyLaYyIR2t3dbVve2dmJTCazr9c7mqbhzJkzuH37ti3JZJomQqHQvr42EREdTq+0trZ+71y4G4qi4ObNm2hqasL09DSi0SjC4TB8Ph9SqRTW19fh8/mQz+cxNTWFhoYG9PX1AQBSqZS8gyH2EcT24sSlaRquXr0Kl8uFdDqN1dVVnDt3znaMYDAoj41CL0LnxQ7KvGfBegyxLhKJoL29Hel0GltbWzh16pTcXrzPzs5O+Hw+PHnyBG63G3V1dfjrv/5rBAIBNDU1ye3T6TRu3bolE7LW9yKO99VXX6Gzs1Pug8JnWVpawtWrV5HP5xGJRGAYBlRVRSgUgsfjkdtaP5N47wsLC2hsbER7e3vRNsddJBLB+vo6RkdH5fc9Pz8vP/925cZaLnO5HCKRCDKZTNExrOXTeQyivWQtz1bBYBA9PT24desWAODmzZt49OgRzp8/D4/Hg1Qqhbt378r2xtrGWuvFxsaGrSxb26xS9UFcSFjrUS6Xg2macLvdu+7xRHTQrHWo0k1TZ8zibPOd5xVrrIJCrw3rufuLL75Aa2sr7t69y4tzkkrFLEI4HEZjYyNCoRBUVcWNGzfwxRdf4Kc//SlcLhcWFhYQj8dlObO22WL7jz/+GBcuXJCxISzxobOMOsu4tQ6I+Pjp06dF5yaiSkRvZtFGOsv9dmUxHA7j5MmTcLvdOHHiBP7lX/4FX3/9ta0cOo9vXV4qniqFbT69bOViFGt7ruu6PDcAQHt7u2z7/X6/LMPOOtTY2Ii5ubldxf8s23TcHEiP0vb2dlmpXC4X+vv74ff75frTp0/Lrt2iQgtie1VVi5JQTU1NOHfunG37cDhsO0EBgM/nqzi3TV9fn5yPJhwOIxqNYmFhAQDQ09ODt99+G6dPn0Yul8O9e/ewtbXlPITNqVOnZNLz1VdfRV1dnW19U1MTbty4ARQalg8++MCWSN0JTdPw7rvv2pKkKHwm5+f2+Xy2QLinp6emelT6fD7EYjGMjY0hm83aLjhaW1sxMjKCQCCA6elpOQRI3GkW6x48eGA7pqBpGvr7++WwnZGRETx79sy5GdGBO3/+PCKRCEZGRtDc3Iw7d+5A13UEAgGsrKzgwoULzl2g6zpu376Nb7/9FhMTE7KnfTgcRltbG4aGhhAIBJBMJuUUFsFgEL29vbKuPHz4EK+//rrz0ESHWktLC7LZbFVJ0o6ODlneR0ZG0NHRIc+7wWAQfr8fExMTchin1+tFuDAPn7iomJmZketbWlqKRpEQ7YTL5cLZs2fxzjvvYGJiAt3d3QiFQohEIhgaGsLm5qYtBhdCoRAWFhaQSqUQCARsiSlRRkdGRnDmzBkZszvPB/Pz87ZOBEQ7sbi4iObmZqiF4fcXL15EXV0dEolExbIIAK+99pocdfd3f/d3aGtrk9c4qqqivr4ec3NzcnsUkrFerxerq6u25aWwzaejpr29HYuLiwgUppwbHh4GAAQc17pWu4n/WbbpODqQRGk6ncbQ0BCmp6eBQhA3NTWFkZER5HI5uFwuOedXKBRCoDAE3rpeURR0dnbKnqRDQ0MYGhpCOp2Wr6MoCtra2gDLUHrxml1dXXK7at2/fx/pdBpNTU3o7++Hy+XCzMwMDMOQASUKdwsvX75sG66Ry+UwMjKCgYEBfPzxxxgYGJCfS7wnMezb7/fLu/zi5Hv58mW8//77mJiYQD6fl+tK3e10fi+BQMCW5LUmQkUALN5DXV1dTc29Y52jdH193TYZ9sjIiLzjlUgkkM/n5TpRBgHgV7/6Vck7YxcuXEAymZTlwDAM/PKXv3RuRnTgRLtlGAbW1tawsrIiy+lOpqAQbez8/LxMIsXjcXi9Xqiqiq6uLiSTSVk/dF3f93nFiPab4nioUzgclnVB1C0U2vxkMinjja6uLiQSCVnXTNPE/Py8vHjv7u7G5uYmZmdn5Xpd15HP5y2vTrQz+Xweuq7DNE0YhoHnz5/Ldtk0TSwvLxd1SijHWUYNw8Djx4/R2dlZ8nwQjUaRSqUcRyGqjnP4vTWm2K4sCtbYRmx38eJFecytra2S8buTZnmok3iAH9t8OopSqZTsFLS4uIhcLod4PA6UuNbdTqn23hr/s2zTcXQgiVLRM2NjYwP5fB75fB6maSKTyWBzc9O2bcTyZPLh4WFbL0kR2C0vL8M0TRnwCfX19bLnpugh6uxdWo51jlKRjBQnOCGdTssGoJK1tTV5IlULD2QSn8v5nsTnsiYYdsL5vQAoe2d0fX0dAORvYU0A1pr79+9ja2tL3kmzBkbWsqfrOh4+fIirV68iFosV9dLFDu9IE71M6+vrsh3YKdHGWnvgDw8P48SJE+jq6mIdoGNhdXXVdvPANE1cu3YNgUBAJoHq6+vhdruxsbFRct833nijZH3Y2NiA2+1GfX191T1XiXbLNE1ks9miclitlpYWNDU1YWxsTLb5Pp8PjY2NZesA0W5ZE4+iB+jS0hJQoSyWIq4RrUlMa5LHul02m7U9d0L0ShUddsA2n46BjY0NPHv2DJlMxrmqou3if0VRWLbpWDqQRGm1NE3D6dOnZa9H0ZvSSdyZE3c3SrEmPgOBQNF8NNVQFAU9PT3y/01NTbhy5Yptm2qIHqPiPYnenoJIWliHiLz99ttVP2mu1P4H8aCpo66+vh5erxcolL1Lly7h9u3bCFh6MwvWoKm3t7coWVoq0CI6bjKZDJ49eyaHlYm/y5cvY2pqqmQdKHcRQ3RYJRIJuN3uouFoVplMBltbW3I0jFU2m8Vnn31Wsj6I9ZlMpighCwANDQ0cqkaHxurqqozJnTF1qTogbhoT7dbS0hLq6+vxs5/9zNYDdLuyWI441h//8R/D6/WWHeGyuLhou4YqpVR5F9jm03G3Xfyv6zrLNh1LhypRKrS3tyMWi2FwcNBWwRYXF4FCwnJsbAxjY2O2eT3FnUg45hydnJzc9oIHZba/ceMGmpqakEql5FD1UnN5tLe3y6EZ2xGvYZ0EHIUTeT6ft90pvXTpkm0bj8eD4eFhOc+NVan9xWuUuntKv+X3+2UQ1tDQgK2tLXmXrbu7W/YoDQaDMjFaqhe0sLi4iO7ublkOVFXFL37xC+dmREeWaZp4+vSpHIbmtL6+bmsjxc0voqPEMAx8+umnGBwcLLopJojeSr29vbK8q6qK3t5eGas4zwmKokDTNDx9+hRmYZTNiRMn5NBQ581ZopctkUigubm5ZD0QN4itUzxdvHhx1/PtE6HQ/m5tbeHNN9+0jZTbriyWo+s6MpkMAoEAlpeXy47ai0ajyGaz+OCDD4qu8QS2+VTLKsX/LNt0HB2qRKmu61hZWQEKcyxNT0/bevVFLQ9YQmHeDedcSKOjo0U9Nnfj8uXLaG9vRz6fx9zcnJx3yePx4Pr161AUBfF43Pb+yrFul06n8cknn9jW64VJk63HEtMTWL+TcsrtPzExUfR01FonHuYUi8XQ0dGBe/fuwTRNOaWCSDT39PTI73NjYwN+vx+xwkOglpeXS36v0WgU8Xgcg4ODckjCd99959yMaM9Yy3OsMHfiXhJzgA0ODsr5fEdHR5HNZm3D38STZEdHR5FMJjE8PIxYLAZN0/Dll186D0t06EWjUUxMTMi2X/x5vV7cv38fKFHeh4eHMTMzI88PznOCOH+I6X10XcfU1JR8jTt37uDRo0clR9IQwXFTP1ZmKqAXEY/H0dzcLI9tGAYePnxoqwfWjgGhUMh2Pujq6iqKy4l2QiQk8/m8HHaPQjyyXVksZ3FxER6Px3asUkKhkK09F23648eP5ZyjbPPpsHBOQzE+Po7XXnvNudmu7TT+Z9mm4+iV1tbW750LjwpN03D16lW4XC4sLCyUfNARERERERER1ZZgMIienh7cunWLI+yIiKhqh6pHaSXOhyKJofnWJ7gRERERERFR7RJD4zkNGRER7dSRSpSWkkqlMDAwUHbeGSIiIiIiIqoNkUgEw8PDSCaTJafLIiIi2s6RHnpPREREREREREREtBeOfI9SIiIiIiIiIiIiohfFRCkRERERERERERHVPCZKiYiIiIiIiIiIqOYxUUpEREREREREREQ1j4lSIiIiIiIiIiIiqnlMlBIREREREREREVHNY6KUiIiIiIiIiIiIah4TpURERERERERERFTzXmltbf3eudDq7NmzzkVEREREREREREREh9KjR4+ci6pSMVFKREREREREREREdNxx6D0RERERERERERHVPCZKiYiIiIiIiIiIqOYxUUpEREREREREREQ1j4lSIiIiIiIiIiIiqnlMlBIREREREREREVHNY6KUiIiIiIiIiIiIah4TpURERERERERERFTzmCglIiIiIiIiIiKimsdEKREREREREREREdU8JkqJiIiIiIiIiIio5r3S2tr6vXPhTimKgps3b6Kpqcm5CgCQy+UQiURgGIZzFQAgHA7D5/MhlUohFAo5VwMAIpEI2tvbsbCwgNHRUefqbamqilAoBI/HY1u+3esdBtV8L7RzoixZTU9PIxqN2pbtFVVVcePGDXz88cfQdd25muiFsDwT7R0Rz8zPzxfVoYMs+8FgEH19fbZl+x0LRCIRrK+v7zjGooNTKt7O5/OYmpratzKpaRouXbqEu3fvlo3jifbCQcYz4XAYjY2NCIVCB9q2E+0VxglE+4s9SqsQDocRi8UQDoedq/ZMMBhELBZDJBJxrqI9oqoqJicnAQCBQED+TU9Po6Wlxbk50aHG8ky090zTxPLyMnp6eqAoim1dd3c3tra29j1ZFIlE0Nvbi5GREVmvR0ZGgEKijGqTpmm4c+cOlpeXbW1+IpFAQ0ODc3OiI2lhYcFWvvcjSbqfNE3Dhx9+CFVVnauI9gzjBKL9tyeJUtM0ce3aNVlJc7kc8vk8JiYmEAgEMDAwsO8XFtWwvqdAIFD1HZfGxkbnoj1XKrExOjq6o/dJ2xsYGEAymSz6PqPRKO+M0ZHD8ky0P5aWllBXV1d0odvV1YXl5WWYpmlbvpeCwSC8Xi/ee+89W9xkGAZCodC+vjYdXoqiQNM0xOPxovZ9dHT0yCWTiIhodxgnEB2MPRl6byWGubtcLjkUqNRQoXQ6jVu3bsE0TdsQ8/X1dfh8PqBwV1EEhKWG3ov9hHLDM0q9J0EcV0wPAEAO019aWkJzc7PtfYvtBgYG0N7ejq+++gqKomBzcxOxWAz/9b/+V9sQf2cXeE3TcPXqVbhcLqDwPWxtbeHUqVNyGzGMqrOzs2jovbObvXVaA+vnjMfj6O3thcfjqTj1QS3YydAx53fs/A2dUzk4v19nef/qq6/wO7/zOxzSQ3uG5Zlo/4gyv7y8LOMN59BMa72yDn0W+66uruInP/kJ/vVf/xUA8Ld/+7cyPil1fOvyUsP+nZz1stTwa2eM5Jy6yLpexCJPnz4tSsTRyxcMBtHT0yPj5u1U+t13ek744osv0NraWtX5huhFlBvWGw6H0dbWJst/MBiE3++XbZ7z2kqUeWc7aS3r2w29324/URdXV1dx7tw52/pKdYvoRe0kTnC25ZXi+0pxBOMEqjV70qO0kvr6etTV1dmWNTU14caNG7Zl7e3ttuDO5/MhGAzathEikYhtWwDw+/3QNM22zMrlcmFwcBCxWAyxWAzBYBB3795FOp2Gx+OB3++H3++Hx+NBKpXC//yf/9N5iCI//vGPZQPU3NwsT9JCe3u7HLIfDAYxODhYtE21wuFw0VwkHo9HnuQFl8uFvr4++b7EZ6tlDQ0N2NraQiaTca6yEcGX6Hk8NDQEr9crf0Nx0kkmk7JncjKZxPXr16Eoiu0CWKx3u91F8+MSvQiWZ6L9I4bft7W1QSkMYfP7/XLYfTAYtA15i8fj0DRNbovCKJF33nkHf/Znf4Z/+qd/QldXl1ynqircbjfi8bhchkKs5Ha7sbGxYVvuJOplNpuV9TIej6O/v1/GAuFwGB0dHfI9joyMoKOjQ8ZUIvEwNDSEQCCA+fl52w1bOlxaWlqQzWarSpJu97tXe06YmZmR61taWnYdtxLtlM/nk9dpk5OTUFUVo6OjyGazuHLlChRFQU9PD+LxuEyS9vf3Y2pqSpb5Z8+eFcUvoqyXu64UqtmvqakJv/nNbxAIBDAxMYHTp08jGAwiGo1iYmIC3377LUZGRpgkpT1XbZxQbXxfKY5gnEC17EASpYZhYGBgQFbE6elpAIDX67VdWKTTaVkZU6kUUBjq5qSqKpqbm21D6RcWFuByudDZ2encfFumaULXdeTzefh8Pvh8PuRyOUxOTsopBcR7WVhYKJpGQLzna9euYWpqCpcvX5afc2FhASgM3RcndhTuMIptrl27hv/23/6b3DaVSuHy5ctFPbUURUFbWxtgmb9naGjIluS1mp6etn2PBzF9wFETiURkMCZ6E3d1dSGRSMjv3zRNzM/Pywvm7u5ubG5u4v79+/I48XgcbrcbqqqWvACenJxELpeT/yfaDyzPRHvHOvxenH/n5+dhmia6urqQTCZlLDA7O4utrS3bDUuxLQp1qr6+Xt7I7ezsRCaTqap3XrAwf7k1aSDqpZijGIX3sLm5ie7ubvl+Z2Zm5GsYhoFkMomurq6iz4PClB0iXqDDT1EUjI+Py7IRDocr/u7YwTlhdnZWrhcxMtFBsM5Rar3mmpubw5kzZ3D9+nVks1nZm+7ChQtIJpOyTBuGgV/+8pdF8Yso66WuK62q2S+dTsu4Sdd1rKyslJxCjegglIoTqo3vK8URjBOolh1IolQtPHREVGJnr0jBerd8fX3duVpSFAUul8vWQ9TZu7QU5xyl4iQrTnKC9QKoEut8ZZqm4cGDB/JzWt+T6FWbz+cxNzdnOUJ1rPsvLS0BhZN3Npt1bop8Pi/vNInv0ZmUrjUbGxtwu92or6+Xy0KhkC2hrSgKvF4vVldXLXva9y3VqyOTyWBrawsNDQ1V9/QjehEsz0T7S9d1rK2tobOzU15QJBIJWa+svZ7GxsZw6tSpsg/UMQwDmUwGnZ2dUBQFJ0+eLBkHWOueEI1GESj0WhLJqlL1UsQDLS0tZXucrK6uwuv14uzZsyXX0+ElfjsRx5mWZwOIC9dKv/sbb7yxq3MC0WGg6zoeP34MRVFkcqdcnINCO/nDH/4Qw8PDtuvPStdDu92P6CBUGyeUassrxffVxBFEteRAEqViOLvo5Sgu5J3ESUjcxUCFhKkz8RkIBHY1Z4amaTh9+rT8f3d397ZD+Mu5cOECAMj3ZL3rkslksLm5WdTrdWhoqKoTb6n9RYBAlRmGga2tLXR3dztXSdYThFM2m0Umkym6WBG2trawsbFRMoElEvtEe4XlmWj/LS4uoq2tDefPn5c9QEW9EvGM9U/cfC1FHEuMLCl1M9YsDPmv1OOpVL0UVldXS15ICdlsFo8ePSpaz3jicEskErInUDmVfvfPPvtsV+eEhoYGtvn00qmqira2NmxubspRdNvFORsbG3jy5IkcqSj+rl27tu2NgN3uR3QQqo0TSrXlqBDfC+XiCMYJVGsOJFEq9PX1FfW0tGpqasLY2BjGxsbQ1NRk6z1pJXqAOuccHR8fL2oQrEpt/wd/8Afo7++Hy+XC9PQ0UqkUXC6XTHpa+Xw+2aW9HOtrtLe3y+WiYYNj/p2zZ89a9v7tnKYPHjwoStSW2l98T7lcrmiuM7IzC8PH/H6/nIurlMXFRVuiXCk8afbp06cwTROJRAJ1dXW4cuWK3OfKlStwu93yItrlctmmQrhw4QIvMmhPsTwT7T9RP86dO4fFxUW5fHFxEb29vdvGAk5ieP7Pf/5zfP7552UvuO/fvw+v17ttPCNulAwMDMhlwWAQzc3NSCQSMl6wvkdVVdHb24vFxUWZXOjp6ZGvcfHiRduDK+lwMQwDn376KQYHB8vOsVjpd0cV54SNjQ2cOHECFy9elOtFcp/oZVEUBdevX8f8/Dzu3buHM2fOyDLsLNOqquIXv/gFDMOA2+22xTfV2O1+RAelmjihUnxfTRzBOIFq3YEkSuPxuJzTLp1O45NPPnFuAhTm57T2whQTdZcSCoVeeJ6Mf/fv/h3efvtteDwepNNpzM7Oyvn3rA9hmpubq2p+Jut2qVSqqOfs6OionJ9VEN3ird9ROaX2T6fTeO+990r2TiE7Xddx+/ZtdHR0yER1LBZDR0eHHMYTjUYRj8dlsntsbMz2ZGLDMBCJRGzHaLM8ibPU+pWVlYq/LdFOsTwT7S/DMLC2toZcLodEIiGXR6NRJJNJ29DM7S5YUEhiPX36FChcwJRjFoZUZ7NZjI2NyeMPDg7i008/lTcwbt26Ba/XK9f39vbanmY7Ojpqe4/Dw8OYmZmRvV5DoZDtNbq6ul44pqL9FS08KMbv99vafK/XK+ehq/S7Vzon6LqOqakp+Rp37tzBo0ePqoqBifaCtTNJrDD/rnj47+zsrLxpcPXqVWiaVlSmh4eH8d1338E0Tdy7d68oRip3o0HY7X6CruvIZDIYHh6W88UT7aVq4oRS8bs1vq8mjmCcQLXuldbW1u+dC4mIiIho74TDYTQ2NvJJyEREREREh9iB9CglIiIiqlWapqGjo6PkQ5yIiIiIiOjwYKKUiIiIaB8oioLx8XEMDg5iZmam7HRCRERERER0OHDoPREREREREREREdU89iglIiIiIiIiIiKimsdEKREREREREREREdU8JkqJiIiIiIiIiIio5jFRSkRERERERERERDWPiVIiIiIiIiIiIiKqeUyUEhERERERERERUc1jopSIiIiIiIiIiIhq3iutra3fOxdanT171rmIiIiIiIiIiIiI6FB69OiRc1FVKiZKiYiIiIiIiIiIiI47Dr0nIiIiIiIiIiKimsdEKREREREREREREdU8JkqJiIiIiIiIiIio5jFRSkRERERERERERDWPiVIiIiIiIiIiIiKqeUyUEhERERERERERUc1jopSIiIiIiIiIiIhqHhOlREREREREREREVPOYKCUiIiIiIiIiIqKax0QpERERERERERER1bxXWltbv3cu3A1FUXDz5k00NTUBABYWFjA6OirXq6qKUCgEj8cDAJienkY0GpXrdyIcDsPn8yGVSiEUCjlXF3G+tlDt/vslEomgvb296LsiIiIiIiIiIiKig7VvPUrb2tqgKIr8f3d3d1GishrBYBCxWAyRSMS56kgJh8OIxWIIh8POVURERERERERERPSS7XmiNJ/PI5fL4cSJE1BVVS7v6uqS63aipaXFuWjX8vk8JiYmEAgEEAgEDrQ3aWNjo3MRQqEQAoEAe5MSERERERERERG9ZHs+9P7EiRP45ptvcOrUKTmkXAx9f/bsGdxuN5qamuTQ+2AwiL6+PtuxxDoxNF3I5/OYmppCZ2enHHq/vr4On89n289JvL7L5cLU1BR0XS+53uPxIJfL4fPPP8ebb76JdDqNW7du4eLFi+jr65P/N02zaNi8mA5AEO/VMAzblAQAkMvlEIlEMDAwUDT03nkc62tqmoarV68in89jZmYGfr8fLpfLtg0RERERERERERHt3J73KAWAr7/+Gvl8Xg6/F8Puk8mkc9OSPUb9fj80TXMuLtLe3m5LKvb29tp6sTq5XC4MDg4iFoshFoshGAwWzV/q8Xjw5ptvOnetyNlj1OVyob+/H2fPnrUt304kErF9HgBoamrCzZs3bdMYeDwe9PX1weVyyW0uXrxo2YuIiIiIiIiIiIh2Yl8SpU+fPsXz58/l8Puuri7kcjk8evTIuSlGR0flUPihoSGk02m4XC40NDQgFAphYWEBKDx46fLly7beoOl0GkNDQ5iYmEA+n4fL5bIlFKshkri5XA4jIyMIBALyNXdCDKMPBAIYGRlBLpeDy+XCD37wA1y7dg2pVAooPORqYGAAhmHY9ldVFc3NzUChZ6z1OM5EqJhCQHxfKJNwJiIiIiIiIiIioursS6I0l8theXkZLpcLv/d7v4fm5masra3h66+/dm4qH3IUi8UwNjZmG6JeSTabhWmaME0T+XzeubqIc47SaDQqE4xra2syebm6uurYs7JIJCI/x/Dw8I4fXKUoClwuF3K5HBKJBAAgk8lgc3PTuSny+bz83NlsFijRo5WIiIiIiIiIiIiqty+JUgBYWlpCPp/Hj3/8Y3g8HiwuLjo3gaqq6OjokD1DRQ/Kl6G5uVkO2+/q6nKuBgDU1dWhvr7e1vsTADRNw+nTp5FKpRAIBGQP150QyV6Px4Pu7m4AQH19Perq6pybEhERERERERER0R7bt0SpYRh4/vw5UOhhKnpJltLU1ISxsbFte2K2t7fjwYMHVc1dWo5zjtLx8XGsrKzIBOXw8DBisZjtAVIAsLGxYdvm3Xffta0X2tvbEYvFMDg4KOcPdfL5fJicnCyaS9UwDKytrQEA+vr6bD1T0+k0ZmdnbdsTERERERERERHR3tm3RKlpmlheXgYcw9qtDMOwPeDpk08+kXNuCvF4fF97mX766aeIx+Py/+l0Gp988oltG13XbYneRCIhk5pi/crKClAYFj89PV30nufm5ir2MrXOySqkUilcu3aNT7QnIiIiIiIiIiLaR6+0trZ+71xY64LBIPr6+pBOp3Hr1i0mKYmIiIiIiIiIiI65fetRSnTYRCIRhMNh52KEw2GMj49DURTnqopUVcXk5CSCwaBz1a6Fw2FEIhHnYiIblmei/aEoCsbHx+U0PbFY7IWn/ilHvJaoc8FgcNf1l46/gyybgqZp+PDDD4umjCLaa4xriCorFydomobJycldnw8ikcielmueO+ioY6KUat7o6OiupzcwDAMDAwOIRqNAISD78MMPd32SInpRLM9Ee2N6ehqBQACBQACXL1+GruvOTQ41XswfL5qm4c6dO1heXpblMhAIIJFIoKGhwbk50bHBuIaoMl3XMTAwsOtYJRQKIRQKAawnRAATpaVFo1EEAoFdn5SJiIiIiPaCoijQNA3xeByjo6O2daOjozIJREREREQvjnOUUs2IRCJYX18vusgIBoPo6enBrVu3AAA3b97Eo0ePcP78eXg8HqRSKdy9exc3b95EU1MT8vk8pqamoOs6FEXBzZs3MT8/j42NDVy9ehUulwsoPBhMzHEbDofh8/kAALlcDpFIRD7gTMyJK9aZpgm32y3v6hGVwvJMtD+s9cCZgBI9NEV5DofD6OjokHXAWv5R6JUajUahqipCoRA8Hg8AYGFhAaOjo0WvZa2/pmmW3U+8dmNjIwCgvb3dtj4Sichl1vdBR5OzXGzH2j7DUWbgaKNReGiotX12lrkvvvgCra2tuHv3bskHsxLtFcY1RJWVOx+oqoobN27g448/hq7rRTGCKNd+v1+W9VIxxdzc3K7qCc8ddNywRylRCefPn0ckEsHIyAiam5tx584d6LqOQCCAlZUVXLhwwbkLdF3H7du38e2332JiYkL2SA6Hw2hra8PQ0BACgQCSySQGBgaAwsmut7cXIyMjCAQCePjwIV5//XXnoYleCMsz0c719fXJeSDFfGB3796F1+tFMBiEqqo4c+YMHj58KJOk1vI/MTGBf/u3f5MXDzMzMwgEAhgZGcGZM2cqDmmrZr/29nYsLi4iEAhgenoa3d3d0DQNoVAICwsLSKVSCAQCTJIecS0tLchms1UlSTs6OmQZHBkZQUdHB4KWOXD9fj8mJiYQCAQwNDQEr9cr54V0lrmhoSG0tLTIC2aiw4JxDVFl1hhhbW0Nw8PDACBjho6OjqI5RHdTT3juoOOIiVKiEmZmZmAYBgzDwNraGlZWVuScL4uLi/B6vUWTaJeiKAra2towPz8vL3Di8Ti8Xi9UVUVXVxeSyaS806brOhKJhOMoRC+G5Zlo56xzlIoLBdM0MT8/j56eHvzpn/4pHj9+LHst9fT0yLqGQvn/6KOP0N3djc3NTczOzgKFOfMeP36Mzs5OxyvaVbNfKpWSSdDZ2Vk8f/6c81XWAOdDncLhsGyfrWXQMAwkk0l0dXUBALq6upBIJGT7L8pzW1sbFEUpKnOmaULXdeTzecurE718jGuIKrPGCIuLi8jlcojH4wCARCKBfD6/J/WE5w46jpgoJapgfX0d6+vrzsVVqa+vR11dna1n0vDwME6cOIGuri54vV6srq46dyPaNyzPRC8mGo0im83C7Xbj/v37QKFuuN1ubGxsODdHS0sLmpqaMDY2JuuNz+eTQ+LK2e1+dPysrq7aEj+maeLatWsIBAJIpVLANmVQ7PvGG2+UbKM3NjbgdrtRX19fdc9VosOEcQ1RZRsbG3j27BkymYxzVUXb1RNFUXjuoGOJiVKifZTJZPDs2TM5zE38Xb58GVNTU8hms2hpabHtw4tgOqxYnol++/Rxr9cLt9uNixcvAoW6sbW1VbI35+rqqhwCb/2rNL/dbvej4yeRSMDtdhcNkbTargxms1l89tlnJdtosT6TyRQlZAGgoaGBwyfp2GJcQ1TZdvVE13WeO+hYYqKUaB+ZpomnT59C07SSQxvW19dt88NomobTp087NyM6FFieqdapqopLly5B13V8/PHHeOutt6CqKkzTxPLyMnp7e23l/+2330YikUBzc7OcJ7Jau92Pjh/DMPDpp59icHCwbHkoVQZVVUVvby8WFxeBwtBLMY8tCsMpNU3D06dPYZomNjY2cOLECXkDQEwpQXRcMa4hqqxSPeG5g44jJkqppvh8PjlkQMzrtZfEHHKDg4Py4R+jo6PIZrO24ZPiycmjo6NIJpMYHh5GLBaDpmn48ssvnYclKonlmWj/WIeYxWIx/Pmf/zmuX7+OTCYDXdeh6zoeP36MUCgEVVWLyv/Vq1eRy+VgGAYePnwIv98vj/XgwYOKD3Pa7X5CPB5Hc3MzYrFY2eQaHR3RaBQTExO28hCLxeD1euUUEM4yODw8jJmZGTlHXTQaRTwex+DgIGKxGMbGxrC8vCyfeqzrOqampuRr3LlzB48ePeI8c3RgGNcQVeaclmd8fByvvfaac7Nd22k94bmDjqNXWltbv3cuJCIiIiIiIiIiIqole5ooVVUVoVAIHo9HLsvlcohEIvJpgURERERERERERESHzZ4NvS+VJD1qVFXF5OQkJicnt50wn4iIiIiIiIiIiI6XPUuUdnd3w+PxIJfLYWRkRD4N7R/+4R+cmx5aiqLw6WxEREREREREREQ1aM+G3geDQfT19QEAFhYW5MTwzvXpdBq3bt2CaZqIRCJob2+X21v/39jYiPb2dgDA9PQ0otGo7LXqcrkQj8fR29srk7PW4f2lereKYwCQr/PVV19BURRsbm5iaWkJP/vZz+T2KPM5iIiIiIiIiIiI6PjZsx6ls7OzSKfTgOWJhbt9UqHP55NJUgDw+/22p7y6XC709fXJRKjH48H169ehKAo0TcO7775bNAVAX19f0VNff/zjHxdtR0RERERERERERLVnzxKlpmni2rVrWFhYkMt8Ph/Gx8ehKIpt20pSqRQCgQCGhoaQTqfhcrnQ2dlp22Z6ehqBQAATExPI5/M4ceIEVFVFZ2cnXC4X0uk0hoaGEAgE5Hvq6emxvRexzbVr1/A//sf/kMcS0wewNykREREREREREVFt2LNEqTA6OopAIIDp6WkAQFNTEy5evOjcbFvr6+tAIfmazWadq5HP57GxsSG3yefzcl1jYyMAYHl5GaZpAgBWV1fleivrNkRERERERERERFS79ixRGgwGbUPtE4kEcrmcbRsAqKurQ319PVRVRXNzs3M1YEl2WrexJjtdLhcaGhoAy0Ok8vk8TNOUSda2tjbZe7SlpUXuS0REREREREREROS0Z4lSWOYmjcViGB4elg9aSiQS2NjYQD6fh8fjwfDwMN59913n7lJ7e3vJY1j19fUhFovJB0itra3BMAwsLS0hn8+jqakJY2NjiMVi8Pl8AID5+fmqepCK97jbOVaJiIiIiIiIiIjoaNmzRKlIhFpZn0av67ot2ZlIJLC2tmbbXvjiiy/kg6Hy+TwePnwon2gvlv3617+Wr5dOp3H37l0AgK7ruH37tq03az6fx8TEhHzqfTm6rmNlZcW5mIiIiIiIiIiIiI65V1pbW793LnxZIpEI2tvbsbCwUPJBSqqqIhQKweVyYWpqCrquOzchIiIiIiIiIiIi2rE961FKREREREREREREdFQxUUpEREREREREREQ171ANvSciIiIiIiIiIiJ6GdijlIiIiIiIiIiIiGoeE6VERERERERERERU85goJSIiIiIiIiIioprHRCkRERERERERERHVPCZKiYiIiIiIiIiIqOYxUUpEREREREREREQ1j4lSIiIiIiIiIiIiqnlMlBIREREREREREVHNe6W1tfV750Krs2fPOhcRERERERERERERHUqPHj1yLqpKxUQpERERERERERER0XHHofdERERERERERERU85goJSIiIiIiIiIioprHRCkRERERERERERHVPCZKiYiIiIiIiIiIqOYxUUpEREREREREREQ1j4lSIiIiIiIiIiIiqnlMlBIREREREREREVHNY6KUiIiIiIiIiIiIah4TpURERERERERERFTzmCglIiIiIiIiIiKimrcvidJIJIJYLCb/Hjx4AE3ToGkaHjx4gMnJSaiq6tzthYjXDIfDzlV7QlEUjI+PIxaLIRgM2taFw2HEYjFEIhHb8r3kfI1K/6diznJZ6rfcK+FwWP4Wqqriww8/hKZpzs2Idi0SiZRs78LhMMbHx6EoinNVRaqqYnJyck/rhbUuEB124lxfqg4cZFseDAaLzlf7XY/KtSl0eFhjUfEnYuz9omkaPvzwwz2P24mcIpFIyfK8XduraRr+8i//0hbziOvNUu040VEXDAZLxvmapmFycrJkPalGJBLZ0ziD5w466vY0USpOTO3t7c5VZYkE306C893sQwQACwsLCAQC8i8ajTo3OdR40qFKRkdHce3aNZim6VxVkWEYGBgYkPViu4sTouPINE0sLy+jp6en6CKku7sbW1tbMAzDtnyvRSIR9Pb2YmRkRJ6rRkZGgEKijGqTpmm4c+cOlpeXbXFMIpFAQ0ODc3OiIymXy+HChQvOxWVduHABT58+tcU8Fy5cwMrKCrq6umzbEh1nuq5jYGAAuq47V1UlFAohFAoBjP+JgL1MlCqKAk3T4HK5kMvlbAH+3//93wOFCnz58mUMDAzIC43GxkbHkSortU8oFEIgEMDo6KhzVU0YHR1FIBCQDRwRERHt3NLSEurq6opuSHV1dWF5eXlXNyGqFQwG4fV68d5779kSsoZhIBQK7etr0+ElYux4PF4U546Ojh65m75E5fzzP/8zmpubq+oNqqoqvF4v4vF40bL/9b/+F+rr65noISKiXXmltbX1e+fC3QgGg+jr60M+n8fU1FTJuxmapuHq1avI5/P467/+awQCATQ1Ncn1uVwOkUgEfr8fPp9PLhfHNAwDN2/eLLnPwMAA2tvbsbCwgNHRUSiKUrStWAfHe5mZmYHf74fL5UI6ncatW7eKLkasx5uenrYFpeFwGD6fD6lUCqFQCKqqIhQKwePxyG3EOhR6i4j32tjYKHvgWo8r3p94T6urqzh37pw8jvM1nf/fi9c4biKRCNbX14suMsLhMNra2uTvHgwG4ff7ZTm2fk+wlCNnGbN+b+FwGI2NjbI83LhxAx9//DF0Xa9qPwDyNxOvJ+qYcFx/J6pOufIcDAbR09ODW7duAQBu3ryJR48e4fz58/B4PEilUrh7964sg9Y2W5TN+fl5bGxs2Mq9tW0U7Q0sbbBI6ljLaS6Xg2macLvdLKt0ZIh6sLy8LOuXsx23lvNSdWh1dRU/+clP8K//+q8AgL/927+V595Sx7cun5+fr5j4cp5HSsVe1noKRwzkXJ9Op7G1tYWnT58WtSn08lnbdWd86lTpd68USzhj2C+++AKtra24e/fuvvemptom4prV1VX09vbK2MLZ/grBYBBdXV228mtdVi5OIjrKyp0PnPXEeU1ZKs9iPT+I7efm5nYV//PcQcfNnvUobWlpAQA8f/78hSuDs8eoy+VCf38/zp49a1tejqqq+OCDD2xJUgDw+XxFw/U9Hg/6+vpkY9DU1ISLFy/atnHq6+uzzQ9lDUhRuIARxxPa29uLXtvn89mmKRBD/ZyJuaamJpw7d86yZ/UO4jWOEp/PJ383MVfu6Ogostksrly5AkVR0NPTg3g8LpOk/f39mJqaksMfnz17ZrvQDQQCGBoagtfrrXgHvJr92tvbsbi4iEAggOnpaXR3d0PTNESjUUxMTODbb7/FyMgIE09UtfPnzyMSiWBkZATNzc24c+cOdF1HIBDAyspKyWFuuq7j9u3b+PbbbzExMSGH84sbC0NDQwgEAkgmkxgYGAAKwZt1yPDDhw/x+uuvOw9NdKiJ4fdtbW1QCkPd/X6/HHbvLOfxeByapsltUYiJ3nnnHfzZn/0Z/umf/sk2BFRVVbjdblsvKACor6+H2+3GxsaGbbmTOI9ks1k5cicej6O/v1/2gg2Hw+jo6JDvcWRkBB0dHfJc46zH8/PzOHXqlOOV6LBoaWlBNputKkm63e8ubgRPTEzYYhARn4oL3ZmZGbm+paWlKKYl2k/RaBRra2sytihFxOuLi4u25V1dXXLZ4uKirR0nqjXWa8q1tTUMDw8DgLzG7OjoKBo9s5v4n+cOOo72LFG6U9988w2uXbuGVCoFFO5oiCH5ocIwehHk5XI5uFwu/OAHPyi7j1V3dzc8Ho9tCoDp6WkAKGoQ8vk8JiYmMDQ0hHQ6DViSvrslphgQn2FhYQEokQBOpVK291ZXV4f6+np0dnbKXp6iMRKfeaeqfQ3r5z/OrHOUWsvO3Nwczpw5g+vXryObzcrePBcuXEAymZR3sA3DwC9/+cuiC13TNDE/P19xPqRq9kulUvL1Z2dn8fz5c84/Ri9kZmYGhmHAMAysra1hZWVFlunFxUV4vd6qLiQURUFbWxvm5+flBXs8HofX64Wqqujq6kIymZT1Std1JBIJx1GIDj/r8HtnuXeW89nZWWxtbdliC2cdsQ4B7ezsRCaTKYpdSglaHuokbu6J88jk5KTcbnZ2Fpubm+ju7pbvV9R7FM5dyWQSXV1dRZ8HhcTEbuMMOniK46FO4XC44u+OQhIpkUjI9l/EICKZ1N3djc3NTczOzsr1uq4jn89bXp1o/01OTm47dF5VVWxtbcmyisJIufr6ehl3JBIJuN3uokQQUa2wXlMuLi4il8vJa9BEIoF8Pr8n8T/PHXQc7VmidHV1FQBw4sSJFz4hRSxPJx8eHrYNYa+GSHSura3JYHFjY6NkZc3n8zBNE6ZpIpvNAiUSmk7T09My2WZNhApa4aFW5XqcCuvr64DlvblcLiiKIl/fOhea2Hanqn0Ns9CDplbpuo7Hjx9DURR58akoCrxeryzbVg0NDfjhD3+I4eFh+Tv39fVVTDjtdj+ivbK+vr7r9qS+vh51dXW2XvXDw8M4ceIEurq6ytYXoqNG13Wsra2hs7NTJiYTiYQ8L1hHJ4yNjeHUqVNlb2gZhoFMJoPOzk4oioKTJ09ibm7OuRkymQy2trZsx4lGowgEApiYmJAxTENDA7a2tpDJZOR2IoZpaWkp2zN1dXUVXq8XZ8+eLbmeDi/x24k4wTRNXLt2zXYjvdLv/sYbb5Rsozc2NuB2u1FfX191z1Wi/WYYBh4/fgxN03DixAnnanR2dhY9xKmzs9MWYw8PD+OHP/xhyVEzRLVmY2MDz549s8UO1dou/lcUhecOOpb2LFGaSCRkz0/r8C8AGBoaKntH0EnTNJw+fVr2hLReHFRLBIHNzc3yfTQ0NBxY929xQhZDm3bbS0Pc4Rd3cfbDQbzGUaCqKtra2rC5uQm/3w84LjydNjY28OTJE9njV/xVetr4bvcjOgwymQyePXsm2zbxd/nyZUxNTZWsL5VuPBEdVmLY5vnz52UPUHFecN4wDQQC284rKo7V09MDFJIATuKGZaWRCdbEltPq6mrJhKuQzWbx6NGjovUiAUyHUzU94yr97p999lnJNlqsz2QyRQlZHHD8TGR1//59AMAf/dEf2ZarqoozZ85gaWlJLhPXMc62eWJiAvX19dvWHSLa3nbxv67rPHfQsbRniVLDMDAzMwMU5v209pj76U9/6ty8iM/nw+TkpJwjq729HbFYDIODg2UrmdjHefITSVvr+xAT11uHy+0nl8uFwcFBxGIx2xyh1RBz6zQ1NWFsbAxjY2NF862+qIN4jaNCURRcv34d8/PzuHfvHs6cOSMT+4uLi3KOUBSCs1/84hcwDANutxtXrlxxHG17u92P6DAwTRNPnz4tmo9RWF9ft01vIm58ER1FiUQCdXV1OHfunG0evMXFRfT29hbFHtsRw/N//vOf4/PPPy97Y+z+/fvwer0YHx8vWcdQOI9sbW3Z5u8LBoNobm5GIpGQCVfre1RVFb29vVhcXJTJXjFnOQBcvHixZmOAo8AwDHz66acYHBwsOxd6pd8dJWIapTBnveiZt7GxgRMnTsi5+pXCPJBEL4NZGL77+uuv20YXdnd3I5PJyCkkYJnayjndj2gvu7u7bcuJqHqV4n+eO+g42rNEKQpDxMScolZieHspc3Nzth6jf//3f4+VlRWgsN/09HTR8Zz7OBmGgffee69ozs3p6ekDefKh9f2lUqmiofmVRKNR2z67OUYlpV5jtz1fjxLrcMlYYV6vGzduAIULWXExcvXqVfkApXg8LpPew8PD+O6772CaJu7du4eOjg7b8cpdwAi73U/QdR2ZTAbDw8OIRCLO1VRjSpXnvSSGvg0ODsrEjXj42djYmHxdURZHR0eRTCblDSpN0/Dll186D0t0JBiFOX1zuZzt4jsajdrKeSwW2zaxCctFBgoJ2HLMwpBqZx0bHBzEp59+Knu13rp1C16vV663PiEaJeri8PAwZmZmZK/XUChke42urq6aiAGOsmjhgY5+v9/W7nu9XtnzrtLv7oxpxsbGsLy8LGNjXdcxNTUlX+POnTt49OjRtjE30X4qNde59YFNwoULF0rO/SxuIFhvDBEddaKjkzUGee2115yb7dpO43+eO+g4eqW1tfV750KqPZqm4erVq3C5XFhYWDiQhDIREVGtCIfDaGxsRCgUcq4iIqIqaJqGS5cu4e7du0VJUSIior2ypz1K6ehQVRWTk5PyjpCY4sD6NDwiIiJ6cZqmoaOjo+RDnIiIqDqdnZ14/Pgxk6RERLSv2KO0RqmqilAoZJvzJ5VKsacLERHRHlEUBTdv3kRTUxOmp6e3feATERERERG9fEyUEhERERERERERUc3j0HsiIiIiIiIiIiKqeUyUEhERERERERERUc1jopSIiIiIiIiIiIhqHhOlREREREREREREVPOYKCUiIiIiIiIiIqKax0QpERERERERERER1TwmSomIiIiIiIiIiKjmvdLa2vq9c6HV2bNnnYuIiIiIiIiIiIiIDqVHjx45F1WlYqKUiIiIiIiIiIiI6Ljj0HsiIiIiIiIiIiKqeUyUEhERERERERERUc1jopSIiIiIiIiIiIhqHhOlREREREREREREVPOYKCUiIiIiIiIiIqKax0QpERERERERERER1TwmSomIiIiIiIiIiKjmMVFKRERERERERERENY+JUiIiIiIiIiIiIqp5TJQSERERERERERFRzXultbX1e+fC3VAUBTdv3kRTUxMAYGFhAaOjo3K9qqoIhULweDwAgOnpaUSjUbm+HE3TcPXqVeTzeUQiERiG4dwEABCJRNDe3l70unvpIF5jN8R35HK55LJ0Oo1bt27BNE3btrUqEolgfX296HcT5XZ+fr6q8vgiXsbvFA6H0djYiFAo5FxFx4Rol6yqbV93Q1VV3LhxAx9//DF0XXeuJjrynPEMAOTzeUxNTe15mXeeg4LBIHp6evb1vEBHi7OMWB1kexwMBtHX12dblkql9jW+KBe70fF0kPGMNT4+yHpEtFfYJhPtr33rUdrW1gZFUeT/u7u7ZZL0RYXDYcRiMYTDYeeqmlMq+XbUBINBxGIxRCIR56o9s7i4iI6ODqiqaluuqircbjcSiYRt+V4Lh8O4evUqpqamEAgEEAgEMDQ0hGw2i/r6eufmRBWpqorJyUkAkGUqEAhgenoaLS0tzs2JaIemp6dlvbp8+fKRu4AOh8P7el6lg2GaJpaXl9HT02OLq1GIrbe2tsp2ItgrkUgEvb29GBkZkXViZGQEKCRyifbKwsKCLabZjyTpftI0DR9++GHR9QbRXmKbTLT/9jxRms/nkcvlcOLECdtJoqurS657UY2Njc5FCIVCCAQCNXeHo7OzEy6XC+l0GkNDQzIBt7q66tz00DqIpI5IhHZ3d9uWd3Z2IpPJ7OtFhqZpOHPmDG7fvm270DZNE6FQaF9fm46vgYEBJJPJojvH0Wi05tpBIqLjbGlpCXV1dUXJl66uLiwvL+9r7+NgMAiv14v33nvPFq8YhoFQKLSvr01ERHZsk4kOxp4PvT9x4gS++eYbnDp1Sg5RF8Punz17BrfbjaamJjmUwjmcXWzrcrkwNTUFAHLo/V//9V8jEAjYhsPlcjlEIhEMDAxUPSzeObRDvBfn9ADWddb9FhYWcP/+fTk0T2zjnCZAURT5/5mZGfj9frhcLiwsLCAej8vXEp/BMAyEw2H4fD6kUimsr6/D5/MBJaYyEMT2KDM8RXTLtw7xdn7n1v83NjbK76bU57J+DuewcecQAOvnsv6uX375Jc6dO1f0etjH4Y0o/H4oJNVRYjib8/cX34/YbnV1FT/5yU/w/PlzbG1t4enTp7bfxHl86/JqhylYf0+U+N0rrbf+BrlcDqZpwu12F70nOto0TcOlS5dw9+7diol2Z710DstxlntrvUWJYchfffUVfud3fodD1OjYcp4brJztfDgcRkdHh6wzzvpWLr5wnl/KDb0vt594bXHjWJxHned15/ugo0mUk+XlZfn7O4cLW8ueNZYS2/3v//2/ce7cOaysrOAHP/iBrXyXOr51eam64OQ8VzjjuUrr4Yhx0ul0yViLjq9y8XI4HEZbW5tsF4PBIPx+vyw/ztF1zvZVlDlr/LPd0Pvt9hNt9OrqKs6dO2db72z/nfEW0YvaSZvsjB8qxfdsk4ns9rxHKQB8/fXXyOfzcvi9GHafTCadmx4oRVEwPj5eNP8NComHd999t2h6gL6+PgSDQduynfJ4POjr65Mn8O7ublvD5fF44Pf7bfu0t7fbEmKlho0DQDwel710+/r6EIvFdv1+fT6f7bvx+/3QNE3+3/k5mpqacOPGDaDQkDrnSfF4PDIAEVwulwwsDtri4iKam5vl+7l48SLq6uqQSCTkyWRmZkYOXzhz5ozt87e0tOCdd97BtWvX8Pnnn9uml1BVFfX19Zibm5Pbo1DmvF5vVT18xQW3GEYxMjKCjo4O+XtWWh8MBm3DMB4+fIjXX3/d8Sp0HDQ0NGBrawuZTMa5ykZcTExMTMje5l6vV05bIsp9MpmUQ3eSySSuX78ORVFsF89ivdvtLmoniY4jcU6NxWIYHx+Hoii4e/cuvF4vgsEgVFXFmTNn8PDhQ5kktbbBExMT+Ld/+7eqzi+lVLNfe3s7FhcXEShMu9Hd3Q1N0xAKhbCwsIBUKoXAERy+SnZi+L017vD7/XLYvbPsxeNxaJomt3W5XHj11VcRCARw48YNLC8vo6urSx5fLUxDFI/H5TIAqK+vh9vtxsbGhm25kzhXZLNZea6Ix+Po7++HqqoV18OSDBOjo+bn53Hq1CnnS9Ex5/P5ZLs7OTkJVVUxOjqKbDaLK1euQFEU9PT0IB6PyyRpf3+/nNpqZGQEz549K4pfRPxT6Rqpmv2amprwm9/8Rrbzp0+fRjAYRDQaxcTEBL799luMjIwwSUp7rto2udr4nm0yUXn7kih9+vQpnj9/Loffd3V1IZfL4dGjR85Nd+Sbb77BtWvXkEqlgMIdw4GBgYo9qoSLFy+iqakJ+XxeJg4ChQuIUkPYFxYWAKDkvFA7IV5vZGQEuVwOLpdLNlziszinExDvY2JiAvl8Hi6Xq+R7MAwDAwMD8jgoXNyJXi87IS6ohoaGkE6n4XK50NnZKddbv7fp6WkAQHNzM/7gD/4AbW1tgGVuIXGMUklgsc3o6Ki8mEPh9fdzHjjn8Puuri4kk0kYhoHu7m5sbm5idnYWKHyvjx8/tn3++fl52XtWbHfx4kV5zGrnCdM0DQ8ePEAsFsODBw/kxUxbWxtmZmbkMQzDQDKZRFdXV8X1cHweANB1fd/nXqXDIxKJyIsLUf+7urqQSCRknTJNE/Pz87abWJubm7h//748Tjweh9vthqqqJS+eJycn92QKFaLDzjpH6bVr12CapqxDPT09+NM//VM8fvxY9kDq6emxtdG6ruOjjz6q6vxSSjX7pVIpmQSdnZ3F8+fP0dDQINfT8WEdfi9iAhGXOM//s7Oz2Nrakhe8+XzediM3Ho+jvr5eJt13Mg1RsDCvvDWRJc4VYt5sFN7D5uYmuru7K653fh4UppGxxrZUG8Q1QiAQsF3jzc3N4cyZM7h+/Tqy2axs9y5cuIBkMinjHMMw8Mtf/rIofhFtt/UGQSnV7JdOp2XcpOs6VlZWDmQaMaJSSrXJ1cb3bJOJytuXRGkul8Py8jJcLhd+7/d+D83NzVhbW8PXX3/t3HTfWJMGIhklTmIrKytFyTiRqLTO9VRNL8Bq5PN5mKaJTCaDzc1NwHLs9fV1x9a/lc1m5UWZSJRud/ETKszRKpKOp0+frthbxUm8F9M0kc1mnavl5wCAjY0N5PN5AMCrr76Kuro65PN5LC0tARWOIbY5aNbEolroASreS0tLC5qamjA2NibLjc/nK0pgC2ahd4c1SWk9mVi3y2aztgBK13VcvnxZJs6xzR3C1dVVeL1enD17dtv1b7zxRtU9V+no29jYgNvttj0IzNkGKGV6M1v3bWlpkW2NkMlksLW1hYaGhqp7rhLVkmg0imw2C7fbLS9CyrXh2MX5RdjtfnQ86bqOtbU1dHZ2yovcRCIh23prT7yxsTGcOnWqbNxoGAYymQw6OzuhKApOnjxZNCIGjvOBEI1GESj0pBNxYKlzhTX+qbR+u/pDhEL5f/z4MRRFkcmdcnEOCmXyhz/8IYaHh2W96Ovrg9frLdnxRNjtfkQHodo2eTfxPdtkIrt9SZSicOc7n8/jxz/+MTweDxYXF52b2IjAXwzT3w/iRGodfq1pGt5++22ZJLQOa6r27qDYTvRKPUjhcNg2HER87051dXWor6+Hqqpobm52rgYsv4F1G2vwYe3VKj7r5uYm/s//+T/Y3Ny09UAVwcths7S0hPr6evzsZz+z9QBdXV2VPWqtf9sNmxHH+uM//mN4vd6yvTcXFxdt5aqUUic+IZvN4tGjR9uu/+yzz4oSsijRU5mOB8MwsLW1VfRwMqtSSXohm80ik8nIRLuzbG5tbWFjY6NkQlZRlANv54gOE03T4PV64Xa75aiC7drw3Zxf8AL70fEl4onz58/LHqCirbf2gBZ/otddKeJYPT09QOG84uS8KVxOqXOFsLq6WnF9qfpzWONIejlUVUVbWxs2NzflSLXt4pyNjQ08efJEjhIUf2J0QDm73Y/oIFTbJu8mvhfYJhP91r4lSg3DwPPnz4FCD9NySSSRoGxvb0csFkNvb2/JRF8pPp9PdjF3Er2rAoGAHM6dSCSQy+Xg8XjkncLBwUH8+3//72WC0dp7Q8wRul1PQVjm0+no6Kj6ve8l6zxqg4ODcLlceP78OQzDkD0/xWd+9913nbtL4jcYHh6Gp/CQKevv5nK5MDg4aPtulpeX8dlnn2F5eRmwfBdjY2NoampCLpcrmvOqnPb2dtn7d7+IBNObb75p6z2cSCTQ3Nxcce4iK13XkclkEAgEsLy8XPIiA5beRx988EHJsgrLia+3t1duo6oqent7sbi4WHE9CnXJOpetpmk4ffq05VXouDBNE7quw+/3y/lGS1lcXJRzFqIQ5GiahqdPn8I0TSQSCdTV1eHKlStynytXrsDtdssLcJfLZZs+48KFC0yUUs1SVRWXLl2Cruv4+OOP8dZbb0FV1ZJttLgRu5vzC3Z5XqLjTbTZ586ds3VAWFxctJW9aojh+T//+c/x+eefF8W5wv379+H1euU8vaWI2GpgYEAuCwaDaG5uRiKRqLhexNTWqa7EdFlEiqLg+vXrmJ+fx71792xzNTvjHFVV8Ytf/AKGYcDtdtvim2rsdj+ig1JNm1wpvmebTFTZviVKxUUDAKytrZVNIt2/fx/pdBooDMuemZmpmGycm5uruE0phmHgvffek6+HwmtubGxA13Xcvn3bNvdevjAnZ7k78ta5+nK5HGZmZpyb7LtSw02sT6N3zlOZSCSwtrZm21744osvbL+FeECFkMvl8Otf/1r+P5VKyafejY6OynlLhXQ6jffee6/sby9YH0i130S5dE4BYBgGHj58CL/fL5PO1SRtFxcX4fF4Kk4nICbUtg7lGR4elvPbofAdWrcZHh7GzMyMLH87Xa9pGr788kvb+6DjQ7RZHR0dskyJGzZiWFo0GkU8Hpc3OMbGxrBseaqxYRiIRCK2Y7RZnixbav3KysqB1Veil8l6EzIWi+HP//zPcf36dWQyGei6LoeCiocWOtvgq1evIpfL7fr8stv9hHg8jubmZsRe4CGPdLgYhoG1tbWiG9nRaLQoxtjuIhqFeOjp06eAZQ73UkzTxLVr15DNZm3TQAwODuLTTz+FUbipduvWLXi9Xrm+t7dXPmG50noU4iTra3R1dXE+vBpknUIiFoshHA7LB8fOzs7CMAx8+umnuHr1KjRNK4pzhoeH8d1338E0Tdy7d68oRqrUFu52P0F0ohgeHt7V8yKIKqmmTS4Vv1vje7bJRJW90tra+r1zIdWWSCSC9vZ2LCwsyASKlaZpuHr1KvL5vK0Bpd/efevp6ZEnHiIiIqKjIBwOo7GxkdM5EBEREVnsW49SouNODH0vNTUDERER0WGlaRo6OjpKPsSJiIiIqJYxUUq0C5FIBMPDw0gmk2WnZiAiIiI6TBRFwfj4OAYHBzEzMyOn/yEiIiKi3+LQeyIiIiIiIiIiIqp57FFKRERERERERERENY+JUiIiIiIiIiIiIqp5TJQSERERERERERFRzWOilIiIiIiIiIiIiGoeE6VERERERERERERU85goJSIiIiIiIiIioprHRCkRERERERERERHVvFdaW1u/dy60Onv2rHMRERERERERERER0aH06NEj56KqVEyUEhERERERERERER13HHpPRERERERERERENY+JUiIiIiIiIiIiIqp5TJQSERERERERERFRzWOilIiIiIiIiIiIiGoeE6VERERERERERERU85goJSIiIiIiIiIioprHRCkRERERERERERHVPCZKiYiIiIiIiIiIqOYxUUpEREREREREREQ1j4lSIiIiIiIiIiIiqnmvtLa2fu9c+CIURcHNmzfR1NQkl6VSKYRCIdt2h1mpzwAA6XQat27dgmmatuV0+AWDQfj9fkxNTUHXdbk8EonA6/Xi1q1buHjxIvr6+jA9PY1oNGrbHwBUVUUoFMLa2hpCoZAsJ/Pz8yW3LyUYDKKvr8+5GAAwPT2NjY0NXL16FS6XSy4X5Q7Ajl+Pji9nO5XP54vK93GiaRouXbqEu3fvwjAM27pIJIL29nbbMgDI5XKIRCJF2xNtR9QtAGXP+eFwGN3d3buuc+FwGI2NjVXHRpFIBOvr6xgdHXWuOhCKouCdd97BJ598goaGBvT09JT9bkrZTR0V59xkMmn73OXO57XAWW7Ed+TxeIAS36dzPQAsLCzYvk9R3uvq6op+i+3a3WAwiP/8n/8z/sN/+A+2mEVwvg5RJbUW15Qj6u3MzMy+xPviWqTa653d2M01ElVPVVXcuHEDH3/8sawf4XAYPp9PbuNsg53rnecLWMqGc19sE4eI+OD/+//+PzQ0NNjWoczrEB0Fe9qjVNM03LlzpyjB2N7ejsnJSaiqalu+nWAwiFgshkgk4lz1wsLhMGKxGMLhsHPVkXOcPst+ikajWFlZwYULF+QyTdNQX1+Pe/fuyYu9XC6H8+fPQ1EUy96/5ff7bRcbuxGNRhEIBBAIBLCwsIBUKiX/LwKJXC6HkZERufzatWtVX4xSbVBVFR988AHm5+dlOZmampLlMxwO70vbKez38XcqFAohEAhgaGgI6XQa09PTCAQCGBgYYGBGu7K1tYW6ujpcvHjRuQqqqqKjo8O5+Fi7ePEi3G73ruvTbuqoYRiYmZlBR0eHjB8VRUFPTw/i8XjNJU+cNE1DKBTCw4cP5Xngb/7mb2T8omka3n33XSSTSbl+aGgIbW1tGB8ft8U5W1tbQCHOqYb4Hf7u7/4Oly9fRiAQwPT0NNLpNIaGhhAIBIoupom2UymuOUo0TcOHH35Y9XWvc3vDMDAwMLCvCcb9vt6hgxWJRNDY2Ghr67/77jvb+o6ODtv15czMDIaHhxEMBm3HyuVyOHPmTNXlV8QH//2///cdn+criUQizHHQS7NniVJVVdHf3w+Xy2ULlCYmJpDP5+HxeDAwMODcrayWlhbnoj3T2NjoXFSWqOSBQ5qw2slnqXWTk5Nobm5GMBiEoijQNA2PHz8uarx/9KMfFZ0cVFXFmTNn8OTJE9tyopdBURTk83kkEgm5TNd1fPTRR7btiGh33G438vk8urq6nKvg9/uxubmJXC7nXHVsdXV1YX5+/sBjoGg0irW1NRk/XrlyBQAwOzvr2LL2NDQ0YHNz0xbDfPTRR9B1XcY4iUTClrA0TVOOULHeBHC73fjHf/xHdHR0QNM0ubwcVVWxtbXF34H2DOOag8frneNBURR4vV4sLi7KZaZpYmxsDCh0Pmtubi7q1RmNRjE9PY2enh5bwnxzcxPZbLbqvM3Lig+I9tueJUq7u7vh8XiQz+eh67qsLLquy5Nec3MzVFVFJBKx9YJUVRWTk5N48OABNE1DJBKRXcPb29vlctF7UtxdiMVituMoioLx8XHEYjF5d0TTNDx48ACTk5P4gz/4A4yPj8vhXz6fb8c9XQXr68diMdvdeetrfvDBB/L9lHr/4rOJHrTOXrTO1xHbi8+6F5+lVhiGgWQyiZ6eHvyX//JfAAD379+3bbO5uYl//Md/tPU8RaF8ZzIZPH361Lac6GUwTRMulwvd3d3OVbL9bG9vl22Pqqr48MMP8f7779vaIGtbI9oU651l0ZZZ29pSx3f2hoCj12mp14dl5IC1bRPEeUGsP3/+vFy3E87jWO9Mi/cozkml1ovl1vbVeq4p9d7D4TD+8i//EuPj43Kd87t03sGnw+eLL75AfX297bdVFAUnT57E/Py8bVtnObPGBMFgEOPj4/jLv/zLkr+9KE/Wfaxlb3x8HG6327aPte7ELHWqVD0WZVwQ5V7Uy6GhIVk2S8URqqrC6/XaEhjlOGMW52ctxVmfrO8VAObm5uRNzjNnzthizFq2sbGBurq6ot8Lhd/M7XYjHo87V8E0TSwvLxfdBFheXkYymZQx5nY6Ozvx9OnTir9DuTZe/OZDQ0Oy3jjbUWu7bK0bzrpWqm1+//338eDBA7lfuWPR4bFdXCOUK09wlIsHDx5gaGhIxiWlylskErG1Pc7jbdcuiTZdxDTW9cFgEIODg/jhD3+I4eHhkvFOzBJrlNq+VDvubFutscp276ecnV7vOF+/3HsrdQ6BJZ4U77uafag6pmkim80WtelCV1cXkslkUccgAEgkEnC73UXffywWk+fd7VQbH5SrT6LeitcR2929exfjhTyHz+crqp9EB2HPEqWiB+jz58+LKuLS0hLy+TxcLteeBCei0gg+n69iRd6tvr6+opNSxJLIFZqamnDz5k3b5/N4PPjxj39s2w6O9+9yudDf328b7nT69GnZGDh7jIrtz549a1tO1RGJ0Z/97GdlL7bm5uZsF8dKYYiZ9U7dfvJ4PBgeHi4qd0SCYRh4+PAh/H5/UYAZCoVs0zqIoVsulwuvvvoqAoFAVXNOaZqG/v5+TE1NIRAIYGRkBM+ePSt7/Eqcrx8MBtHb2yuHAcXjcXmBrlrm5xLDeFpaWkrOg7cd53FGRkZw5swZW7DV3t6OxcVFBApDR7u7u2Vi88yZM/L9PXjwACi0Bzdv3kQ2m5WjDeLxOPr7+22/w2uvvQZd13H58mUYhgFN0xCPx+X7WF9fl9vS4fTs2TM8fvzYdiEphpgtLy/btu3u7raVM+ew/aamJnz++edFdcZansSolXA4jLa2NjkyZ35+HqdOnZL7BAtzdE5MTMj64fV6EQ6Hi5JgqqqiublZ3qhGIa4Q5zOXy4WzZ8/inXfewdDQEDY3N4t6kfj9fmSz2aLYzklRFPzgBz+Q73thYaGop4qT+PzLy8u2z2KN6XRdRzKZRF9fHx4/flzzQ+4FXdcxMzODwcHBouRfQ0MDtra2kMlkbPsIq6ur8Hq9Rb+NiJFEz91S1EKPs6WlJecqm+3aeOH8+fOIRCIIBAJYWVmR64PBILxeryxLoueqaNOt0wkkk0lcv37ddtyWlha88847uHbtGi5evFjyWHS4bBfXoEJ5cp7r33nnHZw9e7YoZhDlbWRkBM3Nzbhz5w50XZflT7T11bRLTU1N+M1vfoNAYfTk6dOnEQwGEY1GMTExgW+//RYjIyMy3mptbZXvfXp6Wk4pUm57q3A4bBs2PTIygo6Ojqrez3aqvd7Zrm0vFytZaZqGq1evIh6PY3R0tKp9aGfu3r0Lr9dblMRWCr1NV1dXbdsLmUwGW1tbRXOLfv3115iZmUFvb29RXbSqJj7Yrj6Jev/WW29BVVUZN0UiEVy7dg2pVAoLCwu4fPkyz/104PYsUbqXxIU4Cg+CclYO69D+VCoFFO6WVPLNN9/ISofCJMc7nTdDXHTAMix/ZGQEuVwOTU1NRfOZiW2sF0bi/U9PTwOFC5WpqSl5HJfLJRssMa+X9XVcLhd+8IMfvPBnqWXW79jp66+/RiaTQWdnJ2AZnnZQwbVzjlLO80WliCScmGOoUu+BfD6Pubk55+KyLly4gGQyKdtewzDwy1/+0rlZ1Zyv77zDPTs7i62tLaiqiu7ubmxubso6Z5omdF1HPp+X+1fDeRzDMPD48WNZt1E4x4j2eXZ2Fs+fP5dtg/Xm3q9+9SsYhgG10FNrcnJSHmN2dhabm5u2njArKytFQZ24oWgYBn71q1/Z1tHhtLS0hPr6eqiFXkk9PT2Yn5/H8+fPbdtFo1FZjgzDwNramm0KoXQ6XfIccuPGDWSzWXlxrCgK2trabMPYotGoPNejUHcSiYQsX6ZpYn5+Hm1tbVAUBUtLS3C73VAUBYqiYG1tDc+ePZMJBWvvD+soIHEcawJNKfSgrabtME0Tf/EXfyHft3gf9fX1zk0lUZ9Ez0fxHsrFdM6bx7UuWpj3fHl5GWNjYy98Y1W0tdvNTyd6nDnbN6ft2nhhZmZGrp+bm7OVl7q6Ovnvjz76CKZpyjbdOhooHo8X9YhyDgMtdSw6fLaLa7YrT85zfbmYQZQ30UZbz9OLi4uy7aumXUqn07Ic6rqOlZWVbaeNGxkZke89kUggn8/LdnY74pxgrStGYYTci7wf7OB6p1LbXipWEn70ox+hv78f8Xjcdi283T60c6Zp4tq1axgZGUFvb2/Jmw07FS1MfVNu7upq44NK9UnXdWQyGfT39+Ott96SMQnRy7ZniVJxp8IajAidnZ1wuVzI5/N7UvCz2aw8zn73yrHOUTo6OgpFUeByuZDL5eSFRiaTwebmpnNX2zZW4v1vbGwgn8/L76XUcazDhYaHhzm59gu6cuUKstlsyTlZrObm5uSFQldXF5aXl/ek7BLttWg0autRtheUCnegX5Q4vs/nk+3b2NgYTp06hYaGBrS0tNja+d1qaWlBU1MTxsbG5Ov4fL6qki26ruPhw4e4evWq7Q59qZ5aZmHYU7mLErMwL2BbW5ttyBEdfiKA93619GoAAIlCSURBVPv9MtgvdV5XHMPKSj3h3am9vR1erxd3796Vy+rr6+F2u7GxsWHbVihXNzc2NuSFq2ma8Hq9UFUVnZ2dWFxcxNOnT9HZ2Ynu7u6KvT+sxIVWtdsHLcNLBwcHi3p0OTU0NMghp2K/vr4+W7JW9D768MMPi6ZCqEWl4t7R0VFbLzNreShluzZWlHlnz2Khq6urqMeZU6U2vpJoNCqTZdYhl6Xed7keUUK5Y9Hh5YxrKpWnUuWikvX19ZJ1CVW2SzulWabf2cn1XLlzQrle4TtV7fVOuba9XKwkvPnmm0gmk7YkaaV9qDpbW1tFv5VReBCY6GmPQt6hXHxarnwJc3NzZeeurjY+qKY+TU5OQlEUjhqhQ2XPEqWJRAK5XA4ej8c2BEbTNNnLxjk/hrhYFfObVktULKVwlw0lAkfRIIgk7V4xTVM+nEp8rvr6etTV1Tk3fWGapuH06dNyiKt4MBbtjqZp6OjowNzcnLxbWm54mbhQ+JM/+RPU19eXnOeL6LAwC8Ntq0kAVqNS4u9FieNbb0SJv2g0WvICoKGhYcdt+erqqmw/rX+lhraVInq3iDv0lRIQzuSVlVm42x8IBIDCTTA6Gubm5nDy5En84R/+YckHACqFYWXWpzVbe4CWk0qlkM1mbdP2lEr6iCQBKtTNbDaLTCYDwzCQyWRw/vx5NDY2IpFIYGlpCSdPnkRbW1tRvLSdCxcuVDUXJQoX0j09PXLETzUxy8bGBp48eSL3EX9iGgLF8uDFX/3qV3j8+LEcbluLtmvjRS+5lpYWGIaBra2tkvM9ith5u2TnZOHhl865oTVNQ319fcmbBVaV2vhqRAu9ZaemptDf3w9N00qeG1BIGJS70EeZY9HhZo1rqilPznKxm5hBqNQu7ZSmabh06RJu376NgGWEYDVKnROEnSaHS6nmeqdS214qVhJ+/etfo6Ojo+hG/nb7UGWKosDtmLvcytrrd3FxUY44ceru7sbW1lZRXCPohalvNE0rer1q44Nq6pPf78ezZ8+2Hc1AdND2LFFqGAZmZmaAwjwpogePuOtkHRIggnTxMJDe3t6ywbT1YU6COP7Y2BiampqQz+extLQkT6QozFsai8XQ0dFR9ti7eQCSCERhmb9U3BksN7TuRYnvabveGbv5LLVEXGyJocRmYVhOubtkKAzDOXfuXMkL4+0oJSZhJ9pLmqZhaGhI/l9c+O4kAbK6umqbt/DKlStoamqS6xcXF+V8nSjcOf7FL34h11uZjocwWG+QlbO4uFh27qONjQ2cOHFCDgNTCkOedyqRSFQ1GX0pwWBQ7mft7S8SENbeVsHCE0XLJQ9UVcXw8LD8/05+J3r5DMOA2+3Gj370o5IXkc4eGaplip5KQqGQLVkq4hjriIeLFy9uWzfF+c16wbK4uIjf/d3flRdA4hzW2tpacW5JQS0M0y/1mUtx9uqq5ka1+G7L3bQUy0X8WM0cmseVqqqor6+Xv5+1jRLrm5ubsbq6KmMcv99v20axzIm7XcJSxPTnzp2z/YadnZ1Vx0TbtfGVDA0NyfJtFjoooNCm19XV2X7/K1euwO12l31P5Y5Fh0uluGa78rS0tLQnMYNQqV3aKedIlJ10EBIJY+tnV1UVvb29297s2IlK1zvbte3lYiXh2bNniEQitmRppX2oss7OTnljVFEUvP/++7ZEaGdnpyxz0Wi06KYsLPOdVxrqLs671rnSdxIfVKpPwWAQbW1tuHPnDh4/flx2NAPRQduzRCkKd2xL3SVbWFiw3TW4f/8+0uk0UJgfa2ZmpihwicfjRccRUqmUrbdGPB6X3bQnJyflfrlcTiZvrebm5opebyesc6gKqVRq13cay9ELc8yg8D1NT08XfScv+llqxY0bNwDHU+51Xcfa2hq0Mr1TZmdn8eTJk4oXldYHfsViMfT39wOFgH43nA9zYgKcnEzTxPnz52UZGRsbw/LyspzPNh6Po7m5edshTdHC3EOirP3gBz+Q7bJYH4/HMTg4KG8Ifffdd0CJ44uLalEXNE3Dl19+aXm1YtFoFMlk0lbWxQNJdF3H1NQU/H4/YrEY7ty5g0ePHu24rTMsD4cQr+G88VbOxsaG3E98v9FoFGZhGL23MGl+rHCzLxKJlLzAQOFC4OTJk3L7trY223BrOtzMwnxaa2trJX9jozD3ragroVBoRxd+oizcuXMHmqbJ5Km44dzV1WWLeZx101n/YTn/fPXVV0DhM2xtbW3bc8Rpu2H6ziktxsfH8fnnn8t2IRaL4eTJkxXrrGmauHfvHjo6OuR+sUK7EgwG0d3dbbuIE7+FNVF83KmFpwIPDw/j008/lfGutY2KFdromZkZmQDVdR23b99Gb2+v3EaUlWp61Ucdc+MqhfnoKsVEwnZtfCXPnj2znXvE5zYMQyZdxDHb2tpw69atsvF3uWPR4VIprtmuPOm6jng8LmOQ3cYMwnbtUjX0Qi/N4cI8q6ITjWgze3p6bNdzzu2dRkdHbZ/dWddfVKXrHWvMF3O07eViJSsRi3V3d2N8fBz/9//+34r7UGnhcFi2eyJ2ME0Tr776qu2c7GwXQ6GQnMtabNPb24vbt29XbA/NEnP+bhcfOG1XnzRNg9/vl/NK379/H16vV9aDubk5dHd3Vx27E+2lV1pbW793LjyswuEwfD4fUqlUVUEe0csQDAbR0tLChzAREdGRJHoezs/P8wKWAMvw2+2SkkSHBcsr0f5gfEC1Yk97lBLRb+96M0lKRERHlaqq2Nra2pfphOho6urqKnqaPNFhJIaml3swERHtHuMDqhXsUUpERERERERHjqqqCIVCtnk/FxYW2GmBiIh27UglSomIiIiIiIiIiIj2A4feExERERERERERUc1jopSIiIiIiIiIiIhqHhOlREREREREREREVPOYKCUiIiIiIiIiIqKax0QpERERERERERER1TwmSomIiIiIiIiIiKjmMVFKRERERERERERENY+JUiIiIiIiIiIiIqp5r7S2tn7vXGh19uxZ5yIiIiIiIiIiIiKiQ+nRo0fORVWpmCglIiIiIiIiIiIiOu449J6IiIiIiIiIiIhqHhOlREREREREREREVPOYKCUiIiIiIiIiIqKax0QpERERERERERER1TwmSomIiIiIiIiIiKjmMVFKRERERERERERENY+JUiIiIiIiIiIiIqp5TJQSERERERERERFRzWOilIiIiIiIiIiIiGoeE6VERERERERERERU815pbW393rnwRUUiEbS3t9uWpVIphEIhKIqCmzdvoqmpybY+nU7j1q1bME0T4XAYPp9P7iOUWy4Eg0H09fU5F2NhYQGjo6POxftCVVWEQiG4XC5MTU1B13XnJvSSRCIRnD59uuh3UVUVN27cwMcff8zfi46ESCQCAEXtYCQSwfr6+oG1d0THjYhRlpeXbfVILJ+fn0c0GrXtQ7SfWCapFjCuIaosGAyit7cXkUgEhmHYlvf09MhcChG9uD3tUaqqKiYnJ4uSpNVoamrCzZs3oSiKc9UL8/l8CIfDzsXkEAwGEYvFZLByHOVyOVy4cMG5mOhImZycRH19PTRNk8s0TYPb7cb9+/dt2xJR9UzThK7rOHPmDFRVlcsvXryIbDbLhBQdOJZJqgWMa4gqi0ajWFtbg9/vl8sURcH58+eh6zqTpER7aM8SpYqi4Pr16/B4PMjn85iYmEAgEEAgEMDIyAj+5V/+xbkLpqenEQgEMD09DQA4ceKELQjcrXQ6jaGhIQQCAaRSKQBAY2Ojc7N9YRgGBgYGcPny5SPXO7GlpcW56Nj553/+ZzQ3NyMYDDpXER0ZhmHg8ePHMumvKAo0TcPnn3/OIInoBem6jkwmIy9EVFXFW2+9hbm5OeemRAeCZZKOO8Y1RNWZm5uz3Ti7cuUKtra2jlzegeiw27NE6cWLF9HU1IR8Pl80tNkwDIyMjNi2t0okEsjlcnC5XGhoaHCu3jVFUeD1egEA6+vrcnk4HEYsFpN/1qSZ6BUbi8UwOTmJoaEhxGIxjI+PQ1EURCIRxGIx2UNVbP/gwQNomrbt/99//33bvqIHp/grdcxgMCjfTyQSgaIoGB8fRywWk68hWNeJ9y8aUfGZI5GI7fOL14xEIvD5fACA9vb2omMfF//yL/+CmZkZ9Pb2bpuUd/42x7mXLR1N8Xhc9r64ePEiAGB2dhZwlF9nXRZtWMzSrhGRnfVCxO/3I5PJyLjGeg61nmet8YP1/Eq0F1gm6bhjXENUmfXGmaqqOHPmjLxptl2bX+48QUSl7VmiVPRGfP78OQzDKKqozpOaVXd3t+yJurGx4Vy9Y01NTRgbG8PY2BiampqQy+UQj8cBR0JQ8Pv9MqkZCoXg8XgAAB6PB2+++aZt291yuVw4d+6c/H84HC6aT9Xn89mSti6XC319ffL9tLe34y/+4i/k/K4ul0veeVVVFR988IFt7lePx4Pr16/bAob29nbb5+/o6Ki5hlIMWxgYGHCuAgrBmN/vl72ih4aG4PV6eYFBh4roffGHf/iH6Onpwfz8PEzTlPMXjYyMIBAIIB6PQ9M0KIqCYDAIr9cre9yLCxAishMXIv39/baLkHA4jLa2NlmHksmkPJcMDAwgmUzK88bXX3/tOCrR7rFM0nHHuIaoOuLGWX9/v7xpJvIYMzMzckTvmTNnoGkaNE3DmTNnZB168OCB85BE5LBnidLd6OvrQywWkwnDlZWVPe82nk6n8d5778nkbXNzs21qgIWFBbhcLnR2dsqEbS6Xkw3JwsKC85C7trCwgEAggPv376OtrQ0oMf1AV1eXbZ/p6WkMDQ0hnU4DADKZjO19eb1eKIoi37uYdkDs45zOQKyfmJhAPp+Hy+WCoigIhULymKlU6khOHbATpeZCErq6upBIJOTnN00T8/PzaGtr411qOlTu378Pt9sNWHpddHV1IZlMykneZ2dnsbW1JduBuro61NfXAwA++ugjDmkjKmNychKKosiLEEVR0NbWJi/eUegB5fV6Zf0S0/yYpomPPvrIdjyiF8UySccd4xqiynRdx+PHj/H666/Lm2bd3d3Y3NyU9UbceOjs7AQKHazEdeyvfvUr28OgiKjYniVKV1dXAcs8o2KuzpGREeRyOefmRRYWFoqedCiSgIII9qzD6EsRycBUKoWmpibcuHEDKAxNd7lccLlcGBwcRCwWs/WuFL1i19bWZOMhPteLyufzWFpaAgDU19ejrq4OKJEsthI9bE3TRDabBSyf3fm+xHt39qZ1ymazME0TpmnKROleTndwVIiTh6ZpOHHihFyuFKZrcH6/GxsbcLvdMhAjOgxE27C8vAzTNGX59fl8sjf/2NgYTp06hYaGBkSjUczMzGB4eHjbXv5E9Nsbk5ubm1hcXAQs525x3o7FYhgeHsaJEyfkDUcAHP5J+4Zlko47xjVE1VldXZUjeVHIBYg8gKgrPp8PjY2N0HUdDx8+xNWrVxFzTDtIRKXtWaLUOs9of39/VcO5RW/KQCCA0dFRudyZdEXhyYenT5+2ra9kbm4O+Xwe7e3ttgbB+bAp5+s3NzfL13X28BRE0lb05Nwt63cQCASKksU7ZX2QVSAQOPY9Q1+EeIrmH/3RH8llIkAr9WCrbDaLTCbjXEx0aIjy62xXAoGAfDJyNBpFIBDA1NQU+vv7eVFBVKVMJoNnz54VxQ/W82woFEIgEMDy8jJu3rzJxBTtK5ZJOu4Y1xBVZ3V1FalUqqieiNyCruu4fPkyRkZG0Nvby2QpUQV7lig1DAMzMzNAYW7M4eFheWd7p4nE2dlZpNNpW8/PwcFBuFwupNPpquef0XUdiUQCANDb2wvTNLGysmI7rvUu+9LSEvL5vO39t7e3244penS2t7cjFouht7cX+Xzetk0lhmEgmUwClh6lsRecWDkejyOXyxXdSdrNvJrH+WFOVqZpQtd1vP7667Yyuri4iO7ubvn5lcKTN58+fcrhPHToLS4uln1Y2dDQkCzXolc5EVXHNE08ffpUzo1npSgK3n//fbm82hu6RC+CZZJqAeMaosoSiQSam5tLJkCDwaBcLkYmENH29ixRisIdvXJD7ePxeNU9G03TxK1bt+S8nEI6ncatW7d2lKwSCUSPx4OBgQGEQiGkUinnZkAhsSoe+oTC633yySe2be7fvy/fVz6fx8zMzK5OyqOjo3s6/6lhGIhEIiW/+2qJ76qWWJPpQjQaRTwel8n0sbExLC8v23odEx1W0WgUyWRS3uyx3gx69uyZLNfDw8P49NNPq26Xiei35+5sNmu7IRmJRGCaJl599VW5vLe3F/fu3dtRvEK0GyyTdNwxriGqzDAMPHz4EH6/X9YT0fFpY2NDLhfXtaJHNhGV9kpra+v3zoX0/wSDQfT19e0qSUtERERERERERERHw572KCUiIiIiIiIiIiI6ipgoJSIiIiIiIiIioprHofdERERERERERERU89ijlIiIiIiIiIiIiGoeE6VERERERERERERU85goJSIiIiIiIiIioprHRCkRERERERERERHVPCZKiYiIiIiIiIiIqOYxUUpEREREREREREQ1j4lSIiIiIiIiIiIiqnmvtLa2fu9caHX27FnnIiIiIiIiIiIiIqJD6dGjR85FVamYKCUiIiIiIiIiIiI67jj0noiIiIiIiIiIiGoeE6VERERERERERERU85goJSIiIiIiIiIioprHRCkRERERERERERHVPCZKiYiIiIiIiIiIqOYxUUpEREREREREREQ1j4lSIiIiIiIiIiIiqnlMlBIREREREREREVHNY6KUiIiIiIiIiIiIah4TpURERERERERERFTzXmltbf3euXA3FEXBzZs30dTUZFueTqdx69YtmKZpW35YRSIRtLe3Y2FhAaOjo87Ve0a8jtX09DSi0aht2UEIBoPo6+s7cr/VTh2m75zoRUUiETQ3NyMSicAwDOdqWa9fpIxrmoZLly7h7t27JV+D6LhSVRWhUAgejwcAkMvlZF0Lh8NobGxEKBRy7ka0L0SMDaBsnBYOh9Hd3Y2pqSnouu5cXRWWbXqZGKcTVVYpvhfxy9ra2q7bclVVcePGDXz88ce7Pp8QHXX73qO0qakJN2/ehKIozlU1q1QgQAdjYWEBgUBA/pU6wVRD0zR8+OGHUFXVuYrowOTzefj9fudiKIqCnp4e5+JDhXWIDitN0xAKhfDw4UN5rvibv/kbxjH0Um1tbaGurg4XL150roKqqujo6HAuPlTC4TAikYhzMZHNXsXpqqriww8/hKZpzlVER14ul8P58+dLxiV+v1/e5D2MWDfpqNiXROn09DQCgQCmp6cBACdOnDgyF8OhUAiBQGDfepOqqorm5mbA8j1Zvysiop1oa2srCpQuXrwIt9uNb7/91raciCpraGjA5uamrRf1Rx99xF4V9FK53W7k83l0dXU5V8Hv92NzcxO5XM65ioiIjqEf/ehHRfkVVVVx5swZPHnyxLaciHZuX4bei67g1qFr09PTaGlpgc/nw5MnT+B2u1FXV4dIJIJMJlM0bN859N05tD+fz8vhRaILeql9nb03xTrnPmLY+Y0bN2xD761D8RsbG+WxrN3dNU3D1atX4XK5kE6nsbq6inPnziGVShV1ebd+J6WGuov1LpcL8Xgcvb298Hg8tmF/zuOgxBQH4XAYPp9PHtf6fq375nI5fP7553jzzTeLjnHcRCIRrK+vFyXBt/sunesWFhawurpqKzulfmei/RaJRPCv//qvaGlpwfz8vK3XRSQSwT/8wz/gP/2n/2Rb52z3nGXXWd6/+OILtLa2yqH3znbYun84HMbJkyfhdrtx4sQJTE1NwTTNknXr4sWLJd/HdscnOiiapqG/vx8PHz4smRx1Dk8uV69EebbWQdGjzlpvONSZKhFl6dGjRzh37pxtOKSiKHjnnXfw+eef46233rKtc8aCztjaWnZzuRxM04Tb7Zbl0XlOEPuL97O6uoqf/OQneP78ecm23RlLC6WuE6zbU23aqzh9aWlJXpc5tyc66oLBIHp6erC6uopXX33VFj8Eg0F0dXVhfX3dFls464kzr+CMv7/66iv8zu/8TtnziXV/8X62trZw6tQpTE9PY3Z21nY8sb2iKGXrZrnjE70s+9KjVOju7obH40E+n8fGxoZcfurUKVlx/uN//I/44IMPiuY29fl8CIfDQKFyl9oGhUprDcpQ2DcYDCIcDpcc4q5pWsnhqtvx+Xy2Y/X09EBRFFuSFIWpBs6dO2fZ084wDCSTSaCw7djYGMbHx4t6hLlcLvT19ckGzePx4Pr16/I13333XbkOhWPduHEDKAQa1sAYhd4GmqYVNZQejwdvvvmmbdta093djZmZGQQCAYyMjNiGtg0MDCCZTCIQCGBoaAhff/01otEoJiYm8O2332JkZIQXuPTS/OY3v8H8/Lxsj1Bo3+rr6/Ho0SPbtsFgEH6/HxMTE7I8e71eWzsbCoVkXRgaGkJLS4ts20QQtby8bNs/GAzK13jttdeg6zouX74MXdfL1q1Sdaia4xMdBF3XMTMzg8HBwZLnZ6vt6pVpmlheXpY9ANXCiJLm5maohV4gjY2NWFxcdByVqLRnz57h8ePHuHDhglwmRhAsLy/btg2Hw+jo6MDIyIhsgzs6OmSbGgwG0dvbK9c/fPgQr7/+utzfeU4YGRnBmTNnbMMlW1pa8M477+DatWswTROtra3yeNPT0+jo6JDHWVhYQCqVQqAwnLqa4xNhF3G6ruu4ffs2vv32W0xMTMjySXSczM3Nob6+XraZSmHaLWdMIdpaUU8CgQCSyaTMKzjj70AgALfbbcszhMNhtLW1YWhoSO4/MDAg1zc1NeHzzz+3te+PHj2S9XJzcxN+v79s3ax0fKKXYV8SpX19fYjFYjKBubKyYuuVkcvlMDIygoGBAbz66qvwFHo2WoMrADLAEnNtWLe5fPkyDMNAW1sbUGK4v3VoknU/511KsV+lk6gI7sTx6+rqUF9fj87OTtmTdGhoCENDQ0in087dbUZHRzExMYF8Pg8UGpc7d+4UBYfivYltxRQG4jXFexoZGUEul0NzczMuXbqE5uZm5PN5eeG2sLAAl8uFzs5Omby2ficLCwu21z3OfD4fYrEYYrEYJicnoaoqotGo7O1jGAbW1tbQ0tIi92lsbAQAmKaJjz76SC4nOgwSiQTcbrdMvFy4cAGPHz/G119/bduuq6sLiURCtsWmaWJ+fl4O3e/u7sbm5iZmZ2flel3XZTulqircbjfi8bhtf2tb62zrK9Utq2qOT3RQotEoAoEAlpeXMTY2Jm8oOFWqV0tLS3C73fJiZG1tDc+ePYOiKFBVFV6vF4lEwnlYorKWlpZQX18PVVXlhfH8/DyeP38ut1EUBW1tbZiZmZE9csSNetGmdnV1IZlMyvW6rtvKovOcYBgGHj9+jM7OTrnN/Py8LXYeGRmRx0skEsjn82VvNFRzfKo9jNOJqvP1118jk8nINlPcPBBtqiDa2vv378tl8XhcXjs4428AmJyclFO5iPOJtb2Px+Pwer3y2iOdTtteV9d1jI2NAYV6uby8LOupUzXHJ3oZ9iVRarWwsFDU425tbU0GUuJEZ122sbEhL85hOQFaAzoAqK+vR11dHVAiOYtCJcvlcvB4PBgeHkYsFkMwGISu61hZWbHtV2mC+fX1dcDy3lwuFxRFke9teXkZpmnKxqAS0etKJDldLpeth4C1F65pmiW/j/b2dsRiMQwPD8u7Pk1NTXC5XHC5XBgcHEQsFrP1Li31fa+ursr1x511kviBgQEYheHE4+PjMjCz9hwWZTcWi1XsWUT0MoiLywsXLkBVVdTX12Npacm2jaIo8Hq9RXV9Y2MDbrcb9fX1aGlpQTabLXvDqKGhAT/84Q9lWyraW6/XW7ZebFe3nHZzfKL9Njo6WtQTT6imXpmmKYP9zs5OLC4u4unTp/LGZTabtcU1RJXouo5MJgO/3y8vcJ3J9vr6erjdbttoLhTiPa/XizfeeKNk2bVqaWmRI59Em+zz+cpe7KIwouHBgwdFsWkpuzk+HX+M04mqNzc3hzNnzkBVVXR1dcl8hFWp+D6TyWBrawsNDQ1oaGjA1tYWMpmMbT9B5FtEzkS07ydOnNi2vkUiEVvbXs5uj0+03/YlUWp9SJGzB6eTCNKsQ9EaGhrkcE9YkpTWh5a8/fbb+OlPfyq3sb5mIBBAKBSCYRgYGBhAIBBAKpUCAPT29kItdEG39hBtb28vugjaCfHexF2RclRVlXN0wHJn1MnlcqGhoQFwTGFgbeREj1JrQCEmb7b2KC31W1i/71rusaVY5pAT35MoK4IoK8vLy7h58yYbbTp0xJ3X/v5+ZDIZW69OFG62ZLPZkr05s9ksMpmMvIC2lm9rW7yxsYEnT57IYTHir1xv/GrqltVOj090UEr1YEKV9cowDGQyGZw/fx6NjY1IJBJYWlrCyZMn0dbWJuMbop2Ym5vDyZMn8Yd/+Id4/PhxUbLdehHslM1m8dlnn5Usu9Yk5erqalGcGSjE16VomoZLly7h9u3bCFhGO5Wz0+NTbaomlmCcTrVK3Dj7kz/5E9TX19t6hQql4nsA2NrawsbGhu3mrqAoioz/M5kMnj17VpRXENNslSLmGxbbbjd6dTfHJzoI+5Io3YlEIlHU61P0ChU9SJeWlpDP5213ni9duoQnT57I+T6tdyHEUI1wOFx093FzcxNdXV3yjrd4Lec8qtUS84CI9zY2NlZyLlWr5uZm2x108d6cc4o4e8mKXqBzc3PI5/OyR6n4s/aWtfYojVnusorv0vp9b9fL67hz9rpQC3PIoXCSeP/99+WJZbueF0Qvk2EYyGazeP311zE3N+dcDRTal+7ubttcRpqm4enTpzBNExsbGzhx4oQcuqMUhnQKhmHA7XbjypUrctl2tqtbpez0+ET7JRgM2m6cirJb6hxQqV6JbX73d38XW1tbMAxDJrVaW1uLen8TVUO0lz/60Y9KXhiL0U2icwAK5bi3t1fGmuvr63KKKxQSnadPn5bHSCQSaG5urroTgbNXkrjJX85Oj0+1abtYgnE60W9jjHPnzpW8aYZCW1tXV2eLr69cuQK32w3DMGCaJlwul+35LRcuXJCJUtM08fTpU2iaVpRsLUVxjLZRKnQi2+nxiQ7KS0+UGoaB9957r2hez+npadkDUkz8a70zLXpXjo6ObnuXwiqXy+HevXu2eZyEeDy+q7sW0WjU9vqpVKroTqdVJpPB5uamc7HtqfQofL5f//rXcsh9Op3G3bt3gcL3MTU1ZRuObxUKhcq+B13XbUF1Op3GJ598YtumlhiFYcsiqRwKheTvY5omXn31VZnU7u3txb1792AW5m7MZDIYHh6uOG0D0UGYm5vDN998UzJIQqGtisfjsqyPjY1heXnZ1s5OTU3B7/cjFovhzp07ePTokWxnTNPEvXv30NHRUXSDppTt6hYsd8FFHdrp8Yn2y8bGhqwHscIQsJmZGds5WqhUr1C4SEHhKbIo1KWtrS2ZOCXaKbMwF651GiWn0dFRJJNJeVPcWY6d6zVNw5dffin3NwwDDx8+tNWFBw8eFM2nL4j56UTM1NPTY4vb4/E4mpubZbu+0+NTbdoultguTrfuxyH5dJzNzs7iyZMnZW+8GoaBSCRii6/b2trk0+ZLrV9ZWbG136Ojo8hms7aOXuWuf8X5SXT4unPnDra2tuT6UnVzJ8cnOiivtLa2fu9cSLunaRquXr0Kl8uFhYWFilMPOIlpAVwuF6ampnaVvCUiIiIiIiIiIqKdeek9So86VVUxOTkp734MDg7C5XIhl8uVHA5FREREREREREREhw8TpfsglUrJJzUSERERERERERHR4ceh90RERERERERERFTz2KOUiIiIiIiIiIiIah4TpURERERERERERFTzmCglIiIiIiIiIiKimsdEKREREREREREREdU8JkqJiIiIiIiIiIio5jFRSkRERERERERERDWPiVIiIiIiIiIiIiKqeUyUEhERERERERERUc17pbW19XvnQquzZ886FxEREREREREREREdSo8ePXIuqkrFRCkRERERERERERHRcceh90RERERERERERFTzmCglIiIiIiIiIiKimsdEKREREREREREREdU8JkqJiIiIiIiIiIio5jFRSkRERERERERERDWPiVIiIiIiIiIiIiKqeUyUEhERERERERERUc1jopSIiIiIiIiIiIhqHhOlRET/f3v3H9pGnuf5/9V/yM3J6uuMf6xxJ4XtniGdJXbLeznDeLmms8E3YE5rjgjGgcQncnBMBhbaf6hBPQE3Y8i0udEfzrKQLAttdHbACWj+MOqvYNYEN3PgWbx9WG2byWZv2l6Ujs/jWEkztnbH+qO/f6zqs1Vl2ZYdO7Gj5wMMyadKpZL0qapPvT/vz6cAAAAAAEDFI1AKAAAAAAAAoOIdWKDUsizdvn1byWRSyWRSsVjMtTwYDGp0dNQsj0QiruXHjf15xsfHFQqFdi3HyxePx7fUS+C42q4+x2IxxeNxyXE+Kvd8G4lEdPv2bVmW5V0EVAS7LVPqmAkGg/r0008P9dq+3TEYCoX06aefKhgMSsXj3z7Od7PTZ8LxsNNv6LwWhEIhjY6Oll1HndcL4GWLx+MaHR015zmvSCTy3PeQ3nMpcNwcRjvhRbRvgOPmwAKlXs3Nza4DuL29XX6/37UOAODwZDIZ9fX1KZFIeBcBKCGbzWppaUmdnZ1bbkLa29u1ubmpTCbjKn8ZotGootGotxgVLpVKqa+vT6lUyrsIOBYKhYK6u7u9xbIsS52dnd7iI8UbqAJeJtoJwPM58EBpoVBQPp/XiRMnXBeKtrY2swwAAOAomp+fV3V19Zab3ba2Ni0tLSmbzbrKAQAHx5tsI0kXLlxQVVWVvvnmG1c5AACH4cADpZL09OlT+Xw+tba2SsV07oaGBv3ud7/TxsaGd3UzlMI7bN85jD0SiZih+/F43DXU3zvM3TvM3ztMIx6PK5lM6mc/+5lGR0d1+/Zt/cVf/IWSyaRryEcoFNL4+PiOw0DKYb+f9/PFYjFXufdz2O+fTCZ1+/Ztffzxx+bz27zbeJ7hKJXMWwft77jUcDfvUAaGruGoKlV/necMuy57h/D/9//+37ccC0ClyGQy2tjYMG0YFdsVNTU1mp+flzzXDOe12z7mPv74Y42Pj+tv/uZv9Dd/8zeuY9Bex3vc7YX3uuNs94yPj6u/v39LZtN3vvMd1zoMsXv1eIdPeqfFsuuF97d3tlOfp14Cz+uf/umfpGJg1KmtrU1/93d/p83NTVf5du13m/ee8Ny5c67l3mPE277/y7/8S92+fducM73bs4dARyIRXb16VW+++aYGBga23EeU2j5wmLztBOexYrdTvPXxe9/7nok9PG/8AzjuDiVQ+tVXX6lQKJgeQXvY/cLCgndVxWIx9fT0uMo6OjpcNxU+n089PT1m6H5LS4t++tOfqr6+3iw/f/68VAwufvTRR1uG+ff09GwJIr7zzjtmvV//+tdaXV2V3+9Xe3u7JKm1tVU+n08LCwv7HmoXi8XU0tLiLZYk1dXVuf7v8/nU29urYDCoUCikK1euyOfzSZLq6+v17rvvutaPx+Pq6OhwlXV3d29pAGNnkUhE3d3dGhkZUTgcVn9/vwKBgGKxmBmG2dbWJjmC/g0NDebiUVdXp7m5Oc9WgcPX0dHhukFIJpNbzglOsVhMzc3N6u/vVzgc1tzc3JbzU319vf7whz8oHA5rZGREp06d2nLuBF5l9nnfmdXU3d1tht1HIhF1dXVpcHBQ4XBY6XRaoVDIlQHV2NioDz/8UP/jf/wP/fa3vzXXEBWvI1VVVUqn06bMqb6+XsPDw67j+urVq6Y94BUMBhWNRjU5OalwOKwPP/xQZ86c2bL+uXPnFI/HFQ6H9ejRoy37jKOvp6dnyznfew63WZal69eva2lpSeFwWOFwWKdOndrSPm5padHc3JzC4bAmJibU3t5OOxIvzR/+8AdNT0+7pj8JhUKqqanRgwcPXOvu1H5XiXNjf3+/GhsbzbnRe4zYr3e2ef7oj/5IqVRKly5dUiqVUnt7u9ne4OCgqqurdeHCBSUSCY2MjOibb77R4OCgotFoWdsH9mOv7QRvuyWVSumP//iPXev4fD6dOXNGH374ofr7+7WxsaG+vj7XOkAlOZRA6ePHj/Xs2TMz/L6trU35fH7LBc6yLDU3N0uSJiYmTCNNxZ5Dp4mJCfX392t1dVWSlMvlFA6HNTMzI0kKBAKyLMsEN1dXV00wwF7HO+eYvc61a9f093//91paWpKK723vW6FQMBkkzyOfz5uT09DQkFScO8RuvA4ODiqfz8vn85X8HM7PLkfArlAomAbCzMyMK5MX5Wlra9Ps7KyZ0yubzWp6etrcJM/Pz6uqqkqWZcmyLK2srOjp06eyLEvBYFCBQECzs7PezQKHbmZmxpxD7D/7fOdln9Omp6fN0OFEIqHFxUXXequrq7pz545UnO/u0aNHamxsdK0DvOqcw++9x05bW5urA/X+/fva3Nx0ZV44j7N0Oq2amhoTfGptbVUul9u2A9bZfrH/RkZGVCgUvKtKxblTNzY2dP/+fal4DUulUlvWn5ycNO85NTWlqqoq1dTUuNbB0Wa3lZ1/3nO4rVRAfnR0dMsUWIuLi2Ye6/v37+vZs2eqra11rQO8SLOzs6qqqjLn1PPnz+vhw4f66quvXOvt1n7f7dzoPUbs1zvvQR89euSa8zeRSJjjJZPJaGVlZds2UjnbB/Zjr+0Eb7sllUptuXctFApKpVLKZrOmrtrxFaASHUqgNJ/Pa2lpST6fT3/6p3+qhoYGraysbLnA1dTUqLq6WnL0knuzS1U8cNfW1pTNZrW+vi5JevLkiSRpeXnZta6dpemcR8y7js0711g6nVY+n1dDQ4MuXLigEydO6NmzZ9vezKjY++JsUFqWJZ/Pp0KhoGw2a7bp9/s1MDCgpGN4vHOo08DAgKuX3/s5ssUMF+/7+Hw+Xb16dddMMpRmWZYCgcCWOrK2tmZuIrPZrAKBgILBoFpbWzU3N6fHjx+rtbVV7e3tWl9f37GOAEdBTU2NqqqqtLa25l0EwCOVSmllZUWtra3mZnd2dtZcM5zZ3MPDwzp58uS2waVMJqNcLqfW1lZZlqW33npLU1NT3tX2rbGxUevr6672DFBbW6vNzU3lcjnvIuBIy2Qyevjwoc6fP6+gZ9oTWznt993OjbW1tWaovH0+7+np2TE4ZHmG0m+X0a19bh84aNsdKwB2diiBUhWzMQqFghnevtvQZG8v+X6f0mYHUJ1D5rbr6fPKZDJaWFiQ3+/X+++/L5/P58oKccrlcma+VWfP4Pnz5+Xz+bSxsWEyRvr6+ly9/l1dXfrRj36kU6dOaXFxccdeIPtz2BktXs6MUvvPzljF7uzge6k6sr6+bn7DXC6nc+fOqa6uTrOzs5qfn9dbb72l5uZmU+eAo65Ux04gEHCtA+Bfzc3Nqbm5WefOnTPXAvua4W2zhMNhk2VUir0t+6nNB9255r3xrq2t3XYIHipHdXW1K2vY7mQHjrp0Oq1AIKDe3l7lcjlXVqfKbL8vLy/veG5cW1vT119/vSUz79q1ayXv/aziUPrp6Wmz7nYZ3drH9oHD5D1WvFMAAnA7tEBpJpPRs2fPpGKGqTe9217HnrfUOe/S80webAdonXN32JmW2wU9nezXv/nmm9vutxzDJ1Sc38nbs2i/l/PBKfayjY0NE2S1X+udV8QOLNufY3h42MzJKseQWGdGadIxqTjKNzc355qTy7IshUIhPX782NSXubk5fe973zNz1Nk3uU1NTVt6uYGjyB4i5pyC5MKFC67zCoB/Mzs7q+rqar377ruuzt65uTl1dXXtqZ1iD8//8z//c33xxRe7tkX2Yn5+XidOnDAPP7EsywRkUbns9mt3d7cpszvzgaMuk8lofX1db7/99rYZ+Lu139fW1nY8N2YyGVVVVeny5cumbCfekTn2NGjb2ev2gcNgj0o9e/asabeEQiGdOnXKuyoAh0MLlNoHpSStrKxsmz0xNDS07Zx6+5FKpfTJJ5+45mCysy53yvaw2QFISbs+xCmRSJg5VZ0mJia2fa98Pq9bt25pbGzMvE+hUNDExIRrnxOJhOt7WVxc3NJrGY1Gt5RhZ96H38RiMSUSCaXTaRNwHh4e1tLSkisz177h+Id/+AepWL83NzdN4BQ4Dm7evClJphOpra2NcwiwDbtzwdtpmkgktLCw4BpOuVsnZTab1ePHjyXH9eSgpFIppdNp0+H885//XA8ePCg5SgWVI5PJ6O7du2pvbzf19NGjR1vmKAWOqqmpKf3ud7/btp29W/s9lUppbGxM3d3dJc+N2WxWt27d0tmzZ133Bts9bClTnBLAfr9oNGoSX1R8v1wuZ556v9ftA4dlaGhIKysrpt0SCoX0m9/8xrsaAIfXmpqavvUWVjL7afOSNDY2tmWox8ti75fP59PMzAzD6wE8N+cwsu06dwAcjFgsprq6un1PLbQXkUhEnZ2dunHjxoFmr+J4C4VCunjxom7evLlt8AkA8OqLx+N68uQJMQVgG4eWUXrchEIhjY+PmyHw3qccvmjBYFCjo6Om99Her3w+73qCKQDs1+XLl1VdXX3gGW4A3EKhkM6ePbvtENKDFAwG1dXVteWBlahs9rBke75dAEBlikQiOnXqFNPHATsgo7TImbG5uLj4QjI+dhIMBhWNRuX3+03ZUdgvAMdXLBYzczarOBVIPB7nphk4JHbWdn19/Y7T8jyPUu0FRp7AWfdstCMBoPJEIhH19PSY/xcKhSM1chY4igiUAgAAAAAAAKh4DL0HAAAAAAAAUPEIlAIAAAAAAACoeARKAQAAAAAAAFQ8AqUAAAAAAAAAKh6BUgAAAAAAAAAVj0ApAAAAAAAAgIpHoBQAAAAAAABAxXutqanpW2+h05kzZ7xFAAAAAAAAAHAkPXjwwFtUll0DpQAAAAAAAADwqmPoPQAAAAAAAICKR6AUAAAAAAAAQMUjUAoAAAAAAACg4hEoBQAAAAAAAFDxCJQCAAAAAAAAqHgESgEAAAAAAABUPAKlAAAAAAAAACoegVIAAAAAAAAAFY9AKQAAAAAAAICKR6AUAAAAAAAAQMV7ramp6Vtv4X5YlqXr16+rvr7eVb66uqobN24om826yl+mWCymjo4OSdLMzIyGhoZKLl9cXFQ0GnUtO67i8bhaWlpKft5KEY/H1dDQoHg8rkwm412sSCSinp4eTUxMKJFIeBeXJRQK6eLFi7p582bJ9wAOin1MOz1P3QXwr0q1ZwqFgsbGxpRKpVzrAi8CdRKVgHY6sDv7OHB6lWIWwFFRcRmlkUjEBEkPUiQSUTKZVDwe9y564WKxmJLJpGKxmHdRxSsUCuru7vYWy7IsdXZ2eouPlFAopE8//VTBYNC7CBVqZmZG4XDY/O33xgHAVhMTE+bYunTpEgEpvHTUSbzqaKcDu1tdXVV/f7+5HhAkBQ7eoQRKnQ25a9euHals0sbGRqnY8xIOhw8su9Le7lFQV1fnLVI0Gj3Qz3ucNTc3y7IsV9mFCxdUVVWlb775xlUOAAAA4MWgnQ4AeNkOZeh9qSERpdLEnet5h5E6h4g7h8p7X+flfZ98Pm+GcHjfQ9tsyzv03vn/J0+ebBm2792ucziUd3+cnysYDCoajcrv9yufz+uLL77Qe++9Z6YrCAaDunLligqFgrLZrN555x1NTEyosbHR9X3Y75fJZLYMzbI/f19f35ah997v1TlNQigUMu89OTmp7u5u+Xy+IzmVQrni8bh+//vfq7GxUdPT067fPR6P6x//8R/1J3/yJ65l3t/PO7TB+RtK0pdffqmmpiYzpMc7XM75+lgsprfeektVVVU6ceKExsbGlM1mXduzv+8LFy6U3I+dto9XWzwe15MnT0p2fnjrrfO4t49tn88nFc+BktTZ2ek6tiORiLq6urYdAge8quzzqvc6YfNeO53tCOcy5/XXe6zao084X6McB1kn/9f/+l8Kh8OubdnbX1paKnlNAV4E2unA7iKRyJY2u81b35337d5lMzMzWl5e3rIt2v/AvzqUjNKenh4lk0nX8O9SGZfd3d0KhUKKxWJbApi2eDy+Zai8/TqvWCy2JRjr9/sVjUYPZBhES0uLa1/Onj2743ZL7U9HR4cikciWk5Xf79d7773nWtfm9/v1zjvvmP97M0Z9Pp96e3t15swZV/lOSn2v9fX1un79uqsX1+/3q6enxwRV6uvrdeHCBcerjpc//OEPmp6eVmdnp/mcoVBINTU1evDggWvdSCSi7u5ujYyMKBwOq7+/X4FAwNRp+zecnJw0yxsbG8135bzxcL4+EomY9/ijP/ojpVIpM4Suvb3dbG9wcFDV1dW6cOGCEomERkZG9M0332hwcNDV+Npp+3i1dXR0mHPt6OioOR81NTVpcHBQ4XBYExMT5lxlWZZCoZDS6bSpY0+ePNHs7Kyqqqpc57O2tjYtLCzQSELFcrZlbt++LcuyZFmWXn/9dTPkbWZmxlxPQqGQTp8+bY698fFxSdLc3JwrQyoYDKqmpkZTU1OedwR2dhB18ne/+52WlpbU1tZmthsMBlVVVaV0Ou16P+BFo50O7K6+vl7Dw8PmemDXqe3qpyT19fVpYWHB1MWvvvqK9j+wg0MJlJYyNDSkcHE4fn9/v1ZXV+Xz+VRbW2vWyefzpjE3NDSkYDCohoYGFQoFcxGcmZmRz+dTa2ura/uWZam5uVlyzNtnv4/f71d3d7ei0ahmZmYkx9D7Uj3z27HnAxkZGVGhUJDP55NlWVu2e+nSJWUyGbM/9lQEduZWW1ub2tvbTSap/ZkXFxdd7+dkbyORSChaHEZvnwTz+bx8Pp9ef/11Xbt2zWxnZmZGfX19W0509vfq3K69HW8g1P7u7e9S2wS9jxPvReH8+fN6+PChvvrqK9d6bW1tmp2dNXOAZbNZTU9Pmxve9vZ2bWxs6P79+2Z5KpVSoVCQStx42K933pw8evTINcdYIpEwdTKTyWhlZWXb77uc7ePV5pyj1HmsDw4Omn/Pzs6qUCiYGw45juFMJqPPPvtMmUxGDx8+1Pnz5yVHIGd+ft68Bqg0paYRymaz+ulPf2oyL+bn51VVVaWamhqp2HFpH2v2sWVfI+xra3t7uzY3N7dcm4HdHFSdTKfTqqmpMUkHra2tyuVy1EkcCbTTgZ155yi16+Ru9dNOtspms7p37x7tf2AHhxIodTbknMO87V6P4eFh1/DwdDqtfD4vv9+vgYEB0zNiWZZ8Pp98Pp+uXr2qZDK5JQvSVlNTo+rqahUKBXNwZ7NZra+ve1fdt/X1ddMotQOlzkCvk70/cmQAOLNL7ZPWysqKaZjOzc2Z5U75fF6zs7Pm//F43HyXAwMDJiu1XPb36txuLpfTxsaGd1Uz7N/5XXozWo8b50VhuwuCZVkKBAJaXl52la+trZkbkMbGRlMnSqmtrdWbb75p6rRdBwKBgCto5WRZlm7fvm3W3y7TWvvcPipDKBTS+Pj4lnNENpvVjRs31NzcrKTn4XPz8/OqqalRMBhUe3u7crkcDwoBSogUH96YTCZ19epVk52USqV09+5dXblyxbRjVDzunBl8bW1tmp6e3vbaAezVXutkJpNRLpdTa2urLMvSW2+9RYYzjgza6cD+7FQ/7Skfko4RCaL9D2zrUAKlXsFgUGfPnjW9H3b2oi2Tyaivr8+VVdnV1aWTJ09KjqxGO/jqDMDa7ECfM9vUvoi+bM7AcdjzZLqGhgbTY1pOD2MoFNKpU6dMRqyd3boXdqDX7/ervb1d8gR2K0E6nVYgEFBvb2/JC4IdGC7VS7y+vq5cLqfl5eUtjZ3a2lpzg7K2tqavv/7a1ePnzALxshxzkNnr7pRlvNftozKEQiFdvHhRn3zyicKObHFbNpvVtWvXFA6HJcdciZlMRpubm2pvb1dbW9u2HTdAJbPnBrPPu95rsD1Ec3BwUF1dXSYwZd+I/Jf/8l8UCARcnZ/A89hvnbSnhLCfJE42KY4S2unA3pRTP+1RqUtLS2a6Pdr/QGmHEih1zqE0Ojqq7373u5JjPg1vFqQz29Tu+djY2ND/9//9f3r06JEro9TbC2KzMzbkmLfPzlzN5/MvbN6llpYWjY+Py7IsLSwsSCW+j2AwqPn5eROstHsad+qV9GppaVHSkzng1dHR4Zq30Gan4suxb/Zvsrq6aoaovMoymYzW19f19ttvb5tFMTc3p/b2djM0zSrO9/X48WNls1mtra3pxIkTZjilZVnmhkPF96iqqtLly5dN2U5qampUVVWltbU1yTNFQil73T4qQ21trTY3N5XL5aTiMF/7fBsMBjUwMGDWffLkifl3tjgkrKurS1VVVRVxHgD2ypuh1Nraaq7BkUjEBKG8ozRSqZRyuZy5QSEohYOy3zp5//59bW5u6s///M/1xRdfELjBkUI7HdibneqnZVn6+OOPTfzEmYlN+x8o7VACpV6//e1vTdBQkn75y1+a+S5LyefzunXrlrLFJwt6e0O2MzQ0ZOYBta2uruonP/nJod+U2NMHOA0NDZm5S71SqZQreLu6uqovv/zStU4pqVRKjx49koqZthMTE1ved2pqatcsU+e8qrbFxcWK6uWcmprS7373u23rRiKRUDqdNkH64eFh1xNhU6mUxsbG1N3drWQyqZ///Od68OCB+e6z2axu3bqls2fPmkB50jH0zcseamS/XzQaLXmjPTAwoHg8vuft49XjfJhTsvjwPLuBY0/y3tnZac4RuVxOb731llm/ublZN2/eNNuzs9zsmwygkjk7Oe1zazqdVkNDgyl76623zDl/bW3NXA/s64U9V5iKN/V+v3/LEFKgXAdZJ7PZrB4/fiw5zv3AUUI7HSjN+zCn27dvK5fLbVs/s9ms3njjDfOarq4uE2sR7X+gpNeampq+9RbixQsWn8zo9/u1uLjoGp4PAC9CMBjUBx98oF/84hdbhrkBeD72EOkbN25wI4IjIRaLqa6ujjYnAFQw2v/AVi8koxRbWZ7Jlu2h74VCYdshJgBwmPr6+krOBQbg+QSDQXV1dfEQJxwZoVBIZ8+epc0JABWO9j+wFYHSI2R1dVUffvghJykAL1Sk+MTkQCDgGooP4PnF43ENDAxoYWHBNRQfeBnsjvqrV69qcnKSNicAVCja/8D2GHoPAAAAAAAAoOKRUQoAAAAAAACg4hEoBQAAAAAAAFDxCJQCAAAAAAAAqHgESgEAAAAAAABUPAKlAAAAAAAAACoegVIAAAAAAAAAFY9AKQAAAAAAAICK91pTU9O33kKnM2fOeIsAAAAAAAAA4Eh68OCBt6gsuwZKAQAAAAAAAOBVx9B7AAAAAAAAABWPQCkAAAAAAACAikegFAAAAAAAAEDFI1AKAAAAAAAAoOIRKAUAAAAAAABQ8QiUAgAAAAAAAKh4BEoBAAAAAAAAVDwCpQAAAAAAAAAqHoFSAAAAAAAAABWPQCkAAAAAAACAincogdJYLKZkMqlkMqlYLOZdvCfBYFCjo6MaHx9XKBTyLn4ulmXp9u3bZl+df5FIxLv6oQiFQhofH9fo6KiCwaB3MQ5IPB5XPB73Fisejz93HQVeNOozcDjsdoH3OLLLX1TbAHDaqf5tdz0oRygU0ujo6IG2r7kOYT+2q8fUJ+DfRCKRkjGDSCSi27dvy7IsVzmA/TvwQKllWWpubjb/b25uLvugtRuChxEU3auenh5OOHsUiUSUTCZLNnRettHRUdXU1LjqVSgUUlVVle7cueNaFzjqqM/A4chms0qlUjp9+rTrRuTChQtaX19XIpFwrQ+8bNFoVNFo1FtcllQqpb6+PqVSKamY6HAU23B49dGuAXaXSCS0srKi7u5uU2ZZls6dO6dUKqVsNutaH8D+HXig9MKFC6qvr9fq6qry+bxOnDixpddjOzU1NaqurnaVZTIZ9fX16dKlS6YhdxgmJiYUDocVDoe1uLgoSaqvr9eFCxe8q2IbjY2N3qIjI5PJ6OHDhzp//rxUvKiEQiF98cUXXFRw7FCfgcOTSqWUy+XMjUgwGNT777+vqakp76oAgANAuwYoz9TUlKsz9/Lly9rc3DzUOAlQiV5ramr61lv4POLxuFpaWjQzM6O6ujrz76GhIbOOZVm6fv266uvrJUmFQkH/5//8H/2H//Af5PP5zHqLi4saHR1VNBqVz+dTKpXSf/pP/0n19fVmm85t2WWRSEQ9PT1mO973tzlfOzExYTJFnOWLi4umpz4Wi6mjo8O8fmJiQrOzs4pGo/L7/WYbwWBwS1mp1yYSCYVCIV25ckWFQkHxeFyZTMb1eu/62uY7dq5jv97n8ymdTqurq0t+v1+Li4u6efOm+WyFQkFjY2PmxOp939XVVd24cUPZbNbs/+Liop48eWI+i/3d2vtk8277KAgGg/rggw/0i1/8QrW1ters7DSfz1lnvPvu/GzO7wR4majPwOEJhUK6ePGibt68qe7ubtXV1ZVsC+Tz+W2v3du1PYC9stul09PTW7KaY7GYqZ/2deHLL7/U97//ffl8Ps3MzCidTpu66a2z9nXk/Pnzrnact025Xb12Hg+rq6va3NzU48ePqfvYM9o1QHni8biePHmidDptjplUKrXj+Xq7tguA0g40ozQYDKqhoUGFQkHz8/Oam5uTPMPvg8Ggfvazn5kg6V48e/ZM09PTkmObdhZqPp9XOp1WLBZzBUklqaOjo+S8TtvJZrNaWlqSJAUCAVmWpXg87gp0SlJ3d7csy9LCwoIkqa2tTSo2aH0+n1ZXV3X//v1tX1tqeoFQKKSPPvrIFSRVcSoA72fo6OhwNWq92/T5fOrp6THbamlp0U9/+lPz3ft8PtNzW+p96+vr9cEHH5j/q7gN52c5e/as6dE66uze6h/84Afq7OzU9PS0aXx1dXVpcHBQ4XBY6XRaoVBIlmUpEokoEAiov79f4XBY9+/f924WeCmoz8DhsbNKe3t7dfr0aZNNGovF1NzcbI6hhYUF9fX1SZL6+vq0sLCgcDis/v5+ffXVV56tAofP5/PpzJkz+vDDDzUyMqL29nZFo1HF43H19/drY2PDNWzTFo1GNTMzo8XFRYXDYVeQdHJyUuFwWIODgzp9+rRpa3qPh+npaZ08edK7aaAstGuA8thZpb29vcrlcq4gaanzdSgU0unTp80xND4+7t0kAI8DDZS2t7fL7/fr2bNnymQymp2d3TL8vru72/Ro2wfrpUuX9D//5//UJ598onw+r0KhoJGREZO94eTdpv2eKysryuVyZn5Ueyj9xMSE5Ahi7seZM2dMAHhkZEThcFgzMzPy+XxqbW3V/Py8CoWCGhoaFAwG1draKp/Pp6WlJdXU1Oz4Wi/7taurq+aiPzMzI0nq7Ow0AWcVM27tG7LV1dWS25yYmDDLJSmXy7m2aQeC7fe1tzk4OKh8Pm8+k83er5GRERUKBfl8PlmWZRrYKu7XYU+VsF937txRVVWVJJnGVFtbmxYWFkyv2v3797W5uWk+d3V1tWpqaiRJ9+7do5caRwb1GTg8o6OjsizL3IRYxTnY7Zt3SUqn0woEAub4qqurk4odrvfu3XNtD3gRCoWCmasuk8no2bNn5ppgJwLY9XQ37e3t2tjYMNcXO5DV2tpa8nhIJBJm+ipgP2jXALtLpVJ6+PCh3n77bdORu9P5WsVONDuO8Nlnn5FNCuziQAOldjCyvr5ew8PDGhgYkN/vdwXw7MaZ84K3F5lMRisrK/L5fKqtrTXvOTc355rjtKenR8lkckt2aTnsxp8kra+v6/XXX5fP55PP59PVq1eVTCZdWZV2Q9Tn8+mdd95Rc3Ozyaq1s0u3e62X/f0sLS2ZC/3y8rJnrX/15MkTqXhDtr6+7l2sQqGgtbU113L7Nd5t2u/b0tKiZDJpfjuv9fV1ZbNZZbNZEyitra31rnZk2d+F/f1alqVAIKCOjg4lk0klk0kNDw/r5MmTqq2tVSKR0OTkpAYGBo7EQ8YAJ+ozcHhyuZw2NjbM6Bi7jWG3L+xr5YkTJ0yHoSQlk0keBokjwb5GeNt85WpsbDRtervOd3R0qK6uTjU1NaqqqtLa2pr3ZcC+0a4ByrO8vGyS07TL+TqVSunu3bu6cuWKksnkllGqALY6sECpPex+O/ZQeTtQ5xyO/8Mf/nBPFzb7puXcuXMKBALK5/OanZ11reN8OFM4HC6ZnbqdDz74wMzh6Xx4gzMr1P4bGhoyPfQ+n0/t7e2qrq52nbh2eq1Xqe9nu4ck2cFN53e/38awzc4otf/6+vr2FdA+LuwGmbe+hIvDzlTMkAiHwxobG1Nvb++e6irwIlGfgcOTy+X09OnTLddy5wiKaDSqcDispaUlXb9+nWApjrXl5eUt7cJwsU2dy+W0ubnp6iy3g1rAQaFdA5Rnp/O1ilmoly5d0uDgoLq6ugiWArs4sECpPQTeOaQ+HA6bIdr2UHl7mLqzx+PixYuubdnZl/F43FVus4ffnzx5UvX19SY7NZPJmPlCnRkfo6Oju86j6VzfnvdzdnZWqVRKqVRKjx49cmWFejNG7M/1zjvvyO/3m6FI5bzWqdT3Y2egOoc3qUT2Z6mAcbmmpqZUKBTMNu2//ZxEW1pajlWv7tzcnLq6ukrWkf7+fvM57Cxa4CijPgOHI5vN6vHjx2ZuPCfLsvTxxx+b8ufttASOgtnZWTU0NJRsC9oBLOe0UBcuXNjXMwiAndCuAXa30/k6EomYcnu0DICdHUig1LIsdXZ2SpJWVlZcGYjOYennz59XKpUyc5HaCoWCssW5lOxA507s4fcqvnZ+ft4sGxoaMnNl7ped/enM+IxGozvOu2R/ThWfJOcMWO72Wqftvp+RkZEtTzr98ssvzdyjhUJBd+/e3Xf2ZyqV0tjY2HM1MNLptGu/j4tEIqGFhQUNDAxsCWQ/ffrUBLgHBgb0+eefH8m5VwEb9Rk4PENDQ1pfX3cNbYvH48pms3rjjTdMeVdXl27duuXq3ASel7NTf7+d2TtJp9NqaGgw285kMrp79666u7vNezo7wqPRqOt4aGtrK7u9C5SLdg2wu53O12tra6Z8eHhYS0tLW+IKANxea2pq+tZbiKMtHo+rpaVFMzMzJYfvAwAAAAAAANibA8koBQAAAAAAAIDjjEApAAAAAAAAgIrH0HsAAAAAAAAAFY+MUgAAAAAAAAAVj0ApAAAAAAAAgIpHoBQAAAAAAABAxSNQCgAAAAAAAKDiESgFAAAAAAAAUPEIlAIAAAAAAACoeARKAQAAAAAAAFQ8AqUAAAAAAAAAKt5rTU1N33oLnc6cOeMtAgAAAAAAAIAj6cGDB96isuwaKAUAAAAAAACAVx1D7wEAAAAAAABUPAKlAAAAAAAAACoegVIAAAAAAAAAFY9AKQAAAAAAAICKR6AUAAAAAAAAQMUjUAoAAAAAAACg4hEoBQAAAAAAAFDxCJQCAAAAAAAAqHgESgEAAAAAAABUPAKlAAAAAAAAACregQVKLcvS7du3lUwmXX+3b9+WZVne1Y+MYDCo0dFRjY+PKxQKeRcfiEgksuN3YS9PJpMaHR1VMBh0LY/FYgfyfTp/o0gk4l28RSgU0vj4eMl9Om7i8bji8bi3WPF4XLFYzFsMHGnUZ+Bw2NdJ73Fkl5dz7QQOEnUSlYB2DbC7SCRS8r48Eok8V4wAwFYHFijdTn19va5fv37gB64d4Cx1sjjO/H6/2tvbzf8ty1Jzc7NrHezd6OioampqXMHwUCikqqoq3blzx7UucNRRn4HDkc1mlUqldPr0aVfb4sKFC1pfX1cikXCtDxw26iQqAe0aYHeJREIrKyvq7u42ZZZl6dy5c0qlUspms671AezfoQRKJyYmFA6HNTExIUk6ceLEgQczLcuSz+fzFu9ZJpNRX1+fLl26pFQq5V38Qn3zzTeSpLa2NlMWDAZ14sQJswz7k8lk9PDhQ50/f14q1p9QKKQvvviCiwqOHeozcHhSqZRyuZy5EQkGg3r//fc1NTXlXRV4IaiTeNXRrgHKMzU15eo4u3z5sjY3N196HAN41bzW1NT0rbdwPyzL0vXr11VfX6+JiQklEgkFg0FFo1H5/X5NTEyosbFRHR0d+vrrr1VVVaXq6mrF43HlcjnzWknK5/OKx+PKZDLet5GK6eU9PT2uspmZGc3Pz+vKlSsqFArKZrN65513XO9rKxQKGhsbUyqVMvvo8/k0NjambDZr/p9Op9XV1SW/379ln2KxmGub9mdWsQFrf+58Pq8vvvhC7733nlZXV3Xjxo0tF3z786yurqq6uloqDjXJZDKKxWJqb2/Xb37zG7377ruubTjfx+bcD3n288svv1RjY6PrN3L+bvJ896FQyHyfpX6nUu93lAWDQX3wwQf6xS9+odraWnV2dprv0lmnnPVDxd+ipaVFkrb9DYEXjfoMHJ5QKKSLFy/q5s2b6u7uVl1dnaLRqOS5rjqvmd5r8szMjIaGhlzbBfaLOolXHe0aoDzxeFxPnjxROp02x4wzrlHqnL/ddQJAaYeSUWprb2+X3+9XoVDQ2tqaKT958qQJtn33u9/Vz372M1fwze/368c//vG+h+v7/X6988475v91dXWu5T6fT729vTtmufp8PvX09JgTjd/vNz358XjcFSSVpO7uboVCoS0nKL/fr/fee8+17nbW19e1srJiht/bw+6fPXum//f//p9r3VAopI8++sgVJJWknp4eM1+VN5j77rvvur7nYDC4p+/+gw8+cK173Ni91T/4wQ/U2dmp6elp0/jq6urS4OCgwuGw0um0QqGQLMtSJBJRIBBQf3+/wuGw7t+/790s8FJQn4HDY2fw9fb26vTp0yZzLxaLqbm52RxDCwsL6uvrkyT19fVpYWFB4XBY/f39+uqrrzxbBfaPOolXHe0aoDx2Vmlvb69yuZwrSDo5OalwOKzBwUGdPn1aoVBIoVBIp0+fNsfQ+Pi4d5MAPA4lUNrT06NkMml6/h49euRKB8/n8xocHFRfX5/eeOMN+f1+ra6uqr+/X/39/VpdXd1xuH4ikdDIyIgKhYLZlreH3B7+n0gkFI1GFQ6HzUkjn8/L5/OVDAY62dtYXFyUigHXYDCohoYGFQoFjYyMKBwOa2ZmRj6fT62trSY4bO+Xvbxcc3NzUnH4fbA47H5paUn/8i//4lqvtbVVPp/PfG/O9+ns7NR//I//0cxtOjMz4/rsNntf9/Ldq9hba7/ncckmtd25c0dVVVWSZBpTbW1tWlhYML1q9+/f1+bmpvkOqqurVVNTI0m6d+8evdQ4MqjPwOEZHR2VZVnmJsTuvLRv3iUpnU4rEAiY48vumM1ms7p3755re8Dzok7iVUe7BthdKpXSw4cP9fbbb5tOs/b2dm1sbJjjxu54aG1tlYpJYHbs47PPPiObFNjFoQRKnWZmZszQINvKyoo5OBsbG6XiQ5+Gh4c1PDzsyloMFZ+8bj/1vdQTEb3y+bxmZ2fN/+PxuHn9wMDAlizMUpxZsE+ePJEkBQIBtbW1yefzyefz6erVq0omk66sTfvzOD/j8vKyWb6b2dlZ5fN5NTQ06E//9E8lSfPz897VTMN3aWnJNAic7/Od73xH1dXVKhQK5vW5XE4bGxtmnd2+e6+pqSkVCgWz/vj4uGvS9eMgm81qfX3dfG+WZSkQCKijo8PUkeHhYZ08eVK1tbVKJBKanJzUwMDAsfy8eLVRn4HDY18z7Q7MmpoaVVdXm85gu01x4sQJWZZl2jrJZJKnz+JQUCfxqqNdA5RneXlZz549c8VU7Ht0+1jp6OhQXV2dUqmU7t69qytXriiZTJrRpwC2dyiBUjsTMxwOb8n03I4zSzEcDh/Yw5VCoZBOnTqlxcVFhcNhk4n6vJwZpaU+a0NDg+npdD6caTeZTMYMv3/nnXdcJ0AnO3jb3NxsGr524NPJznSV48FQXuV+96lUSpcuXTKZpz6fzwx9Oa7sBpmzztp/drZsIpFQOBzW2NiYent7aYThyKI+A4cnl8vp6dOnW679zmumPYJlaWlJ169fP9bXRxx91Em86mjXAOVZXl428Q7nn91hZt/HDw4Oqquri2ApsItDCZTuRTqdVj6f39IDEovFJMdB7T3YbX6/XwMDA2b97bS0tCiZTOrq1avy+XzexWX7/PPP9ejRI1dGqbOnfn5+XoVCwexXMpk0E4yXy84UkCdj1Ml+H+f3Zme2Tk9P62//9m+1srIiSaYX1vvZd/vuvezMXGfm6fr6esn9O07m5ubU1dVVcrqB/v5+0+DKZrMHEmQHDhP1GTgc2WxWjx8/LtlBaFmWPv74Y1O+l5EkwH5RJ1EJaNcAu5udnVVDQ0PJAGgkEjHl3hGmAEp76YHSTCajeDzumjuzHKlUSo8ePfIWb+Fcr1AoaGJiYs/v5RWNRs28pV6pVErpdNr8f3V1Vb/85S9d6+zGHn7vHDbvlUql9Mknn7g+i53lavew3rx5U6urq2b5L3/5S9f/9/vd21ZXV3Xz5k1v8bGTSCS0sLBgAtvOwPfTp09NQHxgYECff/55yWxb4KigPgOHZ2hoSOvr667OxXg8rmw2qzfeeMOUd3V16datW8e+IxFHH3USrzraNcDuMpmM7t69q+7ubnOc2NNRrK2tmfLh4WEtLS0du+eMAC/aa01NTd96CwEAAAAAAACgkrz0jFIAAAAAAAAAeNkIlAIAAAAAAACoeARKAQAAAAAAAFQ8AqUAAAAAAAAAKh6BUgAAAAAAAAAVj0ApAAAAAAAAgIpHoBQAAAAAAABAxSNQCgAAAAAAAKDiESgFAAAAAAAAUPEIlAIAAAAAAACoeK81NTV96y10OnPmjLcIAAAAAAAAAI6kBw8eeIvKsmugFAAAAAAAAABedQy9BwAAAAAAAFDxCJQCAAAAAAAAqHgESgEAAAAAAABUPAKlAAAAAAAAACoegVIAAAAAAAAAFY9AKQAAAAAAAICKR6AUAAAAAAAAQMUjUAoAAAAAAACg4hEoBQAAAAAAAFDxCJQCAAAAAAAAqHivNTU1festfF7xeFwtLS3m/4VCQWNjY0qlUq71jjrLsnT9+nXV19d7F0mS8vm84vG4MpmMd9GO7O9nZmZGQ0ND3sVbhEIhXblyRYVCYV/vh3/lrZf7/f3KEY/HJUnRaFTBYFAffPCBfvGLX5Q8Bux6Nj09rUQi4V0MbOGsX97yJ0+elHVeAVDaTufk7Y69coRCIfX29uru3bslrwX7wTH/6rPr49LSkut33qmeAsfNdudWznHAv4lEIurq6tpy/xqJRNTZ2akbN24om826XgNgfw40ozQUCml8fNwVjDoowWBQo6OjGh0dVTAY9C4GyjIzM6NwOKxwOKyFhQUTyDxo0Wh0S2MPOCijo6OqqalRKBQyZaFQSFVVVbpz545rXQAH53nO7alUSn19fSZIGgqF9Omnnx7KNQivjmw2q1QqpdOnT7vqyoULF7S+vk6QFK8E2jXA7hKJhFZWVtTd3W3KLMvSuXPnlEqlCJICB+jAAqWWZSkUCsnn8ymfz2twcNAEpH796197V98zy7Lk8/m8xYcqm83q2rVrCofDGhwcVD6fV6FQ0MjIiMLhsPr6+vaVjRiNRhUOh8vuHU2lUrp06dK+3w+l3blzR0+fPpVlWd5FwJGWyWT08OFDnT9/XnKcf7/44gsaSQDwikmlUsrlcubmOBgM6v3339fU1JR3VeBYol0DlGdqasrVcXb58mVtbm4e2EgVAP/qwIbeRyIR9fT07DjM3l5ndXXVpIZ7h6Hb69hWV1c1Pz+vP/uzP3Nty14/GAwqGo3K7/ebZRMTE6aH3bn9uro6tbS0mCHX3d3d6ujocG1vO/b7+Hw+1+ezt/8P//APsixLGxsbSiaT+m//7b+59mlxcdFkoXg/c6l9lONzeIfeW5Zl/j85Oanu7m75fD7X9+p8H0n61a9+pXPnzm3Z/0riHb7jHRIfi8VMfZCnTnjr2Xb1zy6PxWKqq6tzDb3//PPP1dXVJb/f7zpOSg2fc+7LYU4RgOPLWX9ra2tdQ26c51HvOdl5XvCeMwDsPKS51Ln9yy+/1Pe//335fD7NzMwonU6b64Lz/O09Zp1tHbuN4J3yx9l2sN/fvjasrq5qc3NTjx8/3rH9gldDKBTSxYsXdfPmTXV3d5t6qB3aDNu1UYCjyHuOpF0DlGbf06bTade97E7n/O2uEwBKO7CM0sbGRknSs2fP9n3QhUIhVyr5bkKhkD766CNXQFKSenp6FIlEXGUdHR3mIur3+xWNRtXe3m6Wnz179rmGv73zzjtmPxoaGrZkv7a0tCgWi7nKvJz7KEmdnZ07Zjv6/X719PSY96qvr9eFCxekEvNxvvfee1u+p0rX3d2tzc1NZTIZxWIxnT171mRCDw4O6uzZs6Ye9fX1aWFhQeFwWP39/frqq692LPfy+XxmTplwOKx0Oq3e3t6SdS4Wi6m5uVn9/f1mioC+vj7vaqhwdvbFD37wA3V2dmp6etrcTHR1dZm6nE6nFQqFZFmWIpGIAoGAqVv379/3bhbAHvh8Pp05c0YffvihRkZG1N7ermg0qng8rv7+fm1sbJRs1yQSCY2MjOibb77R4OCgK0i6tLRkrimBQMBch7zXhunpaZ08edK7abyi7KzS3t5enT592mSTeuuFs81QbhsFOApo1wDlsbNKe3t7lcvlXEHSyclJcy97+vRphUIhhUIhnT592hxD4+Pj3k0C8DiwQOlBm5iYUDgc1rVr1/RXf/VXGhkZUaFQMMP6h4aG1NraajIp7QvkzMyMVCLIuLi46FouSZ988onZrs/n2zEouRt7H65du6axsTFdunRJ4eLUA/Z71tXVeV/mYu/jxMSEJKm6ulo1NTXe1Qx7GoD+/n6trq5KxYB1MBhUQ0OD5Pge7W1Wuo6ODiWTSSWTSTU3N+vGjRuSpObmZk1OTpogfyaT0cLCgtra2sxr7d8vm83q3r17u5Y7FQoF3b1712z//v372tjYcAXrVcxkam5uNo1DSUqn0woEAiWDqqhsd+7cUVVVlVSsU5LU1tamhYUFV13b3Nw09cd5Xrl37x5ZF8BzKBQKZl6wTCajZ8+emeMvm81qaWlp12u/LRgMqqqqSul0WipeU6anp9XW1lby2pBIJLS4uOjZCl5lo6OjsizL3BiXqhfeNkM5bRTgqKBdA+wulUrp4cOHevvtt02nWXt7uzY2NsxxY3c8tLa2SsWOXTvW8dlnn+07sQ2oFAcWKF1eXpYknThxYt8BnVQqpUePHknFrNBkMql48SmIpdiNv6WlJXNRtPfD68mTJ5Jj+cbGhnK5nLLZrAqFgmftvXPuQ6j4UCs7IOcczr0Tex/X1tbKCt4WCgVls1lls1mtr69Lxe/EKs7nms/nNTs7K0manZ1VPp/3bKHyOB/mdO3aNWWzWdXU1Kiqqkpra2uudZeXlxUIBGRZlhnelkwmdfv2bfO7bFe+G+dv5lRTU6Pq6mpT/5PJpAYGBnTixImyt43KYdcj+/xjWZYCgYCrQ2B4eFgnT55UbW2tEomEJicnNTAwoPHxcddDEwA8H/t43K4dspva2lq9+eabGhgYMMdvT0+PAoGAzpw5U/I6hcqSy+W0sbGhubk5qYw2w37bKMDLQrsGKM/y8rJrJG9jY6Pq6+s1PDzsikHU1dUplUrp7t27unLlipLJ5JaRtwC2OrBAqR2I8/l8W4YU9/f3uy5cds+fM/PRFi0+6MjOgGxpadn2YLYDi83NzabxZ08B8DLZE5HbD316WRkffr/fZCy2t7cz9H4buVxOm5ubqq2t9S7S+vq6CYDbdXNpaUnXr193BUtLle/Ebvh55XI5PX361NQd++/SpUsVOa8s9sa+wbAzyZ1/9lyLiURC4XBYY2Nj6u3t5aYCOCLW1tb09ddfmxEyzk69Bw8ebLlObXcdQeUop82wnzYKcFTQrgHKs7y8bEanOv/sDrNU8eHQg4OD6urq2ja+AuBfHVigNJPJaHJyUioG6JwZEd///vclR6akvfyjjz5ybcOZiemcsNuZQWG/NhaLaX5+XoVCwdV7YmdvOochvQw+n09Xr15VMpl0zRX6ItjD/+TIzHU+NAJu2eLwyK6uLhPgDwaD6urq0tzcnCzL0scff2xuLuxsoYaGhpLlpfh8PhNAV/EJhXIMK7Jls1k9fvzYzL0E7NXc3JyrLjs5O62yB5RND+BgZDIZVVVVmeuDkx0scE4rdOHCBfPQJ1SmndoM27VdgOOGdg2wu9nZWTU0NJQMgEYiEVNuj0wAsLMDC5Sq2KM3ODi4ZYi3PUQ8lUqZoeAqHtArKyuudb3S6bRSqZRrWL4tlUrpk08+cb2fPW+n90m1L9LU1JS5UC8uLrrmRX0Rstmsbt26Zb6XQqGgX/3qVzQedjA0NKSFhQUT4B8YGNDk5KQSiYSy2azeeOMNE4zv6urSrVu39Pd///cly0sF6AuFgn7/+9+bzoOzZ89uu+7Q0JDW19ddQyd2moICcEokEq66nHQMuXz69KnpwBkYGNDnn39OpjKwDedw5uQhDFWzH84zMDCgeDxurt1nz54t+b7RaNR1bWhra3tpI1ZwdGzXZtiu7VKq3QEcZbRrgN1lMhndvXtX3d3d5jixp6NYW1sz5cPDw1paWnqpsRLgOHitqanpW28hXj3xeFwtLS3K5/OKx+NM4AwAAAAAAAA4ECh9RcVisZIPkZqZmdHQ0JC3GAAAAAAAAKhoBzr0HkeXPSUBQVIAAAAAAABgKzJKAQAAAAAAAFQ8MkoBAAAAAAAAVDwCpQAAAAAAAAAqHoFSAAAAAAAAABWPQCkAAAAAAACAikegFAAAAAAAAEDFI1AKAAAAAAAAoOIRKAUAAAAAAABQ8QiUAgAAAAAAAKh4rzU1NX3rLXQ6c+aMtwgAAAAAAAAAjqQHDx54i8qya6AUAAAAAAAAAF51DL0HAAAAAAAAUPEIlAIAAAAAAACoeARKAQAAAAAAAFQ8AqUAAAAAAAAAKh6BUgAAAAAAAAAVj0ApAAAAAAAAgIpHoBQAAAAAAABAxSNQCgAAAAAAAKDiESgFAAAAAAAAUPEIlAIAAAAAAACoeAcWKLUsS7dv31YymXT9jY6OKhgMelc/ELFYTMlkUvF43LuopO328fbt27Isy7v6kRWPx5VMJhWLxbyLsI14PF6ynsTjcb5HHDvUZ+Dw2G2FSCTiXbTtsVeOUCik0dFRhUIh76J945h/9dn10fs771RPgeNmu3Mr5zjg30QikZKxlUgkcuziGcBRd2CB0u34/X5Fo9EtB3QpdqNvfHz8QG8kdlNfX6/r169zcnmFjY6OqqamxlWvQqGQqqqqdOfOHde6wFFHfQZejmg0qmg06i0uSyqVUl9fn1KplFQ8Zj/99NOy2keoXNlsVqlUSqdPn3bVlQsXLmh9fV2JRMK1PnAc0a4BdpdIJLSysqLu7m5TZlmWzp07p1QqpWw261ofwP4dSqB0YmJC4XBYExMTkiSfz1dWELKmpkbV1dXe4kPh3ccTJ04cm5uVaDSqcDisoaEh7yJsI5PJ6OHDhzp//rxUvKiEQiF98cUXXFRw7FCfAaBypFIp5XI5c3McDAb1/vvva2pqyrsqcCzRrgHKMzU15eo4u3z5sjY3N00nLICD8VpTU9O33sL9sCxL169fV319vSYmJpRIJBSJRNTT06PV1VXduHFDksw6NntZMBjUlStX5PP5zLLFxUWTuRGPx9XS0mKWTUxMqLGxUR0dHVpcXNSTJ0/U0dFhlpXqYS+1j8FgUNFoVH6/37XNr7/+WlVVVaqurlY8Hlcul9uy7zMzM65gZSgUcn0G+7Nls1nFYjGzf/Lso/ez2dvdrbzU/+vq6sxrnO/h3LfV1VUtLy/r3XffdX3Hr7pgMKgPPvhAv/jFL1RbW6vOzk7z+9h1VZIKhYLGxsbMBcf5Ozh/U+Bloj4Dh8NuK0xPT29pS8RiMdXV1ZmRMh988IG+/PJLff/735fP59PMzIzS6bRpV+TzecXjcWUymS3HrH2MytHecbZTnOXO97fbEqurq9rc3NTjx4/pOK0AoVBIFy9e1M2bN9Xd3W3qoTz1wlvn7LqoEu1W4CjxniNp1wClxeNxPXnyROl02hwzqVRqx3P+dtcJAKUdSkZpT0+Pksmkenp6tLi4qGvXrimbzZbMGK2vr9cHH3zgKnOyh+M7A4ZeLS0triBkV1dX2dmh7e3t8vv9KhQKWltbM+UnT540Nyrf/e539bOf/cwVJJWkjo4OM29OJBLR1atXXYFeWzwed+2fJHV3dysUCikWi5X8bNuV76Sjo8P1ms7OTtMj6wzg1tfX691333W8sjLYvdU/+MEP1NnZqenpadP46urq0uDgoMLhsNLptEKhkCzLUiQSUSAQUH9/v8LhsO7fv+/dLPBSUJ+Bl8/n8+nMmTP68MMPNTIyovb2dkWjUcXjcfX392tjY8M1RM6WSCQ0MjKib775RoODg64g6dLSksLhsPr7+xUIBMwclLFYTM3Nzeb4nZ6e1smTJ72bxivKzirt7e3V6dOnTTapt14sLCyor69PktTX16eFhQVTn7766ivPVoGjg3YNUB47q7S3t1e5XM4VJJ2cnFQ4HNbg4KBOnz6tUCikUCik06dPm2NofHzcu0kAHocSKHVqaWkxkwtnMhn19fUpHA67hr0HAgFlMhl98sknyufzKhQKGhkZUTQa1YULF1RfX2/K7Nc6szxWV1fV39+vkZERFQqFsob6O4O5kvTo0SNXyno+n9fg4KD6+vr0xhtvmMwQ+wRj7/vZs2f1n//zf1ZnZ6dUzP6w9/HatWuqqalRQ0ODa/9nZmbk8/nU2tq65f3CniH125WXYr+3vW/V1dWqqalRa2urySTt7+9Xf3+/VldXvS+vCHfu3FFVVZUkmcZUW1ubFhYWTK/a/fv3tbm5aYLt9vcoSffu3aOXGkcG9Rl4uQqFgpkXLJPJ6NmzZ+b4y2azWlpaUl1dnfdlJQWDQVVVVSmdTkvFuSmnp6fV1tYmy7LU3NxsAgcqBlsXFxc9W8GrbHR0VJZlmRvjUvUinU4rEAiYc75d/7LZrO7du+faHnDU0K4BdpdKpfTw4UO9/fbbptOsvb1dGxsb5rixOx7seIMzPvLZZ5+RTQrs4lACpfb8n4ODg8rn86qvr9fly5cVDAY1OjpqnjbvHHa2ncbGRqlEINNpfX1d2WxW2WxWhULBu3hXMzMzW4afr6ysmBOIvQ/OsrW1NfNeb7zxhqqrq1UoFLbMF2VZlnw+n3w+n65evapkMunKLk2n08rn8/L7/RoYGFAymVQkEtm2fCdPnjyRHPtmnxDtRvLS0pL5npaWljyvrgzZbFbr6+vmu7AsS4FAQB0dHaZeDg8P6+TJk6qtrVUikdDk5KQGBgZe+EPGgN1Qn4Gjwz4el5eXvYvKUltbqzfffNNc8+12UiAQ0JkzZ1RVVeUa+YLKk8vltLGxobm5Ockxt7/d+Z9MJjUwMKATJ07IsizTtk0mkzwRGccC7RqgPMvLy3r27JkrXlFfX6/h4WFzrHR0dKiurk6pVEp3797VlStXyoopADikQOl2uru7zVygdmblbuwbjoaGBtNzGAqF9MMf/tCz5t7Y+1BOpmapfaitrTVD2X//+99rY2NjS5Zof3+/Tpw4IRWzTpwZsfb7OrNs7cyQrq4uqThkylte7pQCpTQ3N8uyLJOBgH9rkDnrg/1nZy0nEgmFw2GNjY2pt7eXRhiOLOozcHytra3p66+/NkNI7b9r167pwYMH2tzcVG1trVnfDiCgcuVyOT19+nRL+/LSpUsmuSBafADo0tKSrl+/TrAUxwrtGqA8y8vLrpGt9p/dYZZKpXTp0iUNDg6qq6uLYCmwi0MJlNo92wMDA2b+z/n5+S3LvfN22uzsy3g8rtnZ2S2ZlVevXtW/+3f/zvuyQ1NqH+xs2IWFBf3t3/6tydB09nieOXNGn3/+uR49euTKKHX27MdiMVNmzy+6sbGhixcvlizP5XKOPSuPnXlg9zINDw9vmW+1ks3NzW0bhO7v7zcNrv1mLAMvEvUZOJ4ymYyqqqp0+fJl7yITLLDnHpdkpiZC5cpms3r8+LGZr9HJsix9/PHHpny/mc7Ay0a7Btjd7OysGhoaSgZAI5GIKbdHJgDY2aEESp2cTya0h5OrOK/oL3/5S9e6mUxGCwsLW8p+8pOfuObU9D546bCV2gcVs1LtbNShoSEzN6jNnhIgGo2WPY9YPp/XrVu39M///M8ly7P7mHcnkUi4sncXFxfL3p9KkEgktLCw4BruaAeynz59agLcAwMD+vzzz7edAgI4CqjPwMFwDmdOHsJQNfvhPAMDA4rH48pms7p165bOnj1b8n2j0ajW19fNsLq2tjau5dDQ0JCrXiSTSVOf3njjDVPe1dW173Yk8DLRrgF2l8lkdPfuXXV3d5vjxJ6OYm1tzZQPDw9raWnJ9bwXAFu91tTU9K23EK+2UCikK1euyOfzaWZmZtepBwAAAAAAAIBXHYHSChAMBhWNRuX3+13l+Xxe8Xicp94BAAAAAACg4h360HscTYuLi+rr6yNICgAAAAAAAJBRCgAAAAAAAABklAIAAAAAAAAAgVIAAAAAAAAAIFAKAAAAAAAAoOIRKAUAAAAAAABQ8QiUAgAAAAAAAKh4BEoBAAAAAAAAVDwCpQAAAAAAAAAq3mtNTU3fegudzpw54y0CAAAAAAAAgCPpwYMH3qKy7BooBQAAAAAAAIBXHUPvAQAAAAAAAFQ8AqUAAAAAAAAAKh6BUgAAAAAAAAAVj0ApAAAAAAAAgIpHoBQAAAAAAABAxSNQCgAAAAAAAKDiESgFAAAAAAAAUPEIlAIAAAAAAACoeARKAQAAAAAAAFQ8AqUAAAAAAAAAKt5rTU1N33oL98OyLF2/fl319fWu8tXVVd24cUPZbNZV/iJEIhH19PRs2YdgMKhoNCqfz6exsTGlUinvS5+b9z2y2eyO/z+MfUBp8XhcLS0trrKJiQklEglX2UEJBoP64IMP9Itf/ILfGQfGW4/z+bzi8bgymYxrvXLZ56zJyclDOxaA46BUe8bbjtirUCik3t5e3b17l+sA9ow6iUpAuwbYnR3fcHre+9h4PC5Jikaj3kVAxSKjFBUjGAxqdHRUkhQOh83fxMSEGhsbvasDR97MzIypxysrK+rr6/OuUrZMJqO+vr7namgBr5KJiQmFw2H19/dLki5fvuxdpWypVEp9fX0EpPBcqJN41dGuAXa3urqq/v5+cx/b1dWlYDDoXa1s0WiUICngcSiBUrshFw6Hde3atX33dr/K7Iv3pUuXaKS+IH19fVpYWNhyIUgkEhoaGnKVAcfN3NycAoGALMvyLgLwHLLZrJaWllRXV+ddBLwU1ElUAto1wO5mZ2dVKBQ4ToADdiiB0lJisZiSyaT+8i//Urdv39bo6KguXryo0dFRjY+P6+OPP1YymVQsFpOKaeXJZNL8jY6Omp4SOzOw1Ov2y94/+298fFyhUEgqDk8aHx/X6OioIpGIxsfHlUwmdfv2bddJKR6Pm9f/2Z/9mWPrWzk/QygUcv0/EolodHR0y+eW5z36+/td28D2QqGQampqlE6nvYu28NY9eziCzf6tStVNFYfI3b592yzv7e11vR44aJZlqbOzU9PT06ZjyluPnedI+5xmL4tEIqbeRiKRbdd73vMscBwFg0GdPn1aU1NTpszbZnAeN85l9vUhGAzq008/dV2rvceocxvATvZaJ51tR7vtSp3EUUa7BihPd3e3crmcSbzy3qc64xXe+m8fG7FYzHW/672X9cY8gEpwKIHSnp6ebS9AJ0+e3DKPqc/n07vvvmv+H4vFtsy94ff7FY1GXQEp7+u2U19fr+HhYbNPAwMD8vv9rnW8vfI+n0+9vb2u9/P7/erp6ZHP55OK271w4YJUYl6d9957b8t7lMPn86mnp8e81u/3q7u7WzrA96hEtbW12tzcVC6X8y5yiUQi6u7u1sjIiBneFggETD0OFuc7WlhYMFnTCwsL+vGPfyzLssw8YktLS2Z5VVUVvxMORUdHh5LJpIaHh7W+vu4aXtbU1KTBwUEzLOfs2bMKBoOyLEuhUEjpdFrhcFiDg4N68uSJa7tyzF83NjZm1nv69Kl3NeCVZbdlBgYG9PDhQ3MTYlmWXn/9dTPsbWZmRp2dnebYOn36tDn2xsfHvZuVitearq4us97IyIj++Z//2bsa4LKfOhmJRBQIBMyy+/fvezcrUSdxRNCuAXbnjG2cPXvWTC0nSe3t7ZqcnDR1vLq6WhcuXCj7OCl1L/vgwQPvasAr71ACpTvJ5/MaHBxUX1+ffvvb35pye06aO3fuqLm52VXW39+v1dVVV9DQ+7rnHTodjUbNyWBwcFD5fF4+n8/Ve1IoFDQyMmL2R5IaGxsVDAbV0NAgOaYdGBkZUaFQMK/dC3sbi4uLUjGIW+o9JiYmPK/EXjgzLOxetLa2Ns3Ozpqbj2w2q+npaTU3N8uyLLW3t2tjY0N37twx20mn06qqqjJZQ1VVVa7M1dHRUeXzefN/4KA45/J68uSJq8d3cHDQPACh1LAce17eTCajzz77zJTbzp8/r4WFBXMsZDIZ/fVf/7V3NeCV5ZxGqK6uzlwnstmsfvrTn5osp/n5eVVVVammpkYqdnjax9pnn3225UEkVjFTanJy0ixLpVK6d++eaz3Aa791srq62vz73r17W6bEok7iqKBdA+zOOUfp3bt3FY1GzeiARCJhOhgymYxWVlZcz+LY7Tixk8Cc97rDw8NbrhvAq+5QAqXOhpw3gLmysrLlpqFQKGh+fl6SVFNTo+rqaldZNpvV+vq66zXyvG4nzpOJMxDq5Ayalco4VfH9stmsa3/q6upkWZZ8Pp/y+bxmZ2el4j7vJ1BaKBS0trYmSaaXJxAIqK2tbct7zM7ObvkcKG1tbc110yBHcHxmZkYq3igEAgEtLy87Xul+bWNjo9bX110Xi1wup83NTdXW1paduQoctDt37mhzc9NkwTuH1zjPadlsVjdu3FBzc7Ork8Bpu2MBqFSjo6MKBALm+HIOAb169aoZaZJKpXT37l1duXJFyW2GLtfU1Kiqqspc64H9KLdOJhIJTU5OamBgYNupmqiTOIpo1wC7S6VSWlhYUGtrq1Ri2Lw9GrWc40TFQKr3XheoRIcSKH0euVxOGxsb8vl8rgM+EAh4Vz0woVBIp06d0uLiosLPkQ3q9/vV3t4uFdPeSwVbn9eLeI9XUSaT0ebmpvnuSrED4M5eN9v6+rpyuZyWl5dLTiy/ubmptbW1kgFZO5AOHKaamhpzngyFQrp48aI++eSTkp1D2WxW165dUzgcloodRU47HQtAJbIsS1VVVVIxINXZ2Wk6YL1thlQqpUuXLmlwcFBdXV1bgqXOzjVgv/ZSJxOJhMLhsMbGxtTb27slWEqdxFFEuwYojz2FoFUcNj89PW0SxOwRqirjOJG07b0uUGkOJVDqnKPU+6Cb3WSLT/KUZ56a+vp65fP5sh7Gs18tLS1beuLLkclk9OzZM8nx2b1zrD6vBw8eHPp7vMqy2axSqZS6u7u3zJvrNDc3p/b2dnMTYRXnc3n8+LGy2axmZ2dVXV2ty5cvm9dcvnxZVVVVymQyymaz8vl8rikizp8/v6f6BOxHd3e3Njc3lclktmQ2OztVgsGgBgYGzOtKzU+kEsdCMBjUj370I+9qQEU4f/68crmcMpnMlmyL1tZWc46PRCImMGp3/HrZ7Zyuri5XptQPf/hD76rAtsqtk/39/eY8nt1mtBN1EkcR7Rpgd6FQSA0NDZqfn98yOsA5dV+5x0mpe93+/n4Cp6g4hxIofV5DQ0Nb5t9cXV3VT37yky3D9g9CKpXSo0ePpOLQ94mJiT0Nac9ms7p165Z5zX62sZuVlZUt7/GrX/2qZIMXpaVSKX3yySc6e/asCeQnPZNgJxIJpdNpXb161QTpl5aWzBQSmUxG8XjctY3m5mbduHFD2Wy25PJHjx4daF0AbHZnkl2Pb926pWw2ax7WYU/03tnZaepgLpfTW2+95aq/N2/e9Gx567EwMDCgf/mXf/GuBryynJ2+gUDAHCfpdFoNDQ1m2VtvvWWuxWtra+ru7nZdP5wPI7ENDQ1pYWFBAwMDSiaTunLlCtcJ7Go/dfLp06eu8/jnn39u5mh0ok7iKKBdA+zO+TCnq1evanJyUqlUSplMRg8fPjR1PBqNmg7bco+TUveyp06dMh1xQKV4ramp6VtvIY6HeDyulpYW5fN5xePxQwkiAwAAAAAAAJWAQOkxEovF1NHR4S3WzMzMlodmAQAAAAAAACjfkRx6j/IUCgWNjIwQJAUAAAAAAACeExmlAAAAAAAAACoeGaUAAAAAAAAAKh6BUgAAAAAAAAAVj0ApAAAAAAAAgIpHoBQAAAAAAABAxSNQCgAAAAAAAKDiESgFAAAAAAAAUPEIlAIAAAAAAACoeK81NTV96y10OnPmjLcIAAAAAAAAAI6kBw8eeIvKsmugFAAAAAAAAABedQy9BwAAAAAAAFDxCJQCAAAAAAAAqHgESgEAAAAAAABUPAKlAAAAAAAAACoegVIAAAAAAAAAFY9AKQAAAAAAAICKR6AUAAAAAAAAQMUjUAoAAAAAAACg4hEoBQAAAAAAAFDxCJQCAAAAAAAAqHgHFii1LEu3b99WMplUJBLxLq5IwWBQo6OjSiaT5m90dFTBYNC7Kl6AeDy+4/cfiUT2VH8jkYhu374ty7K8iyRJsVhsx+XybMOuL+W+/2Ha7bPh5aM+l2+3zwY4Odsz9t/4+LhCoZB31T2zt20fF+UcV8FgUJ9++um+3t8+D+x0rjhKYrGY4vG4t7ji2fVmp7oSi8X2VE93+67j8fiOy+XZRigU0ujoaNnvf5h2+2w4muLxuOu8u5c2zG72Wle95+q9CIVCGh8f39Px+DKFQiF9+umnx+Iagd3b93b7u9xz4G5tjHKOF+82yrl+vAje/QL24sACpXALBoOKRqPy+/3eRceGfaI9LjdY5SgUCuru7vYWy7IsdXZ2eov3JB6PKxaLmf8PDQ3p2rVrymazrvW2k8lk1NfXp0Qi4V0ElER9Bg7PxMSEwuGwwuGwLl26pFQq5V3lue31uNqLYDCo999/XyMjI+rr61Mmk/GugmNkc3NT1dXVunDhgneRgsGgzp496y0uW6mbyWg0qmg06lpvJ6lUSn19fYdynKByzMzMmPNuOBw+lDbEYdZVy7IUCoWUTqcP7boB5PN5nTt3rmTHWXd393PFH7wdTfs5XvZ6/QCOIgKlh6S9vV1+v1/5fF6Dg4Pmgv+P//iP3lWPLMuy5PP5vMXHXnNz85YLy4ULF1RVVaVvvvnGVQ4cddRnAKXY54XDCMLixauqqlKhUFBbW5t3kbq7u7WxsaF8Pu9dBOAFqqmpUVVVldbW1ryLgAP1ne98Z0siUzAY1OnTp/X111+7ygHs3QsLlMZisW2HsdlDFOxhmuPj40omk1uGGDmHZPT392t0dNRsx05Dd77GXt/OitppH5z7YW/n448/VjKZdPWq2O9j/zkzrkrx+/2ujK/BwUFlMpmy9tf5f+dnt1Pt7YzP8fFxRSIRM8zfmwHq3WfvcnvbP/vZzzQ6Oqrbt2/rL/7iL3T16lX5fD75/X4NDAzs+lmPg3/6p3+SioEkp7a2Nv3d3/2dNjc3TZm3R227YTgNDQ26ffu2Wlpa1NHR4aqT3jq8E+/27fd3/vbe38BZp+11nfV9p/23/79dvcDRd5zqs/16+7xq11kn6jOOOjvzrr+/37QXvHXNvjYni+2M/v7+bYc1eo8r5/nee7x973vf2/Y9vSKRiK5evao333xTAwMD5tjxtge8x6D3OLL3wXksqkQGorP9lPQMCXQe1979du7P6Oio/v2///dmGbb68ssvVVNT42q7Wpalt956S9PT0651d/vNbKFQSB999JHefPNNXb161fzm3nPubpzbt+uR3Va3jwXvfjvrmn2c2Ovstv/O48xZV/HqOYj65OStSzudo77zne9s+55e2x1L3n0rtR3nud/eB+8x6G33eI8B5/HiPLd638/7unPnzpllOB42Njb0f//v/9X58+dd5e3t7crlcnr8+LEpC5WYWsFbt2zxeFwdHR1qaWlRsngt9x4v5XBuv5z2v7O+2uva65Sz/85j2N5v4Hm9sEBpXV2d6/8+n0+9vb2uSu/3+9XT02OyGOvr600AIB6Pq6Wlxaz73nvv7TmtfKd9CIVCunLliuu93333Xdf6sVhMPT09rrKOjo6SB+P9+/e1urpq1vFewPbCPmHZuru7XScrn8+nnp4e8334/X79+Mc/Ng1d7z77/X5Fo1HXdy9J77zzzp6/0+PmD3/4g6anp9XZ2Wka1KFQSDU1NXrw4IF39bKsrKzo2rVrWlxc1MzMzIEOtWlpadHc3JzC4bAmJibU3t7uatg1Nzerv79f4XBYc3Nzrnqym2AwqAcPHigcDqu/v18bGxslh3Hj6Dpu9bm+vl5/+MMfFA6HNTIyolOnTpnzJ/UZR01PT4+r4W4fYz6fT2fOnNGHH35o6lpfX59UrIfRaFSTk5MKh8P68MMPdebMmbJGZ0QiEQUCAXMM3L9/3yzb6T1LSSQSGhkZ0TfffKPBwUFFo1FFIhF1d3drZGTEHCeBQMC0TSzL0vXr17W0tGRGwZRzHrEcQ03D4bAGBwf15MkTqcRxvbCwYPY7Eomoq6vLjLq5e/eu3n77bc/W4fT06VM9fPjQdXNsjyBYWlpyrVuuVCqlTz75RN98841GRkYOdCqIc+fOKR6PKxwO69GjRwoVg6il6tqpU6f21AZtb283x9ng4OC20xLgeLHvmZIlgpaHUZ9CoZBOnz5tzkPj4+Ou5du9ZymljiVJun79utbX182+pdNp1z2wHfCxl//v//2/XdvdTl9fnxYWFhQuns+/+uorqcS5NZ1Om/32XqP6+/vV2NhY1jUKR8vU1JSr48wqTrs1NzfnXbVs0WhUMzMzWlxcVPgAp77Yqf3vra+pVEp//Md/7N3EtizL0uuvv27aGTMzM677ImC/XligNBqNmgvA4OCg8vm8fD6fqxIXCgWNjIyov7/fBBkbGxsVDAbV0NAgOeYMm5iYMK8r10770NraKp/Pp9XVVfX397v2QcWDsLm5WSqxD6WGQWWzWV27dk0zMzOmrKOjY1893vbJyt4nn8+n1tZW1zr2Po2MjKhQKOjEiRN6//33zT7bc/7Y2/Bmukoyn/3atWv6q7/6K7Mte/qAoaEh1/rH1ezsrKqqqkwD5fz583r48KFpYBwli4uL5iJ1//59PXv2TLW1taY+Tk9PmxuaRCKhxcVFzxa2l0qlNDw8LBXr69LS0pbOBBx9x6k+r66u6s6dO1Kx/j169EiNjY3UZxxJzjlKncGjQqGgVCqlbDarbDar6elpBQIBWZal9vZ2bWxsmCBnNptVKpVSoVDwbL206upq1dTUSJLu3btX1nuWq62tTbOzs6bjw96OPX2HHWSyj1FJGh4eLjto1tjYKBXnJ/7ss89KHtfpdFqBQEDBYFBtbW1aWFgwc6emUinNzs66tomt5ufnVVNTo2AwaG6Mp6en9ezZM++qL93k5KT5faemplRVVWX2vaqqSul02qw7Ojq6p6kDEomEaR9lMhmtrKyYOojjyzlHqXdu5cOqT8770c8++6ys9yyXvW+jo6Om7P79+9rY2DDJDzU1Na7lf/3Xf132nNJ2OyebzerevXtS8VzvPLfev39fm5ubCgaDz32NwtHx1VdfKZfLmZiAfQ13drIeFdu1/1Wivu61LZDNZvXTn/7UtDPm5+f3fJwCpbywQKlzSMHAwEDJXr5CoWBuAtbX16XiBcAqzpWZz+fNgTM7O1v2BdC20z7YF5qlpSWzD87e+ZqaGlVXV0uOLBNvpmYpQ0NDrqCqM0u2XHZmhvN7cSoUCmYunGw2ay521dXVqq6uVqFQ0Pz8vFleahtyfPZXXSaTMRkZwWBQNTU15vs5LMEDHiJ2UHMgOY+Jjo4O72IcA9Tnf0N9xsvW2Nio9fX1fV1LE4mEJicnNTAwsGWo5E5CnmHv3iFtKnb2BgIBLS8vu8rX1tbMDcV+9z2bzerGjRtqbm52vb/dbnJm5g4MDOjEiRNqa2sruT/YXSqVUi6XU3d3twnC7OWmcj/KqWN7UVtbq83NTeVyOe+islme4cx7GYGAV8vz1KdUKqW7d+/qypUrSu5hyG657aBS+2bfizU2NpZcXi77YTnO97fP9c7M3OHhYZ08eVK1tbX7Ps/jaJqamtLp06dN5+OLuJd3trX30lYpZbu2yV45h+7bUwcCz+uFBEpDoZBOnTplMiPtTMW98vv9am9vlxwPS/KyszGcWajawz7YmRV2JkQpziyTcDhc8qlukUjENdR+u8DudvvrZAdxnes4Tyg+n0+1tbWS43spFAr66quvtLGx4cpAtU9Ilc7Oaunt7VUulzMZNofFfgJ4qeyk/XL+7trHbxuPx/XkyROzT87sZxwv1GfqM44Ob6ZnbW1t2Y32RCKhcDissbEx9fb2lnUDkkqldOnSpR3bJM4bc6/19XXlcjktLy9v2fdyZYujaMLhsFQ8HnO5nJ4+fWqG+tt/ly5d0tjYWMn9IQu8PFNTU3rrrbf0gx/8QA8fPiw7+2y/yqlje+XMnlbxnF/ucWIVh1pPT0+bfdrLCAS8ep6nPtn1e3BwUF1dXWUFS8ttBzk7o7yWl5d3XF4Oe7Tk0tKSrl+/LhXP6d571XBxGHWp8/xerlE4WuyOs//6X/+rampqXFnVh8U5Qvegpud6nrZAJBJRZ2enGXq/XYwH2KtDCZQ6swdGR0d18uRJqTjf4n4i/ZlMxgwp2i6bc21tTYVCwTx46KOPPnItt223D/Z8HvX19RoeHtbw8LDq6+vN8kwmo4WFBanE5wtu80AFZ2+encFqZ8WWu79y7LN3G07e72VlZUV/+7d/a7Ji7X2xP1c+ny/7ZGrv437nWD2KMpmM1tfX9fbbb2tqasq7WCo2YBoaGszve/nyZVedeJkyxWFmzjlYLly44Nq/nfbf24O3U8cAjj7qM/UZR8P8/LxOnDhhRo5YxaHR5ejv7zeBUefokIMyNzfnmufaKs4t+vjxY2WzWc3Ozqq6ulqXL182r+nv75dlWXry5InpSFZxbjy7szoYDGpgYMC8xjkK5vHjx9vO6ffkyROdPXvWHNN2hzZ2l8lkVFVVpe985zvbtuV2+s1eNrsN65wC6vz58652+U777x2FsFOyAV595dSn7UQiERMYzeVy2tjY8K7yXDKZjDY3N11zSkciETU0NGh2drbk8h/96EcKBoO7tns+/vhjc3w4E2jm5ubU1dVV8v50bW1t39coHE1zc3N69913t+00y2az8vl8JtksFAqZf79s2eII3p3aArvtvzdL2p5OEXhehxIo9fr1r3+tR48eScVh4hMTEyWzK7eTzWZ169Yt85pCoaBf/epXrpsI73wWs7OzWllZcS3faR8SiYQrA2lxcXFL7/TQ0FDZWUp2INQpn88rHo8rk8nsur9OX375pZkvtVAo6O7du64Toff7WF1d1c2bN6XiPnvnc11dXdVPfvKTkidTJ+d39iqamprS7373u22/h0QioZWVFQ0MDCiZTOr11193zVvrNTU1pfb29ucehlAu+zceHh5WMplUW1ubq87utP/Z4tx0doD95z//uesJ6Th+qM/UZxwsZ6dosswhmalUSul02lUXHzx4sKU9UMrTp0919epV0zH6+eefH0imhi2RSCidTpv3GB4e1tLSkpl/PJPJKB6P6+zZs+Yznzp1Stls1swtZh+fjx49Mm2oXC6nt956y7ymubnZ1QZZX183r0s6hm0PDQ1pYWHBHNOhUEi/+c1vzP5ie/Y5b2VlZdtz/k6/mVemOIWL80ndhymTyeju3btqb2839cK7fzvtv3N/k8mkotHogQe48HI4k0ySZT4It5z6tJ21tTV1d3cr6Tgn2nPfHoRscWqSQCBg9q2rq8vcD5Za/id/8ifK5XK7tnveeOMNc3x0dXXp1q1bymazSiQSrnNr0jE0P5VKaWxszHzmvVyjcDTdv39fX3/99bbTbmUyGU1OTpp2yW7X2nQ6rYaGBiXLbPc8r6GhIVc99+7fbvvv3N9kMqm33nqL+owD8VpTU9O33sLjIB6Pq6WlxRV8PEihUEhXrlyRz+fTzMzMS3mQkf0Zt3v/YPHJhT6fT2NjYwd6Q4Xjx3IMRTvIRh7wMlCf8aqwh4XduHHDZDwAcAuFQrp48aJu3rx54G16VB7qE3B82dNplYp/AC/KC8koPQixWMz0FCQdk7Y7n5L2PIKeSbntofl7GaIOvEyXL19WdXX1lmkZgOOI+oxXQTAYVFdX1wt5wAJwXNnTQORyuQNp06OyUZ+A4ysSiejUqVPbZsgCL8qxySiNxWKupxgXCoUDzaK0szOd8zctLi4eyIT1+0VGKXbiPSYOK7saeBGoz3gVlGpLbHcNByqVPWLAOQ/1y25z4/iiPgHHVyQScT175qBjPMB+HZtAKQAAAAAAAAAclmMz9B4AAAAAAAAADguBUgAAAAAAAAAVj0ApAAAAAAAAgIpHoBQAAAAAAABAxSNQCgAAAAAAAKDiESgFAAAAAAAAUPEIlAIAAAAAAACoeARKAQAAAAAAAFQ8AqUAAAAAAAAAKh6BUgAAAAAAAAAVj0ApAAAAAAAAgIpHoBQAAAAAAABAxSNQCgAAAAAAAKDiESgFAAAAAAAAUPEIlAIAAAAAAACoeARKAQAAAAAAAFS8/x9Aqkef38lo+QAAAABJRU5ErkJggg==;" vertex="1" parent="1">
                    <mxGeometry width="1354" height="836" as="geometry"/>
                </mxCell>
            </root>
        </mxGraphModel>
    </diagram>
</mxfile>